<svg width="100" height="100" viewBox="0 0 100 100" fill="none" xmlns="http://www.w3.org/2000/svg">
<path d="M35 14.8008H85C87.2 14.8008 89 16.6008 89 18.8008V87.5008C89 89.7008 87.2 91.5008 85 91.5008H35C32.8 91.5008 31 89.7008 31 87.5008V18.8008C31 16.6008 32.8 14.8008 35 14.8008Z" fill="#ECF4FF"/>
<path d="M9 12.5H63C65.2 12.5 67 14.3 67 16.5V90.5C67 92.7 65.2 94.5 63 94.5H9C6.8 94.5 5 92.7 5 90.5V16.5C5 14.3 6.8 12.5 9 12.5Z" fill="url(#paint0_linear)"/>
<path d="M63 17.5V89.5C63 90.1 62.6 90.5 62 90.5H20L9 79.5V17.5C9 16.9 9.4 16.5 10 16.5H62C62.6 16.5 63 16.9 63 17.5Z" fill="white"/>
<path opacity="0.08" d="M53 12.5V19.5C53 21.7 51.2 23.5 49 23.5H23C20.8 23.5 19 21.7 19 19.5V12.5H53Z" fill="black"/>
<path d="M22 10.5H50C50.6 10.5 51 10.9 51 11.5V19.5C51 20.6 50.1 21.5 49 21.5H23C21.9 21.5 21 20.6 21 19.5V11.5C21 10.9 21.4 10.5 22 10.5Z" fill="url(#paint1_linear)"/>
<path d="M36 15.5C38.7614 15.5 41 13.2614 41 10.5C41 7.73858 38.7614 5.5 36 5.5C33.2386 5.5 31 7.73858 31 10.5C31 13.2614 33.2386 15.5 36 15.5Z" fill="url(#paint2_linear)"/>
<path d="M36 13.0984C37.4359 13.0984 38.6 11.9344 38.6 10.4984C38.6 9.0625 37.4359 7.89844 36 7.89844C34.5641 7.89844 33.4 9.0625 33.4 10.4984C33.4 11.9344 34.5641 13.0984 36 13.0984Z" fill="white"/>
<g style="mix-blend-mode:soft-light" opacity="0.3">
<path d="M26 15.5H46C46.6 15.5 47 15.9 47 16.5V21.5H25V16.5C25 15.9 25.4 15.5 26 15.5Z" fill="white"/>
</g>
<path d="M59 30.5H36V36.5H59V30.5Z" fill="url(#paint3_linear)"/>
<path d="M59 38.5H36V41.5H59V38.5Z" fill="#E0EDFF"/>
<path d="M48 49.5H13V58.5H48V49.5Z" fill="#E0EDFF"/>
<path d="M48 61.5H13V70.5H48V61.5Z" fill="#E0EDFF"/>
<path d="M48 73.5H13V76.5H48V73.5Z" fill="#E0EDFF"/>
<path d="M20 81.5V90.5L9 79.5H18C19.1 79.5 20 80.4 20 81.5Z" fill="url(#paint4_linear)"/>
<path d="M94 70.8008V92.4008C94 93.5008 93.1 94.4008 92 94.4008H38C36.9 94.4008 36 93.5008 36 92.4008V70.8008H94Z" fill="url(#paint5_linear)"/>
<g style="mix-blend-mode:soft-light" opacity="0.2">
<path d="M94 70.1016V75.3016L66.7 81.2016C66.1 81.3016 65.6 81.4016 65 81.4016C64.4 81.4016 63.8 81.3016 63.3 81.2016L36 75.3016V70.1016H94Z" fill="black"/>
</g>
<path d="M93.4 71.9984L65.9 77.8984C65.3 77.9984 64.7 77.9984 64.2 77.8984L36.6 71.9984C35.7 71.7984 35 70.9984 35 69.9984V56.8984C35 55.7984 35.9 54.8984 37 54.8984H93C94.1 54.8984 95 55.7984 95 56.8984V69.9984C95 70.9984 94.3 71.7984 93.4 71.9984Z" fill="url(#paint6_linear)"/>
<path d="M74.7 44.6992H55.3C53.3 44.6992 51.7 46.2992 51.7 48.2992V54.8992H54.7V48.2992C54.7 47.9992 54.9 47.7992 55.2 47.7992H74.6C74.9 47.7992 75.1 47.9992 75.1 48.2992V54.8992H78.1V48.2992C78.2 46.2992 76.6 44.6992 74.7 44.6992Z" fill="url(#paint7_linear)"/>
<g style="mix-blend-mode:soft-light" opacity="0.3">
<path d="M78.3 52.8008H75.2V54.8008H78.3V52.8008Z" fill="black"/>
</g>
<g style="mix-blend-mode:soft-light" opacity="0.3">
<path d="M55 53H52V55H55V53Z" fill="black"/>
</g>
<path d="M15 24.5H31.4C32.5 24.5 33.4 25.4 33.4 26.5V43.5C33.4 44.6 32.5 45.5 31.4 45.5H15C13.9 45.5 13 44.6 13 43.5V26.5C13 25.4 13.9 24.5 15 24.5Z" fill="url(#paint8_linear)"/>
<g style="mix-blend-mode:soft-light" opacity="0.7">
<path d="M23.2 36.5C25.6853 36.5 27.7 34.4853 27.7 32C27.7 29.5147 25.6853 27.5 23.2 27.5C20.7147 27.5 18.7 29.5147 18.7 32C18.7 34.4853 20.7147 36.5 23.2 36.5Z" fill="black"/>
</g>
<g style="mix-blend-mode:soft-light" opacity="0.8">
<path d="M31.2 45.5H15.2C15.2 41.1 18.8 37.5 23.2 37.5C27.6 37.5 31.2 41.1 31.2 45.5Z" fill="black"/>
</g>
<defs>
<linearGradient id="paint0_linear" x1="36" y1="95.84" x2="36" y2="12.56" gradientUnits="userSpaceOnUse">
<stop stop-color="#162585"/>
<stop offset="1" stop-color="#0077FC"/>
</linearGradient>
<linearGradient id="paint1_linear" x1="36" y1="6.31" x2="36" y2="20.29" gradientUnits="userSpaceOnUse">
<stop stop-color="#F69621"/>
<stop offset="0.54" stop-color="#F17121"/>
<stop offset="1" stop-color="#F15D00"/>
</linearGradient>
<linearGradient id="paint2_linear" x1="36" y1="6.31" x2="36" y2="20.29" gradientUnits="userSpaceOnUse">
<stop stop-color="#F69621"/>
<stop offset="0.54" stop-color="#F17121"/>
<stop offset="1" stop-color="#F15D00"/>
</linearGradient>
<linearGradient id="paint3_linear" x1="47.5" y1="30.18" x2="47.5" y2="36.74" gradientUnits="userSpaceOnUse">
<stop stop-color="#C2DBFF"/>
<stop offset="1" stop-color="#8CBBFF"/>
</linearGradient>
<linearGradient id="paint4_linear" x1="18.899" y1="80.0091" x2="14.589" y2="84.8991" gradientUnits="userSpaceOnUse">
<stop stop-color="#C2DBFF"/>
<stop offset="1" stop-color="#8CBBFF"/>
</linearGradient>
<linearGradient id="paint5_linear" x1="65.025" y1="70.8508" x2="65.025" y2="93.5208" gradientUnits="userSpaceOnUse">
<stop stop-color="#F69621"/>
<stop offset="0.54" stop-color="#F17121"/>
<stop offset="1" stop-color="#F15D00"/>
</linearGradient>
<linearGradient id="paint6_linear" x1="64.9516" y1="54.9884" x2="65.0816" y2="77.7084" gradientUnits="userSpaceOnUse">
<stop stop-color="#F69621"/>
<stop offset="0.54" stop-color="#F17121"/>
<stop offset="1" stop-color="#F15D00"/>
</linearGradient>
<linearGradient id="paint7_linear" x1="64.8427" y1="44.7197" x2="64.9726" y2="51.4197" gradientUnits="userSpaceOnUse">
<stop stop-color="#F69621"/>
<stop offset="0.54" stop-color="#F17121"/>
<stop offset="1" stop-color="#F15D00"/>
</linearGradient>
<linearGradient id="paint8_linear" x1="23.185" y1="24.63" x2="23.185" y2="43.37" gradientUnits="userSpaceOnUse">
<stop stop-color="#C2DBFF"/>
<stop offset="1" stop-color="#8CBBFF"/>
</linearGradient>
</defs>
</svg>
