<svg width="120" height="68" viewBox="0 0 120 68" fill="none" xmlns="http://www.w3.org/2000/svg">
<path d="M39.2994 42.1316C38.3151 43.2088 37.4614 44.4567 36.3215 45.3305C33.9587 47.1408 31.1742 47.8589 28.2842 47.068C25.1707 46.2143 23.4834 44.522 23.6014 41.0595C23.7395 36.9567 25.0502 33.2959 28.5553 30.9055C31.5784 28.8441 35.2468 28.3645 38.4206 30.5992C39.3672 31.2646 40.1054 32.6782 40.2987 33.8533C40.5623 35.4552 40.266 37.1651 40.0702 38.8123C40.0376 39.091 39.3019 39.4776 38.8851 39.4852C35.9197 39.5429 32.9519 39.4877 29.9865 39.5379C29.3689 39.5479 28.5001 39.0759 28.1737 40.0953C27.8925 40.9741 28.4474 42.5409 29.168 43.0054C30.6017 43.9294 32.4773 43.8917 33.7704 42.5735C34.5689 41.76 35.3623 41.6772 36.3265 41.7023C37.1978 41.7249 38.0715 41.7073 38.9453 41.7073C39.0608 41.8504 39.1814 41.991 39.2994 42.1316ZM35.7841 36.4796C35.9951 35.2468 35.9423 34.2324 34.8626 33.5294C33.7403 32.7987 31.9902 32.8514 30.775 33.8181C29.9715 34.4559 29.2985 35.2744 29.3864 36.4796C31.5885 36.4796 33.6198 36.4796 35.7841 36.4796Z" fill="#919498"/>
<path d="M65.7515 46.473C64.3756 46.473 62.7787 46.473 61.0964 46.473C61.0462 45.9959 60.9934 45.5214 60.9432 45.0468C58.7311 46.3977 56.5768 47.7636 53.8224 47.1032C51.9041 46.6437 50.8872 45.4084 50.8771 43.4675C50.857 40.0376 53.2549 37.2932 56.7651 36.7634C58.126 36.5576 59.4995 36.4195 60.8603 36.2136C61.3073 36.1458 61.8798 36.0931 62.1459 35.8018C62.5828 35.3222 63.0423 34.6593 63.0498 34.0668C63.0548 33.7278 62.2263 33.1428 61.7165 33.0674C60.0544 32.8239 58.4248 32.8691 57.5686 34.7598C57.4656 34.9858 57.0664 35.1992 56.7978 35.2117C55.59 35.2594 54.3798 35.2318 53.0591 35.2318C53.506 32.9796 54.7363 31.3601 56.627 30.431C59.3011 29.1204 62.1082 28.9195 65.0309 29.8611C67.823 30.7599 68.0942 32.5929 67.6497 34.707C67.0421 37.6046 66.3441 40.4871 65.7842 43.3947C65.6034 44.3061 65.7515 45.2778 65.7515 46.473ZM62.156 38.7521C60.8101 39.0283 59.512 39.2819 58.2214 39.5631C57.8573 39.6434 57.5008 39.7815 57.1543 39.9196C56.1223 40.3289 55.2611 41.9509 55.5775 42.8624C55.9365 43.8943 57.0162 44.2433 58.465 43.7939C60.8126 43.0657 61.9651 41.4939 62.156 38.7521Z" fill="#919498"/>
<path d="M96.3514 46.5709C94.8424 46.5709 93.3987 46.5709 91.8243 46.5709C92.2964 44.3362 92.7483 42.1869 93.2028 40.0376C93.8581 36.9366 94.4959 33.8307 95.1989 30.7398C95.2768 30.4008 95.7011 29.9187 95.9974 29.8936C97.1901 29.7957 98.3978 29.8535 99.6909 29.8535C99.603 30.5214 99.5302 31.0737 99.49 31.37C100.821 30.7473 102.192 30.0116 103.638 29.4718C104.306 29.2232 105.129 29.2508 105.863 29.3387C109.067 29.7229 110.49 31.6487 109.85 34.8451C109.112 38.526 108.271 42.1869 107.419 45.8452C107.347 46.1566 106.875 46.5759 106.566 46.5985C105.32 46.6839 104.065 46.6336 102.626 46.6336C102.99 45.0041 103.342 43.4875 103.668 41.9634C104.052 40.1681 104.409 38.3678 104.783 36.5726C105.014 35.4627 105.365 34.3178 104.226 33.4767C103.432 32.8916 101.383 33.0724 100.414 33.7805C99.0757 34.7572 98.566 36.221 98.2271 37.7426C97.5717 40.6678 96.9766 43.6055 96.3514 46.5709Z" fill="#202326"/>
<path d="M12.9804 46.586C14.3087 40.3238 15.5993 34.2375 16.9325 27.9528C14.6727 27.9528 12.4506 27.9528 10 27.9528C10.3139 26.6019 10.5398 25.477 10.8612 24.3798C10.9265 24.1613 11.3509 23.9078 11.612 23.9052C17.505 23.8902 23.398 23.9077 29.291 23.9253C29.3639 23.9253 29.4342 24.0007 29.6652 24.1262C29.3915 25.1983 29.158 26.3307 28.7864 27.4154C28.6985 27.669 28.1461 27.8925 27.7996 27.9026C26.17 27.9528 24.538 27.9528 22.9084 27.9126C22.2154 27.895 21.8689 28.0783 21.7157 28.8215C20.6888 33.8006 19.6192 38.7671 18.5495 43.7386C18.3838 44.5045 18.198 45.2728 17.9344 46.011C17.849 46.252 17.495 46.5533 17.2539 46.5609C15.888 46.6136 14.5196 46.586 12.9804 46.586Z" fill="#909398"/>
<path d="M74.6449 29.9464C74.9312 33.773 75.2124 37.5619 75.4961 41.3533C75.6041 41.3734 75.7121 41.3909 75.8225 41.411C76.2368 40.6327 76.6687 39.8618 77.0654 39.0734C78.4313 36.3617 79.8023 33.6549 81.1305 30.9256C81.5021 30.1598 81.9641 29.7807 82.8605 29.8359C84.0557 29.9087 85.2609 29.8535 86.6444 29.8535C83.7569 34.8074 80.8066 39.4802 78.2857 44.3764C77.2211 46.4403 75.9179 46.8471 73.962 46.6412C73.387 46.5809 72.7994 46.6311 72.0914 46.6311C71.2678 41.0696 70.4518 35.5632 69.6207 29.9439C71.3356 29.9464 72.8999 29.9464 74.6449 29.9464Z" fill="#202326"/>
<path d="M40.0702 46.591C40.482 44.3463 40.8084 42.2898 41.2428 40.256C41.9132 37.1149 42.6865 33.9939 43.3494 30.8503C43.5 30.1347 43.7411 29.846 44.4818 29.8811C45.5615 29.9313 46.6437 29.8937 47.8313 29.8937C47.7259 30.6344 47.638 31.2545 47.5501 31.8722C49.1872 30.2452 50.99 29.2207 53.5385 29.2986C53.2422 30.8905 52.9661 32.3719 52.6673 33.9638C51.7734 33.9638 50.9674 33.8533 50.2016 33.9864C48.3511 34.3027 47.0881 35.39 46.6437 37.2405C46.0185 39.8367 45.4309 42.4405 44.9137 45.0593C44.6927 46.1742 44.2935 46.7718 43.0355 46.6086C42.1366 46.4956 41.2126 46.591 40.0702 46.591Z" fill="#919499"/>
<path d="M88.8615 46.5759C87.2872 46.5759 85.841 46.5759 84.2641 46.5759C84.7362 44.2659 85.1781 42.0312 85.6476 39.8041C86.2678 36.8689 86.9307 33.9412 87.5258 31.0009C87.7116 30.087 88.0656 29.6225 89.09 29.7179C90.117 29.8133 91.159 29.738 92.422 29.738C91.2117 35.4578 90.0366 41.0068 88.8615 46.5759Z" fill="#212426"/>
<path d="M94.7521 24.9246C94.7746 27.1744 93.1074 28.8868 90.8602 28.9219C88.5803 28.9571 86.8704 27.3225 86.8403 25.0753C86.8076 22.7452 88.4774 21.0152 90.7773 21.0001C92.9794 20.9826 94.7295 22.7126 94.7521 24.9246Z" fill="#EC2A1E"/>
</svg>
