<svg width="120" height="68" viewBox="0 0 120 68" fill="none" xmlns="http://www.w3.org/2000/svg">
<g clip-path="url(#clip0_1187:30255)">
<path fill-rule="evenodd" clip-rule="evenodd" d="M20.2531 37.628C20.2531 34.7044 19.1788 33.2444 17.0277 33.2444C16.5629 33.2444 16.1014 33.3053 15.6434 33.4269C15.1878 33.5497 14.817 33.7012 14.5312 33.8837V42.131C14.7585 42.1712 15.0385 42.2068 15.3863 42.2378C15.7318 42.2665 16.106 42.2836 16.5112 42.2836C17.7474 42.2836 18.6818 41.8567 19.3108 41.0038C19.9398 40.1521 20.2531 39.0273 20.2531 37.628ZM24.8778 37.7485C24.8778 39.0273 24.693 40.1842 24.3166 41.2185C23.9412 42.2504 23.3983 43.1354 22.6878 43.8654C21.9784 44.5955 21.1072 45.1579 20.0718 45.5515C19.0376 45.9499 17.8588 46.1485 16.5422 46.1485C15.9947 46.1485 15.4196 46.1197 14.8227 46.0715C14.2247 46.0199 13.6359 45.9533 13.0562 45.8729C12.48 45.7926 11.9233 45.6951 11.3976 45.586C10.8707 45.4723 10.4024 45.3541 9.99951 45.2347V22.8691L14.5312 22.1379V30.1096C15.0385 29.8893 15.5677 29.7125 16.1164 29.5931C16.6616 29.4737 17.2493 29.4106 17.8795 29.4106C19.0158 29.4106 20.0225 29.6092 20.8925 30.0029C21.7661 30.3989 22.495 30.9625 23.0849 31.6914C23.6726 32.4248 24.118 33.3006 24.4232 34.3268C24.7298 35.3495 24.8778 36.4905 24.8778 37.7485Z" fill="#3AA3E5"/>
<path fill-rule="evenodd" clip-rule="evenodd" d="M34.4959 42.5859C34.9401 42.5859 35.3682 42.5767 35.7711 42.5572C36.1798 42.5365 36.5046 42.5067 36.7468 42.4641V39.0264C36.5643 38.9862 36.29 38.9449 35.9249 38.9047C35.5622 38.8645 35.2271 38.8439 34.9217 38.8439C34.4959 38.8439 34.0941 38.8703 33.7176 38.9208C33.3457 38.9713 33.014 39.0677 32.7316 39.2112C32.447 39.3512 32.2232 39.544 32.0613 39.7874C31.8995 40.0308 31.8168 40.3361 31.8168 40.6988C31.8168 41.4116 32.0567 41.9029 32.5319 42.1761C33.0083 42.4493 33.6637 42.5859 34.4959 42.5859ZM34.1332 29.3191C35.4704 29.3191 36.5861 29.4729 37.4791 29.7748C38.3699 30.079 39.0861 30.5163 39.6233 31.0833C40.1616 31.6538 40.5416 32.3425 40.7642 33.1529C40.9858 33.9656 41.1006 34.8678 41.1006 35.8618V45.2947C40.4497 45.4371 39.5464 45.6046 38.3939 45.7964C37.2335 45.9892 35.8343 46.0868 34.1883 46.0868C33.1564 46.0868 32.2186 45.9961 31.3761 45.8124C30.5335 45.6311 29.8104 45.3303 29.2032 44.9136C28.5925 44.5004 28.1265 43.9564 27.8005 43.2872C27.4768 42.6157 27.3138 41.7973 27.3138 40.8227C27.3138 39.8896 27.5021 39.0976 27.8751 38.4479C28.2505 37.7982 28.7544 37.2817 29.3845 36.8971C30.0136 36.5103 30.7333 36.2325 31.5459 36.0604C32.3552 35.887 33.1977 35.8033 34.07 35.8033C34.6577 35.8033 35.18 35.8251 35.6345 35.879C36.0925 35.9295 36.4644 35.9938 36.7468 36.0753V35.6483C36.7468 34.8792 36.5138 34.2583 36.0478 33.7934C35.5794 33.3274 34.7679 33.0921 33.6132 33.0921C32.8419 33.0921 32.0808 33.1483 31.3301 33.2608C30.5818 33.371 29.9298 33.5282 29.3845 33.7291L28.806 30.079C29.0677 29.9986 29.4006 29.9137 29.7932 29.8207C30.1915 29.7312 30.6219 29.6485 31.0856 29.5785C31.554 29.5062 32.0452 29.4465 32.5629 29.396C33.0817 29.3432 33.6017 29.3191 34.1332 29.3191Z" fill="#3AA3E5"/>
<path fill-rule="evenodd" clip-rule="evenodd" d="M45.2053 45.7514V22.868L49.7404 22.138V29.8067C50.0481 29.7046 50.4337 29.6093 50.9124 29.5163C51.3887 29.4245 51.8502 29.3774 52.299 29.3774C53.5926 29.3774 54.6773 29.5576 55.5382 29.9135C56.3991 30.2682 57.0901 30.7709 57.6101 31.4195C58.1254 32.0691 58.4893 32.8382 58.7039 33.7289C58.9151 34.6243 59.0242 35.6183 59.0242 36.7145V45.7514H54.4891V37.2619C54.4891 35.8031 54.2985 34.7654 53.9243 34.1571C53.5501 33.5498 52.8545 33.2446 51.841 33.2446C51.4358 33.2446 51.0547 33.2812 50.7023 33.3512C50.3442 33.4224 50.0263 33.4982 49.7404 33.5785V45.7514H45.2053Z" fill="#3AA3E5"/>
<path fill-rule="evenodd" clip-rule="evenodd" d="M69.2461 42.5859C69.6938 42.5859 70.1196 42.5767 70.5248 42.5572C70.9323 42.5365 71.2572 42.5067 71.5005 42.4641V39.0264C71.3168 38.9862 71.0414 38.9449 70.6786 38.9047C70.3125 38.8645 69.9773 38.8439 69.6731 38.8439C69.2461 38.8439 68.8478 38.8703 68.469 38.9208C68.0949 38.9713 67.7677 39.0677 67.4808 39.2112C67.1995 39.3512 66.9757 39.544 66.8104 39.7874C66.6486 40.0308 66.5705 40.3361 66.5705 40.6988C66.5705 41.4116 66.8081 41.9029 67.2833 42.1761C67.7608 42.4493 68.4139 42.5859 69.2461 42.5859ZM68.8823 29.3191C70.2207 29.3191 71.3364 29.4729 72.2306 29.7748C73.1224 30.079 73.8386 30.5163 74.3758 31.0833C74.9131 31.6538 75.2919 32.3425 75.5168 33.1529C75.7394 33.9656 75.8496 34.8678 75.8496 35.8618V45.2947C75.2012 45.4371 74.2966 45.6046 73.1408 45.7964C71.9837 45.9892 70.5857 46.0868 68.9442 46.0868C67.9078 46.0868 66.97 45.9961 66.1275 45.8124C65.2861 45.6311 64.5583 45.3303 63.9523 44.9136C63.3416 44.5004 62.8779 43.9564 62.5508 43.2872C62.2294 42.6157 62.0641 41.7973 62.0641 40.8227C62.0641 39.8896 62.2523 39.0976 62.6265 38.4479C63.0053 37.7982 63.5058 37.2817 64.1348 36.8971C64.7615 36.5103 65.4835 36.2325 66.2927 36.0604C67.1054 35.887 67.9479 35.8033 68.8214 35.8033C69.4103 35.8033 69.9302 35.8251 70.3905 35.879C70.8451 35.9295 71.2135 35.9938 71.5005 36.0753V35.6483C71.5005 34.8792 71.2663 34.2583 70.798 33.7934C70.332 33.3274 69.5239 33.0921 68.3634 33.0921C67.5932 33.0921 66.8322 33.1483 66.0804 33.2608C65.332 33.371 64.6823 33.5282 64.1348 33.7291L63.5551 30.079C63.8191 29.9986 64.1486 29.9137 64.5457 29.8207C64.9406 29.7312 65.371 29.6485 65.837 29.5785C66.3019 29.5062 66.7955 29.4465 67.312 29.396C67.8331 29.3432 68.3554 29.3191 68.8823 29.3191Z" fill="#3AA3E5"/>
<path fill-rule="evenodd" clip-rule="evenodd" d="M84.5559 42.4974C85.3846 42.4974 85.9712 42.4159 86.3167 42.2505C86.6645 42.0898 86.8355 41.7765 86.8355 41.3093C86.8355 40.9444 86.6128 40.6241 86.164 40.3497C85.721 40.0777 85.0391 39.7678 84.1289 39.4211C83.4207 39.1583 82.7699 38.8862 82.1936 38.5993C81.6174 38.3169 81.125 37.976 80.7164 37.58C80.3123 37.1851 79.999 36.7145 79.7751 36.1659C79.5513 35.6183 79.4434 34.9583 79.4434 34.1881C79.4434 32.6867 79.999 31.4999 81.1135 30.6287C82.2315 29.754 83.7639 29.3201 85.7118 29.3201C86.6828 29.3201 87.6195 29.4051 88.5091 29.5784C89.4021 29.7506 90.1126 29.9388 90.6395 30.1408L89.8497 33.6727C89.3206 33.4879 88.7467 33.3273 88.128 33.1849C87.5093 33.0426 86.8148 32.9714 86.0458 32.9714C84.6248 32.9714 83.9131 33.3674 83.9131 34.1571C83.9131 34.3396 83.9475 34.5026 84.0061 34.6438C84.0658 34.7873 84.1874 34.9227 84.3711 35.0559C84.5559 35.1867 84.8015 35.3302 85.1149 35.484C85.4328 35.6356 85.8323 35.8054 86.3167 35.9891C87.3119 36.3576 88.1349 36.7237 88.7834 37.0773C89.4308 37.4377 89.9462 37.8233 90.3203 38.2366C90.698 38.6509 90.9597 39.1124 91.1123 39.6197C91.2627 40.1248 91.3408 40.7113 91.3408 41.3793C91.3408 42.9565 90.7451 44.1537 89.5605 44.9617C88.3725 45.7721 86.6909 46.1785 84.5238 46.1785C83.1016 46.1785 81.9205 46.0568 80.9781 45.8123C80.0334 45.569 79.3803 45.3658 79.0153 45.204L79.7751 41.5205C80.5465 41.8259 81.3385 42.0658 82.1489 42.2368C82.9604 42.4112 83.7639 42.4974 84.5559 42.4974Z" fill="#3AA3E5"/>
<path fill-rule="evenodd" clip-rule="evenodd" d="M105.063 37.7188C105.063 36.3172 104.783 35.2176 104.229 34.4164C103.668 33.6152 102.875 33.2135 101.839 33.2135C100.803 33.2135 100.001 33.6152 99.4341 34.4164C98.8647 35.2176 98.5824 36.3172 98.5824 37.7188C98.5824 39.1191 98.8647 40.2302 99.4341 41.0487C100.001 41.8705 100.803 42.2837 101.839 42.2837C102.875 42.2837 103.668 41.8705 104.229 41.0487C104.783 40.2302 105.063 39.1191 105.063 37.7188ZM109.688 37.7188C109.688 38.9768 109.506 40.127 109.139 41.1726C108.777 42.2172 108.248 43.109 107.558 43.8505C106.867 44.5897 106.043 45.1625 105.081 45.5689C104.115 45.974 103.034 46.1784 101.839 46.1784C100.662 46.1784 99.5924 45.974 98.6271 45.5689C97.6629 45.1625 96.8376 44.5897 96.1466 43.8505C95.4568 43.109 94.9207 42.2172 94.5328 41.1726C94.1471 40.127 93.9565 38.9768 93.9565 37.7188C93.9565 36.4596 94.1563 35.314 94.5534 34.2798C94.9471 33.2445 95.4923 32.3618 96.1937 31.6306C96.8939 30.9006 97.7249 30.3324 98.6868 29.9272C99.6533 29.5232 100.702 29.32 101.839 29.32C102.991 29.32 104.054 29.5232 105.018 29.9272C105.982 30.3324 106.809 30.9006 107.498 31.6306C108.189 32.3618 108.726 33.2445 109.111 34.2798C109.497 35.314 109.688 36.4596 109.688 37.7188Z" fill="#3AA3E5"/>
</g>
<defs>
<clipPath id="clip0_1187:30255">
<rect width="100" height="24.2424" fill="white" transform="translate(10 22)"/>
</clipPath>
</defs>
</svg>
