<svg width="120" height="68" viewBox="0 0 120 68" fill="none" xmlns="http://www.w3.org/2000/svg">
<path d="M64.3481 7.78269C65.4803 7.11364 66.6383 6.50177 67.9077 6.13293C73.6232 4.48033 78.7012 5.63544 83.1243 9.62401C83.1501 9.64688 83.1672 9.67832 83.2015 9.72407C82.3924 10.6647 81.5918 11.6111 80.7741 12.5461C77.0257 16.8377 73.2944 21.1408 69.5203 25.4067C67.6218 27.5511 65.6375 29.6211 63.7133 31.7427C62.338 33.2609 60.614 34.1644 58.6669 34.6676C53.7433 35.94 49.1458 35.268 44.9513 32.3002C44.5425 32.0114 44.1736 31.6712 43.7848 31.3538C44.1965 30.8992 44.6168 30.4503 45.02 29.9871C46.2666 28.5661 47.5075 27.1422 48.7483 25.7184C49.3373 25.0407 49.9235 24.3602 50.5125 23.6826C51.1215 22.9821 51.739 22.2873 52.3452 21.5811C52.7197 21.1437 53.08 20.6919 53.446 20.2487C53.5604 20.1344 53.6776 20.0171 53.7919 19.9028C54.3295 19.3024 54.8756 18.7048 55.4074 18.1015C56.1365 17.2723 56.8598 16.4403 57.5804 15.6054C58.3066 14.7648 59.0243 13.9156 59.7534 13.075C60.3423 12.3974 60.9428 11.7312 61.5375 11.0593C62.2666 10.233 63.0014 9.41242 63.7247 8.5804C63.9478 8.32879 64.1422 8.05145 64.3481 7.78269Z" fill="#E42E2D"/>
<path d="M99.9736 39.2738C99.9736 39.4025 99.9736 39.5025 99.9736 39.6055C99.9736 43.5826 100.008 47.5569 99.9622 51.534C99.9308 54.2788 98.8328 56.5404 96.3739 57.8871C93.7864 59.3052 91.1159 59.2881 88.6141 57.6498C86.7328 56.4146 85.6863 54.6076 85.4776 52.3231C85.2374 49.687 86.0666 47.4654 88.0623 45.7527C89.4061 44.5976 91.0673 44.2059 92.8257 44.2917C93.4833 44.3231 94.1466 44.4032 94.7871 44.5547C95.9822 44.8378 96.9286 45.5468 97.7378 46.4504C97.8321 46.5561 97.9322 46.6619 98.0723 46.8163C98.0723 44.2659 98.0723 41.7813 98.0723 39.2738C98.707 39.2738 99.3189 39.2738 99.9736 39.2738ZM98.2067 51.5397C98.1666 51.1766 98.1438 50.8135 98.0866 50.4532C97.4776 46.6934 93.7292 45.2495 90.9272 46.2588C88.4454 47.1509 87.0101 49.5125 87.3732 52.1487C87.6477 54.1416 88.5798 55.7341 90.4497 56.5862C93.8864 58.1559 98.1381 55.8399 98.2067 51.5397Z" fill="#6A6A6A"/>
<path d="M22.8928 56.4689C22.8928 56.5919 22.8928 56.7148 22.8928 56.8378C22.9042 58.9736 22.9214 61.1094 22.9185 63.2452C22.9185 63.8771 22.7698 63.9972 22.138 64C22.035 64 21.9321 63.9972 21.8292 63.9972C21.569 63.9972 21.3059 63.9972 21 63.9972C21 63.8399 21 63.7084 21 63.574C21 59.4053 21 55.2338 21 51.0651C21 48.0715 23.1158 45.3238 26.0179 44.6005C27.5418 44.2202 29.0743 44.0858 30.5983 44.6491C33.5775 45.7441 35.7076 48.8806 35.5275 52.0429C35.3016 56.0429 31.7048 59.2509 27.7934 58.9364C26.0893 58.7992 24.6912 58.0929 23.4961 56.915C23.3274 56.7491 23.1472 56.5947 22.9757 56.4346C22.95 56.4461 22.9214 56.4575 22.8928 56.4689ZM22.7555 51.634C22.5468 54.8992 25.3431 57.2066 28.1937 57.2123C31.1472 57.218 33.629 54.599 33.6004 51.4997C33.5747 48.5661 31.0558 46.0729 28.1394 46.0615C25.4346 46.0501 22.5297 48.4032 22.7555 51.634Z" fill="#E42F2E"/>
<path d="M41.4346 28.7577C40.9371 27.9085 40.4367 27.0593 39.9392 26.2101C40.0307 26.1501 40.1393 26.1015 40.2137 26.0243C40.5053 25.7212 40.7884 25.4096 41.0743 25.1008C41.6862 24.4432 42.298 23.7827 42.9128 23.1279C43.8992 22.07 44.8884 21.0179 45.8749 19.96C46.4896 19.3023 47.0986 18.6419 47.7133 17.9871C48.6997 16.9292 49.689 15.877 50.6754 14.8191C51.2902 14.1615 51.8992 13.5011 52.5139 12.8463C53.8263 11.4396 55.1386 10.0329 56.4567 8.63187C57.3059 7.72837 58.1694 6.83344 59.0185 5.92708C59.2787 5.64687 59.5075 5.33808 59.7505 5.04358C60.5997 5.46388 61.4488 5.88705 62.298 6.30735C61.6547 7.01357 61.0142 7.71978 60.3681 8.42314C59.7676 9.07503 59.1615 9.72407 58.5554 10.3731C57.5604 11.4367 56.5625 12.5003 55.5704 13.5668C54.9642 14.2158 54.3609 14.8677 53.7548 15.5168C52.4424 16.9235 51.1272 18.3274 49.812 19.7341C49.2058 20.3831 48.6025 21.035 47.9964 21.684C46.6754 23.0993 45.3545 24.5118 44.0307 25.9242C43.213 26.7963 42.3867 27.6597 41.5661 28.5318C41.5032 28.589 41.4774 28.6805 41.4346 28.7577Z" fill="#C43031"/>
<path d="M38.501 20.1086C38.3981 17.7669 38.8098 15.5111 39.7819 13.3867C42.0778 8.36881 45.9549 5.31234 51.3702 4.23156C52.0907 4.0886 52.8398 4.07716 53.5775 4.00568C53.5317 4.08287 53.4974 4.16866 53.4402 4.23156C52.8798 4.84343 52.3166 5.45242 51.7505 6.06143C50.7726 7.11075 49.7919 8.15723 48.8141 9.20369C47.8734 10.2101 46.9356 11.2194 45.9978 12.2258C45.0199 13.2752 44.0421 14.3245 43.0585 15.3681C42.2008 16.2802 41.3316 17.1808 40.4738 18.0957C40.0707 18.5275 39.6933 18.985 39.2844 19.411C39.0414 19.6626 38.7612 19.877 38.501 20.1086Z" fill="#E02F2E"/>
<path d="M59.7476 5.04077C59.5046 5.33527 59.2759 5.64691 59.0157 5.92425C58.1694 6.83061 57.3059 7.72269 56.4539 8.62905C55.1358 10.03 53.8263 11.4368 52.511 12.8435C51.8963 13.5011 51.2873 14.1616 50.6726 14.8163C49.6862 15.8742 48.6969 16.9264 47.7105 17.9843C47.0958 18.6419 46.4868 19.3024 45.872 19.9571C44.8856 21.015 43.8963 22.0672 42.9099 23.1251C42.2952 23.7827 41.6833 24.4403 41.0714 25.0979C40.7855 25.4067 40.5025 25.7184 40.2108 26.0215C40.1365 26.0987 40.0278 26.1473 39.9364 26.2073C39.6476 25.4439 39.3588 24.6805 39.0729 23.9171C39.2416 23.7341 39.4103 23.5511 39.579 23.3681C40.5425 22.336 41.506 21.3038 42.4696 20.2716C43.4246 19.2481 44.3824 18.2245 45.3373 17.198C46.3009 16.1659 47.2644 15.1337 48.228 14.1015C49.183 13.0779 50.1408 12.0544 51.0957 11.0279C52.0593 9.99574 53.02 8.96071 53.9892 7.93141C54.8499 7.01933 55.7219 6.11868 56.574 5.19803C56.8141 4.93784 56.9971 4.62619 57.2058 4.34027C57.8291 4.48609 58.4553 4.62333 59.0729 4.78344C59.3073 4.84634 59.5246 4.955 59.7476 5.04077Z" fill="#CE2F30"/>
<path d="M65.0143 44.8606C65.5947 44.8606 66.1408 44.8606 66.6898 44.8606C66.9614 44.8606 67.0443 45.0779 67.1329 45.2752C67.8477 46.8649 68.5597 48.4575 69.2716 50.05C70.0264 51.737 70.7813 53.421 71.5361 55.1079C71.5733 55.188 71.6133 55.2652 71.6905 55.4253C71.802 55.2623 71.8992 55.1594 71.9507 55.0365C73.3631 51.7227 74.7698 48.4089 76.1708 45.0894C76.2452 44.9121 76.3309 44.8492 76.5225 44.8578C76.9228 44.8721 77.3231 44.8606 77.7234 44.8635C78.1751 44.8635 78.258 44.9836 78.0779 45.401C77.5118 46.7077 76.94 48.0143 76.3738 49.321C74.3238 54.0358 72.2709 58.7505 70.2294 63.4682C70.1008 63.7656 69.9435 63.8771 69.6233 63.8513C69.2487 63.8228 68.8685 63.8456 68.4911 63.8428C68.0965 63.8399 68.0393 63.7598 68.1966 63.3967C68.7198 62.1959 69.2516 60.9979 69.7806 59.797C70.0522 59.1823 70.2952 58.5533 70.5983 57.9528C70.7984 57.5611 70.747 57.238 70.5668 56.8578C69.2259 54.0615 67.8964 51.2623 66.5811 48.4546C66.0722 47.371 65.6119 46.2645 65.1315 45.1694C65.0943 45.0779 65.0629 44.9836 65.0143 44.8606Z" fill="#E42F2E"/>
<path d="M63.7477 44.8034C63.4304 45.544 63.133 46.2559 62.8214 46.9621C61.143 50.7677 59.459 54.5733 57.7721 58.376C57.7092 58.519 57.5748 58.6991 57.4404 58.7334C57.1859 58.802 56.9858 58.6476 56.8714 58.4017C56.4568 57.5011 56.0337 56.6033 55.6248 55.6998C54.0608 52.2316 52.4997 48.7577 50.9386 45.2866C50.8843 45.1637 50.8357 45.0379 50.7699 44.8835C51.4018 44.8835 52.0108 44.8835 52.657 44.8835C53.4061 46.5247 54.1638 48.1916 54.9243 49.8556C55.6763 51.4997 56.4139 53.1551 57.2345 54.7649C57.2746 54.7563 57.3174 54.7477 57.3575 54.7391C57.6234 54.153 57.8921 53.564 58.158 52.9779C59.2989 50.4532 60.4425 47.9314 61.569 45.401C61.7606 44.9693 62.0151 44.7491 62.5069 44.7949C62.9072 44.832 63.3046 44.8034 63.7477 44.8034Z" fill="#E42F2E"/>
<path d="M57.2116 4.34595C57.0029 4.63473 56.8199 4.94638 56.5797 5.20371C55.7277 6.12436 54.8528 7.02215 53.995 7.93709C53.0258 8.96639 52.0651 10.0014 51.1015 11.0336C50.1466 12.0572 49.1887 13.0808 48.2338 14.1072C47.2702 15.1394 46.3067 16.1715 45.3431 17.2037C44.3882 18.2273 43.4303 19.2509 42.4754 20.2773C41.5118 21.3095 40.5483 22.3417 39.5847 23.3738C39.416 23.5568 39.2473 23.7398 39.0787 23.9228C38.9471 23.2909 38.8156 22.6619 38.6841 22.03C38.7756 21.9957 38.8928 21.9843 38.95 21.9214C40.2938 20.4803 41.629 19.0336 42.9671 17.5897C43.5876 16.9206 44.208 16.2545 44.8313 15.5911C46.1466 14.1844 47.4618 12.7806 48.7741 11.3738C49.3803 10.7248 49.9807 10.07 50.5897 9.42387C51.6734 8.26875 52.757 7.11651 53.8435 5.96426C54.2895 5.49249 54.7441 5.02644 55.1816 4.54896C55.3074 4.41172 55.3932 4.2316 55.4961 4.07434C56.0679 4.16012 56.6398 4.2516 57.2116 4.34595Z" fill="#D52F2F"/>
<path d="M41.4346 28.7577C41.4775 28.6805 41.5032 28.589 41.5632 28.5261C42.3838 27.654 43.2101 26.7906 44.0279 25.9185C45.3517 24.5089 46.6726 23.0936 47.9935 21.6783C48.5997 21.0293 49.203 20.3774 49.8091 19.7284C51.1215 18.3217 52.4367 16.9178 53.7519 15.5111C54.3581 14.862 54.9614 14.2101 55.5675 13.5611C56.5625 12.4975 57.5604 11.4339 58.5525 10.3674C59.1587 9.71835 59.7648 9.06933 60.3652 8.41744C61.0114 7.71408 61.6519 7.00785 62.2952 6.30164C62.6411 6.53609 62.9871 6.76769 63.3302 7.00214C63.2359 7.0822 63.1301 7.15653 63.0471 7.24516C62.4553 7.87704 61.8692 8.51465 61.2802 9.14653C60.308 10.1873 59.3359 11.228 58.3638 12.2688C57.4145 13.2838 56.4682 14.3016 55.5189 15.3167C54.5382 16.366 53.5575 17.4124 52.5797 18.4618C51.639 19.4682 50.7012 20.4775 49.7605 21.4868C48.7884 22.5275 47.8191 23.5711 46.8441 24.6061C45.9835 25.5182 45.1143 26.4217 44.2566 27.3367C43.8506 27.7684 43.476 28.2259 43.0672 28.6519C42.7526 28.9807 42.4067 29.2752 42.075 29.5868C41.8606 29.3124 41.6462 29.035 41.4346 28.7577Z" fill="#B12828"/>
<path d="M55.496 4.06862C55.3931 4.22873 55.3073 4.40599 55.1815 4.54323C54.7441 5.02358 54.2866 5.48677 53.8434 5.95853C52.7569 7.11079 51.6733 8.26305 50.5897 9.41816C49.9835 10.0672 49.3802 10.7191 48.7741 11.3681C47.4589 12.7748 46.1437 14.1787 44.8313 15.5854C44.208 16.2516 43.5875 16.9178 42.9671 17.584C41.629 19.0279 40.2909 20.4746 38.9499 21.9156C38.8899 21.9785 38.7727 21.99 38.684 22.0243C38.624 21.3838 38.5639 20.7434 38.5039 20.1029C38.7641 19.8713 39.0443 19.6569 39.2845 19.4053C39.6933 18.9793 40.0707 18.5218 40.4739 18.0901C41.3316 17.178 42.2008 16.2745 43.0586 15.3624C44.0421 14.3188 45.0171 13.2695 45.9978 12.2202C46.9385 11.2137 47.8763 10.2044 48.8141 9.198C49.792 8.14868 50.7727 7.10508 51.7505 6.05575C52.3166 5.44961 52.8799 4.83774 53.4403 4.22587C53.4975 4.16297 53.5318 4.07434 53.5775 4C54.2151 4.02859 54.8556 4.0486 55.496 4.06862Z" fill="#DA2F2F"/>
<path d="M39.9364 58.7105C39.316 58.7105 38.7355 58.7105 38.0894 58.7105C38.0894 58.2959 38.0922 57.8899 38.0894 57.481C38.0665 55.3338 37.9836 53.1865 38.0379 51.0421C38.0951 48.7062 38.9185 46.6876 40.9343 45.3266C41.9979 44.609 43.1987 44.4632 44.4482 44.7262C44.9829 44.8377 45.0629 45.0321 44.8142 45.5153C44.7999 45.5468 44.7799 45.5754 44.7684 45.6068C44.5197 46.2845 44.1623 46.6533 43.316 46.6133C42.3639 46.5675 41.6319 47.1679 41.1058 47.9657C40.4882 48.9006 40.1966 49.9442 40.0679 51.0479C39.8134 53.2552 39.9193 55.471 39.9393 57.684C39.9393 58.0157 39.9364 58.3445 39.9364 58.7105Z" fill="#E42F2E"/>
<path d="M42.0721 29.5897C42.4038 29.2781 42.7498 28.9807 43.0643 28.6547C43.4732 28.2287 43.8506 27.7713 44.2537 27.3395C45.1115 26.4246 45.9835 25.5239 46.8413 24.609C47.8162 23.5711 48.7855 22.5304 49.7576 21.4896C50.6983 20.4832 51.6361 19.4739 52.5768 18.4646C53.5575 17.4153 54.5382 16.3688 55.516 15.3195C56.4653 14.3045 57.4117 13.2866 58.3609 12.2716C59.3331 11.2309 60.3052 10.1901 61.2773 9.14939C61.8663 8.51751 62.4553 7.87991 63.0443 7.24803C63.1301 7.15653 63.233 7.08506 63.3273 7.005C63.5303 7.1594 63.7333 7.31666 63.9363 7.47105C63.8277 7.61687 63.7333 7.77412 63.6133 7.9085C62.6783 8.91779 61.7376 9.92423 60.7998 10.9307C59.822 11.98 58.8413 13.0264 57.8634 14.0729C56.9227 15.0793 55.9849 16.0886 55.0471 17.0951C53.7433 18.4932 52.4367 19.8885 51.13 21.2866C50.5153 21.9442 49.9063 22.6019 49.2916 23.2595C47.9792 24.6662 46.6669 26.0729 45.3516 27.4739C44.5253 28.3545 43.6904 29.2266 42.8641 30.1044C42.807 30.1673 42.7784 30.2587 42.7383 30.3359C42.5153 30.0872 42.2952 29.8385 42.0721 29.5897Z" fill="#A2201F"/>
<path d="M48.491 58.802C47.8419 58.802 47.2415 58.802 46.6154 58.802C46.6154 54.1586 46.6154 49.5325 46.6154 44.8634C47.1357 44.8634 47.6561 44.8463 48.1765 44.8777C48.2851 44.8834 48.3966 45.0579 48.4796 45.1751C48.5167 45.2294 48.491 45.3295 48.491 45.4096C48.491 49.7612 48.491 54.11 48.491 58.4617C48.491 58.5647 48.491 58.6676 48.491 58.802Z" fill="#E53231"/>
<path d="M80.9257 44.8606C81.4403 44.8606 81.9435 44.8578 82.4439 44.8635C82.6812 44.8664 82.7956 44.9979 82.7899 45.2352C82.787 45.3152 82.7899 45.3953 82.7899 45.4754C82.7899 49.7784 82.7899 54.0815 82.7899 58.3874C82.7899 58.5218 82.7899 58.6562 82.7899 58.8049C82.1551 58.8049 81.5547 58.8049 80.9257 58.8049C80.9257 54.1644 80.9257 49.5383 80.9257 44.8606Z" fill="#6B6B6B"/>
<path d="M42.7356 30.336C42.7785 30.2588 42.8042 30.1644 42.8614 30.1044C43.6877 29.2266 44.5226 28.3545 45.3489 27.4739C46.6641 26.0729 47.9765 24.6662 49.2888 23.2595C49.9036 22.6019 50.5126 21.9443 51.1273 21.2866C52.4311 19.8885 53.7377 18.4932 55.0444 17.0951C55.9851 16.0886 56.9229 15.0794 57.8607 14.0729C58.8385 13.0236 59.8192 11.9771 60.7971 10.9307C61.7377 9.92424 62.6756 8.91781 63.6105 7.90852C63.7335 7.77699 63.8278 7.61689 63.9336 7.47107C64.0708 7.574 64.2052 7.67978 64.3425 7.78271C64.1366 8.05147 63.9422 8.32881 63.7192 8.58328C62.9958 9.4153 62.261 10.2359 61.5319 11.0622C61.1573 11.0708 61.0573 11.4139 60.8571 11.6283C59.8421 12.7062 58.83 13.787 57.8207 14.8678C56.8628 15.8914 55.9107 16.915 54.9529 17.9385C53.9893 18.9707 53.0258 20.0029 52.0623 21.035C51.1073 22.0586 50.1523 23.0822 49.1945 24.1058C48.2224 25.1466 47.2531 26.1901 46.2781 27.2252C45.4204 28.1373 44.5512 29.0407 43.6906 29.9528C43.4733 30.1844 43.2788 30.436 43.073 30.6791C42.9643 30.5676 42.85 30.4503 42.7356 30.336Z" fill="#971A18"/>
<path d="M43.0786 30.6819C43.2845 30.4389 43.4789 30.1873 43.6962 29.9557C44.5539 29.0436 45.4231 28.1401 46.2837 27.228C47.2587 26.1902 48.228 25.1494 49.2001 24.1087C50.1551 23.0851 51.1101 22.0615 52.0679 21.0379C53.0314 20.0057 53.995 18.9736 54.9585 17.9414C55.9135 16.9178 56.8685 15.8914 57.8263 14.8706C58.8384 13.7899 59.8477 12.7091 60.8627 11.6312C61.0658 11.4168 61.163 11.0736 61.5375 11.0651C60.9428 11.737 60.3424 12.4032 59.7534 13.0808C59.0243 13.9185 58.3066 14.7677 57.5804 15.6112C56.8599 16.4461 56.1365 17.2781 55.4074 18.1072C54.8756 18.7134 54.3295 19.3081 53.792 19.9085C53.5518 19.9 53.4317 20.0086 53.446 20.2545C53.3116 20.3345 53.1544 20.3889 53.0515 20.4975C52.594 20.9722 52.1537 21.4668 51.7048 21.95C51.1101 22.5933 50.5125 23.2366 49.9149 23.8771C48.5854 25.3009 47.2559 26.722 45.9235 28.143C45.1115 29.0065 44.2938 29.8642 43.4818 30.7277C43.4246 30.7906 43.396 30.8821 43.3559 30.9593C43.2616 30.8621 43.1701 30.7734 43.0786 30.6819Z" fill="#911613"/>
<path d="M47.5046 42.0615C46.7097 42.0615 46.0979 41.4439 46.1007 40.649C46.1036 39.857 46.7269 39.2423 47.5189 39.2509C48.2908 39.2595 48.9084 39.8799 48.9141 40.6462C48.917 41.4324 48.2908 42.0615 47.5046 42.0615Z" fill="#E4302F"/>
<path d="M83.2131 40.6862C83.2016 41.4753 82.5726 42.0758 81.772 42.0586C81.0086 42.0414 80.391 41.4038 80.3996 40.6404C80.4082 39.8599 81.0515 39.2366 81.8349 39.248C82.6269 39.2595 83.2245 39.8856 83.2131 40.6862Z" fill="#6A6A6A"/>
<path d="M43.3531 30.9535C43.396 30.8763 43.4218 30.7819 43.479 30.7219C44.291 29.8584 45.1087 29.0007 45.9207 28.1372C47.2531 26.7162 48.5826 25.2952 49.9121 23.8713C50.5097 23.2308 51.1073 22.5875 51.702 21.9442C52.1509 21.461 52.5912 20.9664 53.0487 20.4917C53.1516 20.3831 53.3117 20.3288 53.4432 20.2487C53.0772 20.6948 52.717 21.1436 52.3424 21.5811C51.7363 22.2873 51.1216 22.9821 50.5097 23.6826C49.9207 24.3602 49.3346 25.0407 48.7456 25.7183C47.5047 27.1422 46.2638 28.5661 45.0172 29.9871C44.6112 30.4474 44.1937 30.8992 43.782 31.3538C43.6391 31.2223 43.4961 31.0879 43.3531 30.9535Z" fill="#8B130F"/>
<path d="M53.446 20.2516C53.4317 20.0057 53.5517 19.897 53.7919 19.9056C53.6747 20.0228 53.5603 20.1372 53.446 20.2516Z" fill="#8B130F"/>
</svg>
