<svg width="120" height="68" viewBox="0 0 120 68" fill="none" xmlns="http://www.w3.org/2000/svg">
<path d="M19.1744 43.8465C19.0077 43.4589 18.7287 43.0807 18.6969 42.6838C18.6389 41.9573 18.7269 41.2178 18.7531 40.4838C19.0358 40.5812 19.326 40.6617 19.6012 40.7778C20.0787 40.9781 20.5486 41.2009 21.0223 41.4144C21.0336 41.7776 21.0036 42.1483 21.0654 42.5022C21.1852 43.1837 20.9268 43.6125 20.2977 43.8484C19.9233 43.8465 19.5488 43.8465 19.1744 43.8465Z" fill="#1F7653"/>
<path d="M18.8074 26.0595C18.7886 25.3481 18.5583 24.5973 19.1743 24C19.6106 24 20.0487 24 20.4849 24C20.6722 24.3614 20.9717 24.7096 21.0242 25.0897C21.1066 25.7132 21.0298 26.3591 21.0186 26.9957C20.2809 26.6849 19.5432 26.3722 18.8074 26.0595Z" fill="#5AAB5C"/>
<path d="M13.1829 35.0224C12.1213 34.9681 11.0616 34.9138 10 34.8595C10 34.236 10 33.6106 10 32.9871C10.1123 32.959 10.2247 32.931 10.3389 32.901C10.7002 33.1687 11.0653 33.4346 11.4248 33.7024C12.0109 34.1424 12.5969 34.5824 13.1829 35.0224Z" fill="#268557"/>
<path d="M64.5742 31.9498C63.6024 31.9498 62.7299 31.9723 61.8593 31.9349C61.6234 31.9255 61.3295 31.8001 61.1759 31.6259C59.796 30.0682 56.0627 29.8959 54.5835 31.3451C52.9322 32.9609 53.5744 36.1869 55.7706 37.0406C57.0812 37.5499 58.4592 37.5218 59.7773 37.0088C60.4382 36.7504 61.0336 36.3479 61.2134 35.4548C60.1443 35.4548 59.1351 35.4548 58.081 35.4548C58.081 34.7583 58.081 34.1442 58.081 33.3934C59.1782 33.3934 60.2828 33.3934 61.3894 33.3934C62.4734 33.3934 63.5556 33.3934 64.6734 33.3934C64.6734 35.5334 64.6734 37.5817 64.6734 39.6806C63.9001 39.6806 63.1362 39.6806 62.2562 39.6806C62.2562 39.0852 62.2562 38.4898 62.2562 38.0554C61.0655 38.6508 59.9627 39.4971 58.7382 39.7574C55.7575 40.3902 52.1701 39.4409 50.9438 36.4921C49.4965 33.0058 50.8239 28.2314 56.1713 27.9543C57.9462 27.8626 59.7886 28.0217 61.5204 28.4168C63.1943 28.7987 64.4412 29.9071 64.5742 31.9498Z" fill="#0B0C0C"/>
<path d="M69.9794 35.7526C69.9794 37.0781 69.9794 38.3494 69.9794 39.6769C68.9384 39.6769 67.9555 39.6769 66.9014 39.6769C66.9014 35.8237 66.9014 31.9499 66.9014 27.9675C68.6595 27.9675 70.4251 27.93 72.1888 27.9787C73.8327 28.0237 75.4971 28.0237 77.1129 28.2914C78.8898 28.5854 79.5526 29.3792 79.6836 30.7778C79.8353 32.3843 79.3803 33.0883 77.6634 33.9214C77.6185 33.9439 77.596 34.0132 77.478 34.1854C80.4344 35.0467 79.7473 37.5294 79.8652 39.6938C78.871 39.6938 77.8226 39.6938 76.6467 39.6938C76.6467 39.0572 76.6655 38.4431 76.643 37.8308C76.5906 36.4041 76.0944 35.8293 74.6789 35.7675C73.1324 35.7001 71.584 35.7526 69.9794 35.7526ZM70.0281 33.019C71.8798 33.019 73.6417 33.0583 75.4017 33.0003C76.1506 32.9759 76.4501 32.3749 76.4033 31.6822C76.3565 31.0063 75.9203 30.5737 75.2519 30.5588C73.5237 30.5194 71.7937 30.5457 70.0281 30.5457C70.0281 31.4275 70.0281 32.2232 70.0281 33.019Z" fill="#090A0A"/>
<path d="M88.5885 40.0027C86.5402 39.984 84.5705 39.6863 83.0165 38.2577C81.0993 36.4959 80.7922 34.2454 81.4887 31.8432C82.2021 29.383 84.1081 28.239 86.4653 27.9862C88.1373 27.8065 89.8991 27.8346 91.5449 28.1603C94.5668 28.7557 96.0852 30.9089 96.0272 34.0076C95.971 37.0051 94.2204 39.1283 91.2678 39.7031C90.3878 39.8716 89.4816 39.9053 88.5885 40.0027ZM88.6091 37.2766C88.9517 37.2766 89.2981 37.3141 89.6333 37.271C91.4662 37.037 92.6196 35.9042 92.7413 34.2435C92.8798 32.3487 92.0691 31.0474 90.384 30.6318C89.6707 30.4558 88.9049 30.3678 88.1728 30.4127C85.2633 30.5869 83.816 32.5753 84.6866 35.1178C85.1809 36.5595 86.5177 37.3085 88.6091 37.2766Z" fill="#0B0C0C"/>
<path d="M97.3302 36.0164C98.4498 36.0164 99.5657 36.0164 100.715 36.0164C101.028 37.2653 101.979 37.6322 103.108 37.6528C103.881 37.6659 104.664 37.6098 105.426 37.4881C106.132 37.3757 106.63 36.9638 106.602 36.1587C106.574 35.3593 106.008 35.1121 105.347 35.0466C103.863 34.9024 102.369 34.8481 100.889 34.6571C98.7064 34.3744 97.4706 33.1649 97.4369 31.4031C97.4088 30.0232 98.023 28.9354 99.3392 28.4991C102.165 27.5611 105.037 27.5873 107.862 28.5104C109.107 28.9166 109.601 29.7798 109.74 31.3375C108.712 31.3375 107.69 31.3413 106.667 31.3338C106.549 31.3338 106.355 31.3057 106.327 31.2364C105.791 29.9052 104.557 30.1673 103.529 30.0494C102.955 29.9839 102.316 30.0307 101.777 30.2254C101.393 30.3639 100.961 30.7833 100.848 31.1653C100.657 31.8094 101.213 32.1183 101.762 32.21C102.496 32.3317 103.245 32.3448 103.986 32.4254C105.158 32.5527 106.349 32.607 107.495 32.8597C109.03 33.1967 109.862 34.1816 109.978 35.5203C110.129 37.2597 109.51 38.6246 108.027 39.2031C105.166 40.319 102.236 40.3003 99.371 39.2087C98.0042 38.6882 97.45 37.6528 97.3302 36.0164Z" fill="#0A0B0B"/>
<path d="M35.4466 39.7349C36.3696 37.638 37.2496 35.629 38.1352 33.6256C38.8617 31.9817 39.62 30.3509 40.3165 28.6939C40.5374 28.1697 40.7771 27.9188 41.3912 27.9487C42.5408 28.0068 43.6979 27.9656 44.9167 27.9656C46.716 31.8506 48.5191 35.745 50.3558 39.7087C49.1706 39.7087 48.1165 39.7087 47.0811 39.7087C47.025 39.6469 46.9613 39.6114 46.9501 39.5627C46.5625 37.8832 45.5926 37.2167 43.8252 37.4844C42.6363 37.6642 41.3968 37.4882 40.1817 37.5406C39.8877 37.5537 39.399 37.799 39.3541 38.0124C39.0077 39.6582 37.9199 39.9521 36.4839 39.7424C36.1824 39.6975 35.8697 39.7349 35.4466 39.7349ZM42.7336 30.1936C41.9753 31.9649 41.3032 33.532 40.5992 35.1777C42.0952 35.1777 43.4432 35.1777 44.9486 35.1777C44.209 33.5151 43.5144 31.9517 42.7336 30.1936Z" fill="#0B0C0C"/>
<path d="M13.3085 28.8887C13.0782 28.6808 12.7655 28.5123 12.6438 28.2539C12.5333 28.018 12.552 27.6529 12.655 27.402C12.7524 27.1624 13.0501 27.0126 13.2261 26.7973C13.6417 26.288 13.9919 26.3273 14.4449 26.7973C15.5889 27.9899 16.7741 29.1414 17.9499 30.3041C18.1315 30.4839 18.3487 30.6262 18.6913 30.8977C18.7363 30.1469 18.7681 29.602 18.7999 29.0572C19.5395 29.3698 20.2809 29.6825 21.0205 29.9952C21.1235 30.2966 20.8464 30.9126 21.5897 30.6805C22.1046 31.156 22.6213 31.6335 23.1362 32.109C23.0707 32.2888 23.0052 32.4685 22.8835 32.7999C23.6698 32.7999 24.3251 32.7999 24.9804 32.7999C25.2856 33.0789 25.574 33.3785 25.8997 33.6294C26.5176 34.1087 27.1561 34.5599 27.787 35.0224C26.4764 35.0224 25.1658 35.0223 23.8552 35.0242C23.535 34.7172 23.2579 34.3371 22.8853 34.1162C20.5412 32.7213 18.1877 31.3451 15.8117 30.012C15.0179 29.5664 14.1454 29.2594 13.3085 28.8887Z" fill="#3FA25D"/>
<path d="M16.7647 35.2339C16.5063 35.1628 16.2479 35.0935 15.9896 35.0223C15.6151 34.6872 15.2463 34.3446 14.8662 34.0188C14.3738 33.5975 13.8701 33.1893 13.3721 32.7737C14.4824 32.7587 15.5945 32.7437 16.7048 32.7288C16.7741 32.8317 16.8171 32.9722 16.9126 33.0283C19.2567 34.4082 21.6009 35.7862 23.9619 37.1362C24.2053 37.2766 24.5573 37.2279 24.8587 37.2672C25.6132 37.9993 26.3584 38.7426 27.1279 39.4597C27.4762 39.7855 27.4687 40.0214 27.1467 40.3828C25.9971 41.669 26.012 41.6821 24.7819 40.4502C23.7971 39.4616 22.8254 38.4599 21.8124 37.5013C21.6402 37.3384 21.2919 37.3571 21.0261 37.2935C20.6872 37.1661 20.3352 37.0706 20.015 36.9096C18.9235 36.3629 17.8469 35.7937 16.7647 35.2339Z" fill="#2E965C"/>
<path d="M24.8568 37.2671C24.5554 37.2278 24.2052 37.2746 23.96 37.1361C21.599 35.7861 19.2548 34.4081 16.9107 33.0282C16.8152 32.972 16.7703 32.8298 16.7029 32.7286C16.5475 32.4497 16.4408 32.1239 16.2273 31.8973C15.2706 30.8788 14.282 29.8884 13.3065 28.8885C14.1434 29.2593 15.0159 29.5663 15.8117 30.0119C18.1876 31.345 20.5411 32.7212 22.8834 34.1104C23.256 34.3313 23.5312 34.7114 23.8532 35.0185C23.6136 35.0447 23.3758 35.0728 22.8927 35.1271C23.6211 35.9209 24.2389 36.595 24.8568 37.2671Z" fill="#359F5D"/>
<path d="M27.7851 35.0185C27.1541 34.5561 26.5157 34.1049 25.8978 33.6256C25.572 33.3728 25.2837 33.0732 24.9785 32.7961C26.3041 32.7849 27.6316 32.7886 28.9572 32.7587C29.5619 32.7456 29.7042 33.0676 29.6555 33.575C29.6012 34.1404 29.9252 34.9025 28.9853 35.0373C28.5939 35.0934 28.1858 35.0298 27.7851 35.0185Z" fill="#49A55D"/>
<path d="M18.7606 38.6021C18.7287 38.061 18.6969 37.5199 18.6576 36.8309C18.2719 37.1361 17.9948 37.3533 17.7158 37.5723C17.1129 37.1529 16.51 36.7317 15.9072 36.3123C16.1861 36.0164 16.4651 35.7187 16.7441 35.4229C17.611 35.9415 18.461 36.4864 19.3466 36.9676C19.8765 37.254 20.4606 37.4394 21.0223 37.6697C21.0223 38.2932 21.0223 38.9166 21.0204 39.542C20.2678 39.2274 19.5151 38.9148 18.7606 38.6021Z" fill="#288A58"/>
<path d="M21.0186 29.9933C20.279 29.6806 19.5376 29.3679 18.798 29.0553C18.7999 28.0573 18.8037 27.0594 18.8055 26.0596C19.5432 26.3722 20.279 26.6849 21.0167 26.9957C21.0186 27.9955 21.0186 28.9935 21.0186 29.9933Z" fill="#4EA75D"/>
<path d="M18.7605 38.6021C19.515 38.9147 20.2677 39.2274 21.0222 39.5401C21.0222 40.1636 21.0222 40.7889 21.0222 41.4124C20.5485 41.1989 20.0805 40.978 19.6011 40.7758C19.3259 40.6597 19.0357 40.5792 18.753 40.4818C18.7549 39.8565 18.7586 39.2293 18.7605 38.6021Z" fill="#248155"/>
<path d="M22.8685 29.4053C23.3702 28.9073 23.872 28.4074 24.3738 27.9094C24.958 28.3063 25.5403 28.7032 26.1244 29.1002C25.6264 29.6019 25.1283 30.1018 24.6303 30.6036C24.0424 30.203 23.4564 29.8041 22.8685 29.4053Z" fill="#54A95C"/>
<path d="M22.8683 29.4054C23.4543 29.8042 24.0423 30.203 24.6283 30.6018C24.1303 31.1036 23.6322 31.6054 23.1342 32.1071C22.6193 31.6316 22.1025 31.156 21.5876 30.6786C22.0145 30.2554 22.4414 29.8304 22.8683 29.4054Z" fill="#49A65D"/>
<path d="M26.1244 29.1002C25.5402 28.7032 24.9579 28.3063 24.3738 27.9094C24.8606 27.3982 25.3474 26.8871 26.0233 26.1775C26.5681 26.7223 27.0531 27.2054 27.5829 27.7315C26.9782 28.2988 26.5513 28.6995 26.1244 29.1002Z" fill="#5EAC5C"/>
<path d="M21.0222 37.6698C20.4624 37.4395 19.8764 37.2541 19.3465 36.9677C18.4609 36.4865 17.609 35.9417 16.744 35.423C16.7515 35.3594 16.759 35.2976 16.7646 35.2339C17.8468 35.7938 18.9234 36.3629 20.0112 36.9096C20.3314 37.0707 20.6852 37.168 21.0222 37.2935C21.0241 37.4189 21.0241 37.5443 21.0222 37.6698Z" fill="#339160"/>
<path d="M13.372 32.7737C13.87 33.1875 14.3737 33.5975 14.8661 34.0187C15.248 34.3445 15.6169 34.6872 15.9895 35.0223C15.0533 35.0223 14.1172 35.0223 13.181 35.0223C12.595 34.5823 12.0108 34.1423 11.4229 33.7042C11.0616 33.4346 10.6983 33.1687 10.337 32.9029C11.3499 32.8598 12.3609 32.8167 13.372 32.7737Z" fill="#298B58"/>
<path d="M15.9071 39.3998C15.1919 40.027 14.4767 40.6561 13.6285 41.3976C13.2653 41.0512 12.7486 40.5588 12.1213 39.9634C12.8328 39.2949 13.4507 38.7126 14.0704 38.1285C14.6827 38.5535 15.2949 38.9766 15.9071 39.3998Z" fill="#237456"/>
<path d="M15.9072 39.3998C15.2949 38.9767 14.6827 38.5535 14.0704 38.1285C14.4449 37.7578 14.8194 37.3871 15.1938 37.0145C15.8061 37.432 16.4164 37.8476 17.0287 38.2652C16.6542 38.6452 16.2816 39.0216 15.9072 39.3998Z" fill="#287F59"/>
<path d="M17.0287 38.267C16.4165 37.8494 15.8061 37.4338 15.1938 37.0162C15.4316 36.7822 15.6694 36.5463 15.9072 36.3123C16.5101 36.7317 17.113 37.1529 17.7158 37.5723C17.4874 37.8045 17.2571 38.0348 17.0287 38.267Z" fill="#298659"/>
</svg>
