<svg width="120" height="68" viewBox="0 0 120 68" fill="none" xmlns="http://www.w3.org/2000/svg">
<path d="M58.3331 45.7467H62.0062V64H58.3331V45.7467Z" fill="#D02149"/>
<path d="M51.6752 44.304C51.045 43.9599 49.1712 43.0272 46.9989 44.9217L35.304 54.7925L38.2681 57.1431L41.8956 53.9219C43.5994 55.547 44.6607 56.0569 45.1126 56.2974C45.5603 56.5503 46.5594 57.168 48.8437 57.7276L48.085 62.52L51.6627 63.7471L53.6692 48.5782C54.1004 45.7218 52.3053 44.6481 51.6752 44.304ZM46.6921 53.4162C45.7179 52.9021 44.6483 52.0895 44.3747 51.7247L49.1629 47.4547C49.3702 47.2764 49.7018 47.1728 50.0169 47.3469C50.332 47.521 50.4273 47.8527 50.3859 48.1222L49.3661 54.4567C48.91 54.4235 47.6456 53.9592 46.6921 53.4162Z" fill="#D02149"/>
<path d="M66.6079 48.574L68.6144 63.743L72.1921 62.5158L71.4334 57.7235C73.7218 57.1638 74.7209 56.5461 75.1645 56.2932C75.6164 56.0528 76.6776 55.547 78.3815 53.9178L82.009 57.1389L84.9731 54.7884L73.2782 44.9176C71.1059 43.023 69.2321 43.9558 68.6019 44.2999C67.9759 44.6481 66.1809 45.7218 66.6079 48.574ZM70.9193 54.4526L69.8995 48.118C69.8581 47.8485 69.9534 47.5127 70.2685 47.3428C70.5835 47.1687 70.9152 47.2723 71.1225 47.4506L75.9107 51.7206C75.6412 52.0895 74.5675 52.8979 73.5933 53.412C72.6356 53.9592 71.3712 54.4235 70.9193 54.4526Z" fill="#D02149"/>
<path d="M54.3533 28.3225C53.4454 28.0655 52.7655 28.0116 52.2805 27.908C51.7954 27.8043 52.5209 27.4934 52.7655 27.4602C53.006 27.4271 54.8715 26.8384 55.5307 26.3906C56.1857 25.9429 58.3994 24.6992 58.7104 24.2142C59.0213 23.7291 60.0909 24.0069 60.2318 24.0069C60.2318 24.0069 60.3023 24.181 60.0245 24.4546C59.7468 24.7324 59.7468 25.0433 59.6431 25.3874C59.5395 25.7315 59.3322 26.0092 58.9508 26.2497C58.5694 26.4901 57.2594 27.2861 57.4294 28.393C57.6035 29.4999 58.6731 30.8099 59.3281 31.1581C59.9831 31.5022 62.4912 33.4507 62.9223 33.8528C63.511 34.4042 63.8883 35.4406 64.2697 36.5807C64.6511 37.7207 65.8575 38.2721 66.6866 38.2721C67.5157 38.2721 68.8299 38.2389 69.3481 39.0307C69.3481 39.0307 69.2113 39.1675 68.8631 39.1344C68.519 39.1012 67.2048 39.5489 66.8607 39.7231C66.5166 39.8972 65.2356 39.9635 64.166 39.8599C63.0965 39.7562 62.3337 39.7562 61.9191 40.204C61.5045 40.6517 61.1231 40.9626 60.3976 41.0331C59.6722 41.1036 55.456 40.859 54.5937 40.3781C53.5988 39.8225 55.4933 39.7894 55.8043 39.6858C56.1152 39.5821 58.2917 39.238 58.9135 38.9271C59.4151 38.6742 60.8122 36.9579 61.4714 36.7506C62.1264 36.5433 62.0601 35.4738 61.4382 35.1255C60.8164 34.7814 60.5386 35.366 60.0577 34.711C59.5727 34.056 60.0245 33.7782 59.5727 33.1232C59.1249 32.4682 57.5703 31.3613 56.878 30.3953C56.1857 29.4294 55.0788 28.5298 54.3533 28.3225Z" fill="#D02149"/>
<path d="M60.1904 4C44.6235 4 32 16.6194 32 32.1904C32 38.6742 34.193 44.644 37.8744 49.4073L38.7781 48.7191C36.6846 46.012 35.1175 42.8986 34.2345 39.5158C34.2387 39.151 35.0222 39.3127 35.4741 39.4122C35.9384 39.5158 39.1554 40.5522 40.3991 40.3449C41.6428 40.1376 43.3508 39.5655 44.5945 38.9976C45.8382 38.4296 47.4467 38.326 47.9608 38.3757C48.4748 38.4255 47.7037 37.8036 47.2353 37.5964C46.7668 37.3891 45.5273 37.5964 44.2297 37.5964C42.9321 37.5964 46.6134 33.8653 46.9243 33.658C47.2353 33.4507 47.5462 33.2434 47.1316 33.2434C46.7171 33.2434 44.2794 34.5908 43.4503 34.8519C42.6212 35.1131 40.8593 35.0592 39.9265 35.109C38.9937 35.1587 36.7136 36.6636 36.0379 36.9745C35.3621 37.2854 33.8365 37.6917 33.8365 37.6917C33.8365 37.6917 34.1723 33.1895 35.6772 31.067C37.1821 28.9444 39.2507 26.8177 40.0301 27.1783C40.8095 27.539 40.0301 28.2645 40.3949 28.6293C40.7598 28.9941 41.2738 28.9402 41.2738 29.7694C41.2738 30.5985 41.4811 31.0131 40.3949 32.207C39.3088 33.401 38.944 34.2301 39.9804 33.8653C41.0168 33.5005 43.5042 32.7252 44.1758 32.5179C44.8474 32.3106 46.2486 30.8099 47.028 30.3954C47.8074 29.9808 51.3312 26.4072 52.0525 26.0424C52.7739 25.6776 54.0756 24.6951 54.4363 24.1271C54.7969 23.5592 55.68 22.3652 56.4593 21.9507C57.2387 21.5361 59.7261 20.0354 60.1904 19.3057C60.6547 18.5761 61.2807 17.3366 61.5917 17.3905C61.9026 17.4444 62.8353 17.9087 63.2499 18.3771C63.6645 18.8456 63.5608 19.3638 63.822 19.7784C64.0832 20.1929 64.6511 20.8148 65.4305 21.0718C66.2099 21.3288 68.3325 22.9871 67.8682 23.1944C67.4868 23.3643 66.0524 22.3155 65.4305 22.2616C64.8087 22.2077 64.3941 22.2616 64.5516 22.6264C64.7092 22.9912 66.5208 24.5417 66.9354 25.1138C67.35 25.6859 67.35 27.0291 67.7148 28.1194C68.0796 29.2097 68.9087 29.3134 69.0082 31.0214C69.1077 32.7294 70.6167 34.3379 71.2386 34.8561C71.8604 35.3743 72.7393 36.1495 73.2617 36.2034C73.784 36.2573 73.6762 35.8925 74.5054 36.2034C75.3345 36.5143 75.1769 36.2034 74.8163 35.5318C74.4556 34.8602 75.1811 34.6529 75.1811 34.6529C76.9969 34.5493 77.7182 36.5185 77.6685 38.1767C77.6187 39.835 76.4745 39.4204 75.8527 40.7139C75.2308 42.0073 75.8527 41.6467 76.1636 41.3855C76.4745 41.1243 78.651 41.1782 79.7372 41.0746C80.8233 40.9709 81.7602 39.5738 82.1748 39.209C82.5894 38.8442 82.9542 38.8442 83.3149 39.0515C83.6755 39.2588 83.2651 40.3988 83.4724 40.5522C83.6797 40.7056 84.8197 39.8806 85.2343 39.5655C85.6489 39.2505 86.221 39.2546 86.221 39.2546C86.2251 39.2463 86.2293 39.238 86.2293 39.2297C85.3504 42.7453 83.7419 45.983 81.5654 48.7813L82.4691 49.4695C86.1795 44.6979 88.3933 38.7032 88.3933 32.1904C88.3808 16.6235 75.7615 4 60.1904 4ZM82.8381 31.7427C82.1665 31.2245 80.4005 29.1517 79.5216 28.8905C78.6427 28.6293 76.1014 26.9213 75.3262 26.5606C74.551 26.2 73.6182 24.9521 73.4607 24.3303C73.3031 23.7084 71.8521 21.7392 71.0769 21.5859C70.3017 21.4325 66.7737 19.8778 66.2597 19.6706C65.7456 19.4633 63.9298 18.3232 63.1504 17.7014C62.371 17.0795 61.5709 17.0298 61.3098 17.1293C61.0486 17.2329 60.2485 18.6839 59.9375 19.1524C59.6266 19.6208 56.621 21.4822 56.2562 21.59C55.8914 21.6978 54.9089 22.3155 54.3907 22.784C53.7356 23.3726 53.5615 24.1852 52.7324 24.6992C51.953 25.1843 48.4292 27.6012 47.8074 28.0158C47.1855 28.4303 46.1989 29.8316 45.4775 29.7777C44.7562 29.7238 42.2107 28.6376 41.6428 28.0158C41.0748 27.3939 39.9348 26.8218 39.9348 26.8218C38.7616 26.8218 35.0263 30.329 33.4468 31.8671C34.106 18.0662 45.8257 7.07193 60.1946 7.07193C74.211 7.07193 85.7027 17.5356 86.8718 30.8597C85.8188 32.6382 83.489 32.2443 82.8381 31.7427Z" fill="#D02149"/>
</svg>
