<svg width="120" height="68" viewBox="0 0 120 68" fill="none" xmlns="http://www.w3.org/2000/svg">
<path d="M118 40.5514C114.902 40.7139 114.904 40.7117 113.323 38.3083C112.939 37.7245 112.513 37.1664 112.158 36.5634C111.435 35.3296 110.392 34.8271 108.889 35.1029C108.889 36.8734 108.889 38.6739 108.889 40.5321C107.969 40.5321 107.144 40.5321 106.254 40.5321C106.254 36.1721 106.254 31.7949 106.254 27.3857C106.295 27.3664 106.365 27.3023 106.438 27.3023C108.732 27.3044 111.031 27.2446 113.321 27.3408C115.975 27.452 117.45 29.5411 116.788 32.0964C116.501 33.2019 115.802 33.9589 114.741 34.3737C114.405 34.5063 114.055 34.6025 113.625 34.7437C115.718 36.2063 116.58 38.4986 118 40.5514ZM108.895 32.8427C110.225 32.8427 111.455 32.8833 112.678 32.8299C113.604 32.7892 114.106 32.229 114.183 31.3394C114.26 30.4413 113.837 29.7036 112.96 29.6352C111.615 29.5283 110.255 29.6074 108.895 29.6074C108.895 30.6873 108.895 31.7393 108.895 32.8427Z" fill="#686868"/>
<path d="M67.4627 33.8733C67.405 36.7002 66.6095 39.0994 63.849 40.2905C60.5666 41.7082 55.2251 40.7181 54.7482 34.9404C54.6199 33.3879 54.7055 31.8612 55.3748 30.4263C56.6193 27.7684 59.1682 26.6009 62.474 27.1419C65.117 27.5738 67.0714 29.7421 67.3708 32.5839C67.4178 33.0287 67.4349 33.4777 67.4627 33.8733ZM64.7834 33.8241C64.6679 33.1698 64.6038 32.4107 64.39 31.6987C63.9388 30.1975 62.7456 29.3508 61.206 29.3251C59.5424 29.2994 58.3021 30.112 57.7889 31.6302C57.2928 33.1014 57.2907 34.6046 57.7611 36.0801C58.2594 37.6453 59.6087 38.5841 61.1739 38.5477C62.7627 38.5092 64.0863 37.4486 64.484 35.8342C64.6359 35.2141 64.6744 34.5683 64.7834 33.8241Z" fill="#686868"/>
<path d="M40.167 33.9953C39.9061 35.1008 39.7757 36.2576 39.3587 37.299C38.3067 39.9377 35.7642 41.1501 32.4262 40.7502C29.8774 40.4444 27.8737 38.4836 27.3969 35.8257C27.1146 34.2583 27.1553 32.6994 27.6257 31.1769C28.4746 28.4228 30.8738 26.8639 33.9723 27.0093C36.9894 27.1505 39.2048 28.9852 39.7949 31.8698C39.9339 32.5497 39.9681 33.2533 40.0515 33.9439C40.09 33.9632 40.1285 33.9803 40.167 33.9953ZM37.3423 33.7964C37.2311 33.1741 37.1648 32.4728 36.9745 31.8077C36.5105 30.189 35.2959 29.3209 33.6152 29.3273C31.9751 29.3316 30.5894 30.2382 30.2922 31.8441C30.0591 33.1036 30.0356 34.4657 30.2451 35.7294C30.5402 37.5256 31.9922 38.5713 33.6943 38.5478C35.3493 38.5264 36.6559 37.4422 37.0664 35.6974C37.2033 35.105 37.2439 34.4871 37.3423 33.7964Z" fill="#3674D2"/>
<path d="M42.0253 40.5514C42.0253 36.1186 42.0253 31.7628 42.0253 27.3515C42.2263 27.3279 42.4102 27.2873 42.5941 27.2873C44.3005 27.2873 46.0068 27.2681 47.7132 27.3044C50.2001 27.3579 51.8402 28.5425 52.5801 30.9139C53.2344 33.018 53.2536 35.1564 52.4796 37.252C51.7354 39.2641 50.2536 40.4103 48.1345 40.5279C46.1287 40.6391 44.1144 40.5514 42.0253 40.5514ZM44.7281 29.5753C44.7281 32.4984 44.7281 35.3873 44.7281 38.3468C45.0018 38.3468 45.2221 38.3532 45.4402 38.3468C46.1929 38.3233 46.9498 38.3318 47.7004 38.2655C49.0646 38.1415 49.8344 37.5984 50.0183 36.2662C50.2108 34.872 50.2621 33.4222 50.0975 32.028C49.9072 30.4157 49.086 29.7528 47.4801 29.5924C46.5949 29.5026 45.6968 29.5753 44.7281 29.5753Z" fill="#676767"/>
<path d="M81.3683 40.5385C81.1844 40.5685 81.1288 40.5856 81.0754 40.5834C80.0447 40.5663 78.8451 40.8636 78.0304 40.4316C77.2905 40.0382 76.9612 38.8578 76.463 38.0174C75.7659 36.8392 75.0795 35.6525 74.3546 34.4144C73.6532 35.1072 72.9604 35.7465 72.3296 36.4436C72.1756 36.6126 72.1949 36.9697 72.1927 37.2412C72.1778 38.3275 72.1863 39.4138 72.1863 40.5449C71.2797 40.5449 70.4564 40.5449 69.5818 40.5449C69.5818 36.14 69.5818 31.7607 69.5818 27.3322C70.4372 27.3322 71.2626 27.3322 72.1927 27.3322C72.1927 29.2075 72.1927 31.0615 72.1927 33.1442C73.6147 31.5918 74.964 30.2874 76.1037 28.8205C77.0596 27.5888 78.1373 27.02 79.6705 27.2745C80.0703 27.3408 80.4916 27.2852 81.131 27.2852C79.3968 29.0942 77.8037 30.7557 76.1743 32.4535C77.9042 35.1457 79.6085 37.7972 81.3683 40.5385Z" fill="#676767"/>
<path d="M94.0037 27.3257C97.239 27.3257 100.419 27.3257 103.641 27.3257C103.641 28.0506 103.641 28.737 103.641 29.4855C101.323 29.4855 99.0395 29.4855 96.6852 29.4855C96.6852 30.4819 96.6852 31.4164 96.6852 32.447C98.7936 32.447 100.934 32.447 103.126 32.447C103.126 33.2254 103.126 33.9097 103.126 34.688C101.002 34.688 98.8641 34.688 96.6723 34.688C96.6723 35.9368 96.6723 37.0936 96.6723 38.3275C99.063 38.3275 101.432 38.3275 103.876 38.3275C103.876 39.1058 103.876 39.8093 103.876 40.5513C100.594 40.5513 97.3267 40.5513 94.0037 40.5513C94.0037 36.1613 94.0037 31.782 94.0037 27.3257Z" fill="#666666"/>
<path d="M15.1978 40.5876C14.2826 40.5876 13.4807 40.6069 12.6809 40.5727C12.5163 40.5662 12.2982 40.3888 12.2127 40.2327C12.0288 39.8905 11.9133 39.512 11.7764 39.1443C11.1841 37.564 11.1863 37.564 9.46704 37.564C8.34656 37.564 7.22821 37.5683 6.10773 37.5747C6.05427 37.5747 6.00081 37.6025 5.89389 37.6325C5.60308 38.4407 5.3251 39.2897 4.98511 40.1129C4.90171 40.3139 4.62801 40.5534 4.42914 40.5684C3.65507 40.6218 2.87458 40.5898 2 40.5898C2.67571 38.8385 3.31935 37.1749 3.95871 35.5091C4.93165 32.9794 5.911 30.4519 6.8647 27.9137C7.03362 27.4647 7.24318 27.2722 7.75852 27.2701C9.95244 27.2637 9.95458 27.2423 10.7522 29.263C12.1186 32.7207 13.4807 36.1784 14.8428 39.6361C14.954 39.9141 15.0524 40.1985 15.1978 40.5876ZM10.3309 35.2824C9.70653 33.606 9.1356 32.0749 8.49838 30.3643C7.86971 32.122 7.31161 33.6808 6.7364 35.2824C7.97021 35.2824 9.07787 35.2824 10.3309 35.2824Z" fill="#3573D2"/>
<path d="M88.4119 40.5663C87.4454 40.5663 86.6371 40.5663 85.7347 40.5663C85.7347 36.9119 85.7347 33.2639 85.7347 29.5283C84.4004 29.5283 83.1581 29.5283 81.8665 29.5283C81.8665 28.7563 81.8665 28.0742 81.8665 27.3365C85.3071 27.3365 88.7305 27.3365 92.1989 27.3365C92.1989 28.0464 92.1989 28.7307 92.1989 29.4834C90.9523 29.4834 89.7313 29.4834 88.4098 29.4834C88.4119 33.1934 88.4119 36.8392 88.4119 40.5663Z" fill="#676767"/>
<path d="M19.2969 38.3275C21.5657 38.3275 23.6891 38.3275 25.868 38.3275C25.868 39.0952 25.868 39.8073 25.868 40.5514C22.8102 40.5514 19.7716 40.5514 16.686 40.5514C16.686 36.1614 16.686 31.8121 16.686 27.4114C17.5499 27.4114 18.3775 27.4114 19.2948 27.4114C19.2969 31.0251 19.2969 34.6197 19.2969 38.3275Z" fill="#3573D2"/>
</svg>
