<svg width="120" height="68" viewBox="0 0 120 68" fill="none" xmlns="http://www.w3.org/2000/svg">
<g clip-path="url(#clip0_1187:30257)">
<path d="M62.3719 30.4121C61.8352 29.7672 61.1529 29.2591 60.3812 28.9297C59.4681 28.5561 58.4874 28.3758 57.5011 28.4003C56.7742 28.3774 56.0512 28.5148 55.3833 28.8027C54.7962 29.0652 54.2806 29.4646 53.8797 29.9674H53.6891V24.6942C53.685 24.5081 53.6413 24.325 53.561 24.157C53.4806 23.9891 53.3655 23.8401 53.2232 23.7201C52.8808 23.4143 52.4323 23.2547 51.9737 23.2753C51.4961 23.2556 51.0281 23.4141 50.6607 23.7201C50.5251 23.8431 50.4172 23.9936 50.3442 24.1616C50.2712 24.3295 50.2347 24.5111 50.2372 24.6942V38.1419C50.2298 38.9608 50.3808 39.7734 50.6819 40.535C50.9683 41.2683 51.4173 41.9272 51.9949 42.4621C52.6061 43.0266 53.327 43.4592 54.1127 43.7328C55.1046 44.05 56.1423 44.2003 57.1834 44.1775C58.1924 44.2029 59.1955 44.0153 60.1271 43.6269C60.9331 43.2841 61.6555 42.7712 62.2448 42.1233C62.7998 41.5088 63.2248 40.7885 63.4943 40.0055C63.768 39.1428 63.9038 38.2423 63.8967 37.3372V35.4736C63.9027 34.5199 63.7671 33.5707 63.4943 32.6569C63.2732 31.8415 62.8916 31.0783 62.3719 30.4121ZM60.3812 37.3372C60.4397 38.2815 60.1368 39.2127 59.5341 39.942C59.2489 40.2637 58.8957 40.518 58.5001 40.6865C58.1046 40.8549 57.6765 40.9334 57.2469 40.9162C56.3771 40.9467 55.517 40.7261 54.7692 40.2808C54.4349 40.0741 54.1647 39.7784 53.9889 39.4268C53.8131 39.0752 53.7387 38.6817 53.7738 38.2902V34.7747C53.7533 34.3373 53.8278 33.9006 53.9924 33.4948C54.1569 33.0889 54.4075 32.7236 54.7268 32.424C55.3272 31.9421 56.0747 31.6805 56.8446 31.6828C57.3059 31.6627 57.7664 31.739 58.1966 31.9067C58.6269 32.0744 59.0175 32.3299 59.3435 32.6569C60.0276 33.4459 60.3704 34.4743 60.2965 35.5159L60.3812 37.3372Z" fill="#333333"/>
<path d="M69.5511 28.4003C69.0734 28.3805 68.6054 28.539 68.2381 28.845C68.0869 28.96 67.963 29.107 67.8752 29.2753C67.7873 29.4437 67.7377 29.6294 67.7298 29.8192V42.6951C67.7377 42.8848 67.7873 43.0705 67.8752 43.2389C67.963 43.4073 68.0869 43.5542 68.2381 43.6692C68.6054 43.9752 69.0734 44.1337 69.5511 44.1139C70.0096 44.1346 70.4581 43.9749 70.8005 43.6692C70.9428 43.5492 71.0579 43.4002 71.1383 43.2323C71.2186 43.0643 71.2623 42.8812 71.2664 42.6951V29.8192C71.2623 29.633 71.2186 29.4499 71.1383 29.282C71.0579 29.114 70.9428 28.9651 70.8005 28.845C70.4581 28.5393 70.0096 28.3797 69.5511 28.4003Z" fill="#333333"/>
<path d="M69.5511 23C69.0734 22.9802 68.6054 23.1388 68.2381 23.4447C68.0858 23.5587 67.9612 23.7054 67.8732 23.874C67.7852 24.0426 67.7362 24.2288 67.7298 24.4189V25.1178C67.7362 25.3078 67.7852 25.494 67.8732 25.6626C67.9612 25.8312 68.0858 25.9779 68.2381 26.0919C68.6054 26.3979 69.0734 26.5564 69.5511 26.5366C70.0093 26.555 70.4569 26.3957 70.8005 26.0919C70.9428 25.9718 71.0579 25.8229 71.1383 25.6549C71.2186 25.487 71.2623 25.3039 71.2664 25.1178V24.3977C71.2623 24.2116 71.2186 24.0285 71.1383 23.8605C71.0579 23.6926 70.9428 23.5436 70.8005 23.4236C70.4537 23.1274 70.0064 22.9758 69.5511 23Z" fill="#333333"/>
<path d="M87.7213 30.4121C87.1846 29.7672 86.5022 29.2591 85.7306 28.9297C84.8175 28.5561 83.8368 28.3758 82.8505 28.4003C82.1236 28.3774 81.4006 28.5148 80.7327 28.8027C80.1456 29.0652 79.63 29.4646 79.2291 29.9674H79.0385V24.6942C79.0344 24.5081 78.9907 24.325 78.9104 24.157C78.83 23.9891 78.7149 23.8401 78.5726 23.7201C78.2302 23.4143 77.7817 23.2547 77.3231 23.2753C76.8455 23.2556 76.3775 23.4141 76.0101 23.7201C75.886 23.8487 75.7899 24.0017 75.7279 24.1694C75.666 24.3371 75.6395 24.5158 75.6501 24.6942V38.1419C75.6428 38.9608 75.7938 39.7734 76.0949 40.535C76.3813 41.2683 76.8302 41.9272 77.4079 42.4621C78.019 43.0266 78.7399 43.4592 79.5256 43.7328C80.5175 44.05 81.5552 44.2003 82.5963 44.1775C83.6054 44.2029 84.6084 44.0153 85.54 43.6269C86.346 43.2841 87.0684 42.7712 87.6577 42.1233C88.2127 41.5088 88.6377 40.7885 88.9072 40.0055C89.181 39.1428 89.3168 38.2423 89.3096 37.3372V35.4736C89.3156 34.5199 89.18 33.5707 88.9072 32.6569C88.667 31.8365 88.2636 31.073 87.7213 30.4121ZM85.7306 37.3372C85.7832 38.2843 85.4727 39.2158 84.8623 39.942C84.5771 40.2637 84.2239 40.518 83.8284 40.6865C83.4328 40.8549 83.0048 40.9334 82.5752 40.9162C81.7054 40.9467 80.8452 40.7261 80.0974 40.2808C79.7631 40.0741 79.4929 39.7784 79.3171 39.4268C79.1413 39.0752 79.0669 38.6817 79.1021 38.2902V34.7747C79.0815 34.3373 79.156 33.9006 79.3206 33.4948C79.4851 33.0889 79.7357 32.7236 80.055 32.424C80.6555 31.9421 81.4029 31.6805 82.1728 31.6828C82.6341 31.6627 83.0946 31.739 83.5248 31.9067C83.9551 32.0744 84.3457 32.3299 84.6717 32.6569C85.3558 33.4459 85.6986 34.4743 85.6247 35.5159L85.7306 37.3372Z" fill="#333333"/>
<path d="M94.8792 23C94.4016 22.9803 93.9336 23.1388 93.5662 23.4447C93.414 23.5587 93.2893 23.7054 93.2014 23.874C93.1134 24.0426 93.0644 24.2288 93.058 24.4189V25.1178C93.0644 25.3078 93.1134 25.494 93.2014 25.6626C93.2893 25.8312 93.414 25.9779 93.5662 26.0919C93.9336 26.3979 94.4016 26.5564 94.8792 26.5366C95.3375 26.555 95.7851 26.3957 96.1287 26.0919C96.2749 25.9738 96.394 25.8258 96.478 25.6577C96.562 25.4897 96.609 25.3055 96.6158 25.1178V24.3977C96.6116 24.2116 96.5679 24.0285 96.4876 23.8605C96.4073 23.6926 96.2922 23.5436 96.1499 23.4236C95.7977 23.1222 95.3418 22.9703 94.8792 23Z" fill="#333333"/>
<path d="M94.8792 28.4003C94.4016 28.3805 93.9336 28.539 93.5662 28.845C93.4151 28.96 93.2912 29.107 93.2034 29.2753C93.1155 29.4437 93.0659 29.6294 93.058 29.8192V42.6951C93.0659 42.8848 93.1155 43.0705 93.2034 43.2389C93.2912 43.4073 93.4151 43.5542 93.5662 43.6692C93.9336 43.9752 94.4016 44.1337 94.8792 44.1139C95.3378 44.1346 95.7863 43.9749 96.1287 43.6692C96.271 43.5492 96.3861 43.4002 96.4664 43.2323C96.5468 43.0643 96.5904 42.8812 96.5946 42.6951V29.8192C96.5904 29.633 96.5468 29.4499 96.4664 29.282C96.3861 29.114 96.271 28.9651 96.1287 28.845C95.7863 28.5393 95.3378 28.3797 94.8792 28.4003Z" fill="#333333"/>
<path d="M109.682 41.1491C109.552 41.0132 109.394 40.9083 109.218 40.8423C109.042 40.7763 108.853 40.7509 108.666 40.7679C108.342 40.7284 108.015 40.7284 107.692 40.7679C107.354 40.8087 107.013 40.8087 106.675 40.7679C106.488 40.7808 106.302 40.7469 106.132 40.6692C105.961 40.5915 105.813 40.4726 105.701 40.3232C105.438 39.8579 105.3 39.3328 105.299 38.7984V31.471H107.543C107.713 31.4714 107.881 31.4379 108.037 31.3724C108.194 31.307 108.335 31.2109 108.454 31.0898C108.59 30.9544 108.695 30.7921 108.765 30.6134C108.834 30.4347 108.865 30.2435 108.856 30.0521C108.86 29.8707 108.826 29.6905 108.757 29.5229C108.688 29.3552 108.585 29.2037 108.454 29.0779C108.335 28.9569 108.194 28.8608 108.037 28.7953C107.881 28.7298 107.713 28.6963 107.543 28.6967H105.299V25.6048V25.7531C105.309 25.592 105.27 25.4316 105.188 25.2927C105.105 25.1539 104.983 25.043 104.837 24.9745C104.691 24.906 104.527 24.883 104.368 24.9086C104.209 24.9341 104.061 25.007 103.943 25.1178L99.4959 30.0733C99.3867 30.1894 99.3145 30.3354 99.2884 30.4926C99.2624 30.6499 99.2835 30.8113 99.3493 30.9565C99.4151 31.1017 99.5225 31.2241 99.658 31.3081C99.7934 31.3922 99.9507 31.4341 100.11 31.4286H101.847V38.6713C101.694 40.1665 102.077 41.6672 102.927 42.9068C103.373 43.3532 103.911 43.6978 104.503 43.9171C105.095 44.1365 105.728 44.2253 106.357 44.1775C106.816 44.2093 107.276 44.2093 107.734 44.1775C108.128 44.1258 108.513 44.0188 108.878 43.8598C109.189 43.7292 109.465 43.5259 109.682 43.2668C109.888 43.0012 109.993 42.671 109.979 42.335C110.011 42.1276 110.002 41.9157 109.951 41.712C109.9 41.5082 109.809 41.3168 109.682 41.1491Z" fill="#333333"/>
<path d="M30.1186 23.2753L26.942 27.5108H39.6485V40.2173H14.2355V27.5108H26.942L23.7654 23.2753H14.2355C13.1122 23.2753 12.0349 23.7216 11.2405 24.5159C10.4462 25.3102 10 26.3875 10 27.5108V40.2173C10 41.3406 10.4462 42.4179 11.2405 43.2122C12.0349 44.0066 13.1122 44.4528 14.2355 44.4528H39.6485C40.7718 44.4528 41.8491 44.0066 42.6434 43.2122C43.4377 42.4179 43.8839 41.3406 43.8839 40.2173V27.5108C43.8839 26.3875 43.4377 25.3102 42.6434 24.5159C41.8491 23.7216 40.7718 23.2753 39.6485 23.2753H30.1186Z" fill="#1AA86E"/>
<path d="M22.7065 31.7463H18.471V35.9818H22.7065V31.7463Z" fill="#1AA86E"/>
<path d="M35.413 31.7463H31.1775V35.9818H35.413V31.7463Z" fill="#1AA86E"/>
</g>
<defs>
<clipPath id="clip0_1187:30257">
<rect width="100" height="21.4528" fill="white" transform="translate(10 23)"/>
</clipPath>
</defs>
</svg>
