<svg width="120" height="68" viewBox="0 0 120 68" fill="none" xmlns="http://www.w3.org/2000/svg">
<g clip-path="url(#clip0_1172:30260)">
<path fill-rule="evenodd" clip-rule="evenodd" d="M14.3075 28.8017C14.4826 29.0994 15.8659 30.5528 16.0585 30.7804L17.9671 32.724C18.3329 33.0715 18.6193 33.4939 18.8066 33.9624C18.994 34.4308 19.078 34.9342 19.0527 35.4381C19.0024 35.9153 18.8437 36.3748 18.5888 36.7815C18.3339 37.1881 17.9895 37.5311 17.5819 37.7844C17.1344 38.0999 16.5828 38.2316 16.041 38.1521H14.1324C13.8795 38.1521 13.6296 38.0974 13.3998 37.9916C13.1701 37.8858 12.966 37.7315 12.8016 37.5393C12.3639 37.0665 12.3464 36.9089 12.3464 36.0859C12.3464 35.6832 12.3464 21.2724 12.3464 20.8347C12.3955 20.5999 12.4924 20.3777 12.6309 20.182C12.7695 19.9862 12.9468 19.821 13.1518 19.6965C13.5987 19.4082 14.1273 19.273 14.6577 19.3113C15.7886 19.1293 16.9481 19.3134 17.9671 19.8366C18.381 20.1077 18.7189 20.48 18.9487 20.9182C19.1785 21.3563 19.2927 21.8459 19.2804 22.3405C19.2199 23.3362 18.7889 24.2732 18.0722 24.967C17.2667 25.9476 14.4651 28.1889 14.255 28.8017H14.3075ZM21.1189 19.3288C21.9177 19.2759 22.719 19.2759 23.5178 19.3288C24.1406 19.4218 24.7163 19.7145 25.1584 20.1629C25.6005 20.6113 25.8851 21.1912 25.9692 21.8152C26.014 22.1548 25.9839 22.5 25.8811 22.8267C25.7782 23.1534 25.6051 23.4536 25.3739 23.7063C24.4272 24.8166 23.397 25.8527 22.2921 26.8056C21.9419 27.1033 20.5411 28.5566 20.5411 28.7492L26.2318 34.5976C26.8797 35.263 29.5062 37.7669 29.7339 38.0996H21.4166C21.4166 37.9245 21.6792 37.6969 21.7843 37.5218C22.2227 36.8951 22.4608 36.1503 22.4672 35.3855C22.4694 34.6567 22.3048 33.937 21.9862 33.2814C21.6675 32.6259 21.2032 32.0519 20.6286 31.6034L17.8971 28.7142C18.1536 28.3627 18.4407 28.0345 18.7551 27.7337C19.3504 27.1208 20.2084 26.4729 20.6812 25.9826C20.9927 25.6651 21.2741 25.3192 21.5217 24.9496C22.1302 24.0899 22.4042 23.0377 22.2921 21.9904C22.1345 20.1168 21.3816 19.8541 21.259 19.3113L21.1189 19.3288ZM27.3875 19.3288C29.8214 19.3288 31.3448 19.0837 31.2923 22.4806V25.7725C31.2923 29.187 31.2923 32.7765 31.2923 36.1385L24.0081 28.7317C24.2617 28.362 24.5553 28.0214 24.8836 27.7161L25.8817 26.8056C26.0743 26.6305 26.1968 26.543 26.3719 26.3679C26.8806 25.9191 27.3493 25.4269 27.7727 24.897C28.1206 24.4939 28.3799 24.0221 28.5338 23.5123C28.6876 23.0025 28.7326 22.4661 28.6658 21.9378C28.6658 20.3094 27.6852 19.9066 27.4751 19.3288H27.3875ZM13.9748 17C13.2294 17.031 12.5073 17.2684 11.8889 17.6858C11.2706 18.1032 10.7803 18.6841 10.4728 19.3638C10.1209 20.1432 9.96464 20.9967 10.0175 21.8502V30.6929C10.0175 32.6365 10.0175 34.6501 10.0175 36.5762C10.0689 37.3185 10.3164 38.0338 10.7348 38.6491C11.1532 39.2644 11.7275 39.7576 12.3989 40.0782C13.1785 40.4475 14.0454 40.593 14.9028 40.4985H29.6113C30.3567 40.4675 31.0788 40.2301 31.6972 39.8127C32.3155 39.3953 32.8058 38.8144 33.1133 38.1346C33.4886 37.3567 33.6401 36.4898 33.5511 35.6307V20.9222C33.5272 20.1329 33.2511 19.3719 32.7631 18.751C32.3293 18.1886 31.7722 17.7333 31.1347 17.4202C30.3563 17.0677 29.4981 16.9288 28.6482 17.0175H16.8815C15.9359 17.0175 14.8853 17.0175 13.9748 17.0175V17Z" fill="#2B4C9B"/>
<path fill-rule="evenodd" clip-rule="evenodd" d="M59.3959 34.6501H62.2676V26.8057C62.4077 26.9282 64.2112 30.5703 64.2812 30.7279L66.2949 34.6677H70.1646V22.9184C69.8494 22.9184 67.5381 22.9184 67.328 22.9184V30.6228C67.2229 30.5178 65.2093 26.3854 64.9291 25.8076L63.4758 22.8834H59.466V34.6327L59.3959 34.6501Z" fill="#2B4C9B"/>
<path fill-rule="evenodd" clip-rule="evenodd" d="M89.0054 32.4263V29.6422C89.738 29.5828 90.4752 29.63 91.1942 29.7823C91.8071 29.9574 92.3149 30.2726 92.2798 31.0255C92.2798 31.3327 92.1705 31.6298 91.9717 31.8639C91.7729 32.0981 91.4973 32.2539 91.1942 32.3037C90.4733 32.4418 89.7372 32.483 89.0054 32.4263ZM89.0054 27.5585V25.1421C89.6689 25.0709 90.3381 25.0709 91.0016 25.1421C91.2786 25.1729 91.5337 25.3073 91.7156 25.5185C91.8975 25.7296 91.9927 26.0018 91.9822 26.2803C91.9822 27.5235 89.8634 27.5935 89.0054 27.4885V27.5585ZM85.8712 34.6501C86.3089 34.6501 89.5658 34.6501 90.3012 34.6501C92.7001 34.6501 95.7643 34.0898 95.3966 30.9379C95.3556 30.5213 95.2169 30.1203 94.9917 29.7674C94.7666 29.4144 94.4614 29.1196 94.1009 28.9068C93.8201 28.7934 93.5258 28.7169 93.2254 28.6792C93.2254 28.434 93.3304 28.5916 93.8557 28.2589C94.2568 27.9982 94.5864 27.6414 94.8146 27.2209C95.0427 26.8004 95.1622 26.3296 95.1622 25.8513C95.1622 25.3729 95.0427 24.9021 94.8146 24.4816C94.5864 24.0612 94.2568 23.7044 93.8557 23.4436C92.7024 22.9097 91.4209 22.7153 90.1611 22.8833C89.6183 22.8833 86.2039 22.8833 85.9587 22.8833V34.5975L85.8712 34.6501Z" fill="#2B4C9B"/>
<path fill-rule="evenodd" clip-rule="evenodd" d="M40.1698 29.7123C40.8797 29.6337 41.5962 29.6337 42.3061 29.7123C42.6002 29.7346 42.8747 29.8685 43.0733 30.0866C43.2718 30.3048 43.3795 30.5905 43.3742 30.8855C43.3742 31.5859 43.2691 31.8661 42.5512 32.1287C41.7776 32.3471 40.9709 32.4241 40.1698 32.3563V29.6423V29.7123ZM40.1698 25.1422C40.8247 25.0921 41.4832 25.1216 42.131 25.2297C42.7789 25.3698 43.0765 25.6149 43.059 26.3504C43.0415 27.0858 42.6388 27.2609 42.0609 27.4185C41.4418 27.5641 40.8026 27.6055 40.1698 27.541V25.1422ZM37.0356 34.6676C39.6621 34.5626 45.1602 35.298 46.2809 32.7941C46.5095 32.149 46.5873 31.4602 46.5085 30.7804C46.436 30.2551 46.1928 29.7682 45.8162 29.3948C45.4397 29.0214 44.9507 28.7823 44.4248 28.7142C44.2147 28.7142 44.2672 28.7142 44.2147 28.6092C44.1621 28.5041 44.2147 28.6091 44.3898 28.5216H44.5824C44.7114 28.4777 44.8348 28.419 44.9501 28.3465C45.2909 28.155 45.5812 27.8852 45.7974 27.5595C46.0135 27.2337 46.1492 26.8614 46.1933 26.4729C46.1933 25.2122 46.1933 24.2842 44.9151 23.5313C43.7795 23.0003 42.5172 22.8 41.273 22.9534C39.8722 22.9534 38.4364 22.9534 37.0356 22.9534V34.7202V34.6676Z" fill="#2B4C9B"/>
<path fill-rule="evenodd" clip-rule="evenodd" d="M99.3013 25.1422C100.545 25.1422 102.803 25.0196 102.313 26.8932C102.05 27.8913 100.422 27.8388 99.3013 27.8213V25.1773V25.1422ZM96.1671 34.6502H99.3013V30.01C99.9038 29.8849 100.531 29.9978 101.052 30.3252C101.705 31.1223 102.156 32.0655 102.366 33.0743C102.453 33.3369 102.541 33.5821 102.611 33.8447C102.681 34.1074 102.786 34.4926 102.856 34.6502H106.043C105.596 33.0462 105.047 31.4729 104.397 29.94C104.047 29.012 103.644 29.1695 103.416 28.7668C103.946 28.6586 104.429 28.3908 104.802 27.9995C105.174 27.6081 105.418 27.1121 105.5 26.5781C105.657 24.9846 105.307 24.0741 104.274 23.4963C103.105 22.9713 101.82 22.7601 100.545 22.8834C99.1087 22.8834 97.6204 22.8834 96.2021 22.8834V34.6152L96.1671 34.6502Z" fill="#2B4C9B"/>
<path fill-rule="evenodd" clip-rule="evenodd" d="M71.2852 34.6501H74.4371V29.3971C74.8398 29.5897 77.5714 34.1423 78.0967 34.6501C78.2543 34.7727 78.5519 34.6501 78.8146 34.6501C79.3574 34.6501 81.7388 34.6501 82.0364 34.6501C81.4212 33.6046 80.7244 32.6094 79.9527 31.6734C79.1998 30.6929 78.4294 29.7648 77.7114 28.7667C77.4138 28.3465 77.4313 28.399 77.7114 27.9788L80.5831 24.4768C80.9812 24.0057 81.3553 23.5148 81.7037 23.0059H77.9916C77.6142 23.387 77.2741 23.8033 76.976 24.2492C76.5558 24.827 76.1355 25.4048 75.6978 26.0002C75.5227 26.2103 74.5071 27.6286 74.402 27.7512V23.0935H71.2852V34.8252V34.6501Z" fill="#2B4C9B"/>
<path fill-rule="evenodd" clip-rule="evenodd" d="M52.567 25.3698C52.6895 25.4573 53.4775 28.3815 53.5825 28.7492C53.7154 29.1337 53.8264 29.5254 53.9152 29.9224H51.0261L51.7615 27.6286C51.9016 27.2609 52.0066 26.8932 52.1292 26.4905C52.2518 26.0877 52.2693 26.1052 52.3218 25.9301C52.3744 25.755 52.4269 25.4398 52.567 25.3698ZM46.1933 34.6501C46.9637 34.6501 48.1369 34.6501 48.9599 34.6501C49.3276 34.6501 49.3276 34.5451 49.4852 34.2474C49.8068 33.5725 50.0648 32.869 50.2556 32.1462C50.6934 32.1462 53.5475 32.1462 54.2129 32.1462C54.5281 32.1462 54.6156 32.1462 54.7382 32.3563C54.9539 32.8947 55.1409 33.4441 55.2985 34.0022C55.5437 34.7552 55.6487 34.6501 56.104 34.6501H59.0282L54.5806 22.9184H50.7634C50.2949 23.8443 49.8969 24.8042 49.5728 25.79C48.8373 27.541 48.0669 29.8524 47.3315 31.7084C46.9015 32.6625 46.5387 33.6454 46.2458 34.6501H46.1933Z" fill="#2B4C9B"/>
<path fill-rule="evenodd" clip-rule="evenodd" d="M110 34.6677V22.9184H106.848V34.6677H110Z" fill="#2B4C9B"/>
<path d="M12.5915 49.6913H13.2394V45.2437L14.7452 49.6913H15.3581L16.8639 45.3313V49.6913H17.5118V44.4383H16.6013L15.3406 48.0628L15.0779 48.9033C15.0779 48.7457 15.0779 48.6582 14.8328 48.1329L13.6071 44.4383H12.574V49.6913H12.5915ZM21.1889 48.4831C21.1337 48.7052 21.0051 48.9021 20.8239 49.0419C20.6428 49.1818 20.4197 49.2564 20.1909 49.2535C19.6305 49.2535 19.0877 48.8683 19.0352 47.9578H21.8718C21.8718 45.9266 20.471 45.8215 20.1208 45.8215C19.867 45.8187 19.6156 45.871 19.384 45.975C19.1524 46.0789 18.9462 46.232 18.7797 46.4235C18.6131 46.615 18.4902 46.8405 18.4194 47.0842C18.3486 47.328 18.3317 47.5842 18.3698 47.8352C18.3426 48.0808 18.3677 48.3294 18.4435 48.5646C18.5192 48.7998 18.6439 49.0163 18.8093 49.1998C18.9746 49.3834 19.177 49.53 19.4031 49.6297C19.6291 49.7295 19.8737 49.7803 20.1208 49.7788C20.5133 49.8319 20.9114 49.7353 21.2359 49.5082C21.5603 49.281 21.7874 48.9401 21.8718 48.5531H21.2064L21.1889 48.4831ZM19.0877 47.4325C19.0852 47.1894 19.1657 46.9528 19.3159 46.7616C19.466 46.5705 19.6769 46.4363 19.9136 46.3812C20.1504 46.3261 20.3988 46.3534 20.618 46.4586C20.8371 46.5638 21.0138 46.7405 21.1189 46.9597C21.1735 47.1123 21.2088 47.2711 21.224 47.4325H19.0877ZM22.5897 49.6913H23.2376V44.4383H22.5897V49.6913ZM24.7435 47.0823C24.7435 46.7671 24.9186 46.3469 25.724 46.3469C26.5295 46.3469 26.6521 46.8896 26.6346 47.2924C26.2571 47.4033 25.8702 47.4795 25.4789 47.52C25.0762 47.52 24.008 47.6951 24.008 48.6932C24.008 49.3236 24.4633 49.7788 25.2863 49.7788C25.5452 49.7825 25.8023 49.7349 26.0427 49.6388C26.2831 49.5426 26.5021 49.3997 26.6871 49.2185C26.6963 49.3826 26.7379 49.5434 26.8097 49.6913H27.5101C27.2999 49.3236 27.2999 49.0784 27.2999 48.1154V47.2574C27.2999 46.592 27.2999 45.8215 25.8291 45.8215C24.3582 45.8215 24.2007 46.662 24.0781 46.9947L24.7085 47.0823H24.7435ZM26.6346 48.0278C26.6516 48.1879 26.6356 48.3498 26.5874 48.5035C26.5392 48.6571 26.4599 48.7992 26.3544 48.9209C26.1091 49.1534 25.7817 49.2793 25.4439 49.271C24.866 49.271 24.6909 48.9558 24.6909 48.6757C24.6909 48.3955 25.1812 48.0979 25.584 48.0453C25.9398 47.9901 26.291 47.9081 26.6346 47.8002V48.0278ZM28.0179 51.1446C28.1451 51.1997 28.2819 51.2294 28.4206 51.2321C29.156 51.2321 29.3836 50.6018 29.6638 49.8489C29.6681 49.8199 29.6681 49.7903 29.6638 49.7613L31.1171 45.9091H30.4693L29.6638 48.1154C29.5499 48.3926 29.462 48.6799 29.4011 48.9734C29.3374 48.6749 29.2495 48.3821 29.1385 48.0979L28.3505 45.9091H27.6501L29.086 49.7088V49.8489C28.9109 50.3567 28.8233 50.6018 28.3505 50.6018C28.2283 50.6147 28.1051 50.6147 27.9828 50.6018V51.1971L28.0179 51.1446ZM32.0627 47.0823C32.1502 46.7671 32.2553 46.3469 33.0607 46.3469C33.8662 46.3469 33.9888 46.8896 33.9713 47.2924C33.5938 47.4033 33.207 47.4795 32.8156 47.52C32.4129 47.52 31.3273 47.6951 31.3273 48.6932C31.3273 49.3236 31.8 49.7788 32.623 49.7788C33.1453 49.7825 33.6482 49.5813 34.0238 49.2185C34.0241 49.3839 34.0663 49.5466 34.1464 49.6913H34.8118C34.6191 49.3236 34.6191 49.0784 34.6191 48.1154V47.2574C34.6191 46.592 34.6191 45.8215 33.1483 45.8215C31.6775 45.8215 31.5199 46.662 31.3973 46.9947L32.0101 47.0823H32.0627ZM33.9713 48.0278C33.9978 48.3506 33.8973 48.671 33.6911 48.9209C33.4458 49.1534 33.1185 49.2793 32.7806 49.271C32.2027 49.271 32.0277 48.9558 32.0277 48.6757C32.0277 48.3955 32.5179 48.0979 32.9207 48.0453C33.2765 47.9901 33.6277 47.9081 33.9713 47.8002V48.0278ZM35.5997 49.6913H36.2651V47.6251C36.2477 47.3606 36.2958 47.096 36.4052 46.8546C36.4957 46.7049 36.6246 46.5821 36.7785 46.499C36.9325 46.4158 37.1058 46.3754 37.2807 46.3819C38.0686 46.3819 38.0686 47.0647 38.0686 47.3974V49.6913H38.699V47.3624C38.7315 47.0275 38.6772 46.6898 38.5414 46.3819C38.4145 46.1999 38.2435 46.0532 38.0445 45.9552C37.8454 45.8572 37.6248 45.8112 37.4032 45.8215C37.1669 45.813 36.9325 45.8667 36.7235 45.9774C36.5145 46.088 36.3383 46.2517 36.2126 46.4519V45.9091H35.6347V49.6913H35.5997ZM39.6621 49.6913H40.2924V45.9091H39.7671V49.6913H39.6621ZM39.6621 45.2087H40.2924V44.4733H39.7671V45.2087H39.6621ZM43.3917 49.6913H45.2828C45.9123 49.7485 46.5397 49.5603 47.0338 49.166C47.2988 48.884 47.5025 48.5501 47.6321 48.1855C47.7617 47.8208 47.8144 47.4333 47.7867 47.0473C47.8368 46.3391 47.6038 45.6401 47.1389 45.1036C46.8963 44.8612 46.601 44.6782 46.2759 44.5688C45.9509 44.4595 45.605 44.4268 45.2653 44.4733H43.5143V49.7263L43.3917 49.6913ZM44.0921 45.0861H45.1777C45.6251 45.0306 46.0767 45.1498 46.4384 45.4188C46.6416 45.6353 46.7965 45.8923 46.8931 46.173C46.9897 46.4537 47.0257 46.7517 46.9988 47.0473C46.9988 49.0784 45.8081 49.0784 45.2478 49.0784H44.1446V45.0161L44.0921 45.0861ZM51.0961 48.4831C51.0381 48.7037 50.9088 48.8988 50.7282 49.0382C50.5477 49.1776 50.3261 49.2533 50.098 49.2535C49.5377 49.2535 48.9949 48.8683 48.9424 47.9578H51.779C51.779 45.9266 50.3782 45.8215 50.028 45.8215C49.7742 45.8187 49.5228 45.871 49.2912 45.975C49.0596 46.0789 48.8534 46.232 48.6869 46.4235C48.5203 46.615 48.3974 46.8405 48.3266 47.0842C48.2558 47.328 48.2389 47.5842 48.277 47.8352C48.2498 48.0808 48.2749 48.3294 48.3507 48.5646C48.4264 48.7998 48.551 49.0163 48.7164 49.1998C48.8818 49.3834 49.0842 49.53 49.3102 49.6297C49.5363 49.7295 49.7809 49.7803 50.028 49.7788C50.4057 49.8055 50.7805 49.6968 51.0853 49.4722C51.3901 49.2476 51.605 48.9217 51.6915 48.5531H51.0261L51.0961 48.4831ZM48.9774 47.4325C48.9819 47.146 49.0977 46.8725 49.3004 46.6698C49.503 46.4672 49.7765 46.3514 50.063 46.3469C50.2631 46.3465 50.4589 46.4042 50.6267 46.513C50.7946 46.6218 50.9272 46.777 51.0086 46.9597C51.0715 47.1098 51.107 47.2699 51.1136 47.4325H48.9774ZM52.4794 49.6913H53.1273V47.6251C53.1097 47.3623 53.1516 47.099 53.2499 46.8546C53.343 46.7073 53.4724 46.5865 53.6258 46.5037C53.7791 46.4209 53.9511 46.3789 54.1254 46.3819C54.9133 46.3819 54.9133 47.0647 54.9133 47.3974V49.6913H55.5612V47.3624C55.599 47.0255 55.5381 46.6849 55.3861 46.3819C55.2631 46.2001 55.0954 46.0531 54.8991 45.955C54.7028 45.8568 54.4846 45.8109 54.2654 45.8215C54.0291 45.813 53.7947 45.8667 53.5857 45.9774C53.3767 46.088 53.2005 46.2517 53.0748 46.4519V45.9091H52.4969V49.6913H52.4794ZM56.4192 50.0065C56.4192 51.0921 57.4348 51.2321 57.925 51.2321C58.2099 51.2531 58.4953 51.1995 58.7532 51.0767C59.0111 50.9539 59.2326 50.7661 59.3959 50.5317C59.5701 50.1046 59.6478 49.6442 59.6235 49.1835V45.9091H59.0282V46.3643C58.9032 46.1943 58.7396 46.0563 58.5509 45.962C58.3621 45.8676 58.1536 45.8194 57.9426 45.8215C56.7694 45.8215 56.3141 46.8546 56.3141 47.7827C56.2926 48.0155 56.3179 48.2504 56.3886 48.4733C56.4592 48.6962 56.5738 48.9027 56.7256 49.0806C56.8774 49.2585 57.0633 49.4041 57.2723 49.509C57.4813 49.6139 57.7092 49.6759 57.9426 49.6913C58.1435 49.6954 58.3427 49.6533 58.5249 49.5683C58.707 49.4833 58.8672 49.3577 58.9932 49.201C58.9932 49.954 58.9932 50.7069 57.925 50.7069C57.1721 50.7069 57.0846 50.3041 57.0671 50.094H56.4367L56.4192 50.0065ZM56.9445 47.7301C56.9445 46.8196 57.3997 46.3469 57.9776 46.3469C58.5554 46.3469 59.0282 46.6795 59.0282 47.7477C59.0563 48.0981 58.9703 48.4482 58.783 48.7457C58.6928 48.8758 58.5723 48.982 58.4321 49.0554C58.2918 49.1287 58.1359 49.1671 57.9776 49.1671C57.8193 49.1671 57.6633 49.1287 57.5231 49.0554C57.3828 48.982 57.2624 48.8758 57.1721 48.7457C57.0116 48.4319 56.9332 48.0825 56.9445 47.7301ZM61.1119 47.0823C61.1119 46.7671 61.287 46.3469 62.0924 46.3469C62.8979 46.3469 63.0205 46.8896 63.0205 47.2924C62.6426 47.4017 62.2559 47.4779 61.8648 47.52C61.4446 47.52 60.3765 47.6951 60.3765 48.6932C60.3765 49.3236 60.8317 49.7788 61.6722 49.7788C62.1891 49.7817 62.6863 49.5803 63.0555 49.2185C63.0727 49.3834 63.1202 49.5437 63.1956 49.6913H63.861C63.6508 49.3236 63.6508 49.0784 63.6508 48.1154V47.2574C63.6508 46.592 63.6508 45.8215 62.1975 45.8215C60.7442 45.8215 60.5516 46.662 60.4465 46.9947L61.0769 47.0823H61.1119ZM63.0205 48.0278C63.0342 48.1891 63.0148 48.3515 62.9636 48.505C62.9125 48.6586 62.8305 48.8 62.7228 48.9209C62.6019 49.0368 62.4591 49.1274 62.3028 49.1876C62.1465 49.2477 61.9797 49.2761 61.8123 49.271C61.2344 49.271 61.0594 48.9558 61.0594 48.6757C61.0594 48.3955 61.5671 48.0979 61.9524 48.0453C62.3136 47.988 62.6704 47.9061 63.0205 47.8002V48.0278ZM64.6489 49.6913H65.2968V47.6251C65.2792 47.3623 65.3211 47.099 65.4193 46.8546C65.5112 46.7061 65.6404 46.5843 65.794 46.5014C65.9476 46.4184 66.1203 46.3772 66.2948 46.3819C67.0828 46.3819 67.0828 47.0647 67.0828 47.3974V49.6913H67.7307V47.3624C67.7685 47.0255 67.7076 46.6849 67.5556 46.3819C67.431 46.1975 67.2605 46.0488 67.0609 45.9505C66.8613 45.8523 66.6395 45.8078 66.4174 45.8215C66.184 45.816 65.9532 45.8713 65.7476 45.9818C65.5419 46.0923 65.3685 46.2543 65.2443 46.4519V45.9091H64.6664V49.6913H64.6489ZM70.5673 47.9403C70.5598 48.1627 70.6017 48.3839 70.6899 48.5882C70.9525 49.236 71.5304 49.7088 72.7911 49.7088C74.0518 49.7088 74.7172 49.0259 74.7172 48.1504C74.7172 47.2749 73.6141 46.7496 72.6685 46.5395C71.723 46.3293 71.4253 46.1717 71.4253 45.7165C71.4253 45.2612 72.1782 44.9286 72.616 44.9286C73.7016 44.9286 73.8592 45.5589 73.8942 45.9266H74.5596C74.5596 44.911 73.7191 44.3682 72.5985 44.3682C71.4778 44.3682 70.7599 44.9986 70.7599 45.8041C70.7599 46.6095 71.793 47.0998 72.5109 47.2574C73.5615 47.5025 74.0868 47.6426 74.0868 48.2555C74.0868 48.8683 73.509 49.1484 72.7911 49.1484C72.5187 49.1641 72.2468 49.1095 72.0015 48.9899C71.7562 48.8704 71.5458 48.6898 71.3903 48.4656C71.3031 48.3039 71.2551 48.1239 71.2502 47.9403H70.6023H70.5673ZM78.1842 48.413C78.129 48.6351 78.0004 48.832 77.8192 48.9719C77.638 49.1117 77.4149 49.1863 77.1861 49.1835C76.6258 49.1835 76.083 48.7983 76.0305 47.8878H78.8671C78.8671 45.8566 77.4663 45.7515 77.1161 45.7515C76.8623 45.7487 76.6109 45.801 76.3793 45.9049C76.1477 46.0088 75.9415 46.1619 75.7749 46.3534C75.6084 46.545 75.4855 46.7704 75.4147 47.0142C75.3439 47.258 75.327 47.5142 75.3651 47.7652C75.3379 48.0108 75.363 48.2593 75.4387 48.4945C75.5145 48.7297 75.6391 48.9463 75.8045 49.1298C75.9699 49.3134 76.1723 49.4599 76.3983 49.5597C76.6244 49.6595 76.869 49.7103 77.1161 49.7088C77.5079 49.7578 77.904 49.6595 78.2276 49.433C78.5511 49.2066 78.779 48.8681 78.8671 48.4831H78.2017L78.1842 48.413ZM76.0655 47.3624C76.07 47.0759 76.1858 46.8024 76.3884 46.5998C76.5911 46.3972 76.8646 46.2813 77.1511 46.2768C77.3532 46.2774 77.5509 46.3353 77.7214 46.4438C77.8918 46.5523 78.028 46.7069 78.1141 46.8897C78.1726 47.0404 78.2023 47.2008 78.2017 47.3624H76.0655ZM81.0208 49.1134H80.7407C80.3729 49.1134 80.373 48.8858 80.373 48.5882V46.4169H81.0208V45.9091H80.373V44.5959L79.7426 44.9811V45.9091H79.2698V46.4169H79.7426V48.5181C79.7426 49.1485 79.7426 49.6738 80.6356 49.6738C80.7928 49.6885 80.9511 49.6885 81.1084 49.6738L81.0208 49.0959V49.1134ZM84.1551 49.6913H84.7329V45.9091H84.0851V47.9403C84.0958 48.2084 84.0542 48.476 83.9625 48.7282C83.8729 48.88 83.7446 49.0053 83.5909 49.0914C83.4371 49.1775 83.2633 49.2214 83.087 49.2185C82.9316 49.2329 82.7757 49.1962 82.643 49.1141C82.5103 49.0319 82.408 48.9088 82.3516 48.7633C82.3177 48.5134 82.3177 48.2601 82.3516 48.0103V45.9091H81.7913V48.2555C81.7681 48.5861 81.8283 48.9172 81.9664 49.2185C82.0906 49.399 82.2585 49.5451 82.4545 49.6431C82.6505 49.7411 82.8681 49.7878 83.087 49.7788C83.3247 49.7838 83.5596 49.7266 83.7684 49.613C83.9772 49.4994 84.1528 49.3332 84.2777 49.131V49.6913H84.1551ZM85.7135 49.6913H86.3614V44.4383H85.7135V49.6913ZM89.8284 49.6913H90.5463V45.9091H89.8984V47.9403C89.9132 48.2102 89.8652 48.4799 89.7584 48.7282C89.6745 48.8811 89.5499 49.0078 89.3985 49.0944C89.2471 49.1809 89.0747 49.2238 88.9004 49.2185C88.7449 49.2329 88.5891 49.1962 88.4564 49.1141C88.3237 49.0319 88.2214 48.9088 88.1649 48.7633C88.1311 48.5134 88.1311 48.2601 88.1649 48.0103V45.9091H87.5171V48.2555C87.4939 48.5861 87.554 48.9172 87.6922 49.2185C87.8163 49.399 87.9843 49.5451 88.1803 49.6431C88.3763 49.7411 88.5939 49.7878 88.8128 49.7788C89.0505 49.7838 89.2854 49.7266 89.4942 49.613C89.703 49.4994 89.8786 49.3332 90.0035 49.131V49.6913H89.8284ZM91.1241 48.5706C91.1241 48.9383 91.3693 49.7788 92.7526 49.7788C93.7331 49.7788 94.2584 49.2185 94.2584 48.5882C94.2584 47.9578 93.7331 47.6426 92.7351 47.3974C92.1222 47.2398 91.8421 47.1698 91.8421 46.8372C91.8421 46.5045 92.4199 46.3469 92.665 46.3469C92.8596 46.3217 93.0564 46.3735 93.2134 46.4912C93.3704 46.6089 93.4752 46.7833 93.5055 46.9772L94.1183 46.8897C94.1183 46.592 93.9433 45.8215 92.63 45.8215C91.7195 45.8215 91.2292 46.3293 91.2292 46.9072C91.2292 47.485 91.9821 47.9053 92.5424 48.0453H92.9802C93.3479 48.1504 93.6106 48.2554 93.6106 48.5706C93.6106 48.8858 93.4004 49.166 92.7351 49.166C92.6192 49.1832 92.5009 49.1761 92.388 49.1449C92.275 49.1138 92.1698 49.0593 92.0792 48.9851C91.9885 48.9109 91.9143 48.8186 91.8614 48.7141C91.8085 48.6095 91.778 48.4951 91.772 48.378L91.1241 48.4831V48.5706ZM97.1651 49.6913H97.848V47.2398H100.562V49.6913H101.262V44.4383H100.562V46.5745H97.848V44.4383H97.1651V49.6913ZM102.856 47.0823C102.856 46.7671 103.031 46.3469 103.836 46.3469C104.642 46.3469 104.764 46.8896 104.764 47.2924C104.387 47.4017 104 47.4779 103.609 47.52C103.189 47.52 102.12 47.6951 102.12 48.6932C102.12 49.3236 102.576 49.7788 103.399 49.7788C103.658 49.7825 103.915 49.7349 104.155 49.6388C104.396 49.5426 104.615 49.3997 104.799 49.2185C104.817 49.3834 104.864 49.5437 104.94 49.6913H105.605C105.395 49.3236 105.395 49.0784 105.395 48.1154V47.2574C105.395 46.592 105.395 45.8215 103.924 45.8215C102.453 45.8215 102.296 46.662 102.173 46.9947L102.803 47.0823H102.856ZM104.764 48.0278C104.778 48.1891 104.759 48.3515 104.708 48.505C104.656 48.6586 104.575 48.8 104.467 48.9209C104.346 49.0368 104.203 49.1274 104.047 49.1876C103.89 49.2477 103.724 49.2761 103.556 49.271C102.978 49.271 102.803 48.9558 102.803 48.6757C102.803 48.3955 103.311 48.0979 103.696 48.0453C104.058 47.988 104.414 47.9061 104.764 47.8002V48.0278ZM107.776 49.1134H107.479C107.128 49.1134 107.128 48.8858 107.128 48.5882V46.4169H108.056V45.9091H107.409V44.5959L106.761 44.9811V45.9091H106.305V46.4169H106.761V48.5181C106.761 49.1485 106.761 49.6738 107.654 49.6738C107.817 49.6873 107.981 49.6873 108.144 49.6738L108.056 49.0959L107.776 49.1134ZM108.407 49.6913H109.054V45.9091H108.407V49.6913ZM108.407 45.2087H109.054V44.4733H108.407V45.2087Z" fill="#2B4C9B"/>
</g>
<defs>
<clipPath id="clip0_1172:30260">
<rect width="100" height="34.2322" fill="white" transform="translate(10 17)"/>
</clipPath>
</defs>
</svg>
