<svg width="120" height="68" viewBox="0 0 120 68" fill="none" xmlns="http://www.w3.org/2000/svg">
<g clip-path="url(#clip0_1172:30255)">
<path fill-rule="evenodd" clip-rule="evenodd" d="M30.0019 33.9519C29.8476 17.8681 43.1082 3.64641 60.6329 4.0067C76.6519 4.33589 90.015 17.0379 90 33.9888C89.9841 51.9443 75.2766 64.0946 59.8107 63.9994C43.4504 63.8988 29.824 50.4452 30.0019 33.9519ZM69.9732 30.093C69.9732 29.5337 69.9666 29.158 69.975 28.7831C70.0032 27.5237 69.6647 27.1497 68.4328 27.0911C67.006 27.023 66.9422 27.1311 66.7397 28.8568C66.1013 34.3018 65.4103 39.7405 64.786 45.187C64.4513 48.1157 63.9703 47.6459 67.14 47.6942C67.7232 47.7031 68.0035 47.4998 68.0691 46.8648C68.2444 45.1567 68.4957 43.4565 68.7207 41.7202C70.9716 43.0877 72.6469 43.211 74.5688 42.1886C78.5447 40.0747 80.7919 33.4148 78.9141 29.3123C78.1069 27.5489 76.5085 26.7041 74.5904 26.9761C72.6122 27.2564 71.3288 28.5615 69.9732 30.093ZM47.9269 27.3904C48.0141 24.3075 48.5897 23.6379 51.3769 23.3267C52.5835 23.1917 52.2685 22.1897 52.4447 21.4858C52.6397 20.7011 51.9413 20.771 51.525 20.6827C48.3488 20.0085 45.2269 22.3337 44.6213 25.7987C44.5332 26.3043 44.4497 26.811 44.3644 27.32C43.4325 27.5135 42.18 26.9418 42.1425 28.6265C42.1116 30.0443 43.245 29.779 44.0513 30.1416C43.8525 31.8246 43.6557 33.5092 43.455 35.1931C43.0482 38.6043 42.6282 42.0141 42.2532 45.4289C42.2232 45.6973 42.4482 46.2008 42.6469 46.2544C44.1057 46.6484 45.1313 46.0751 45.4697 44.5875C45.8916 42.7328 46.2413 40.8564 46.5066 38.9731C46.9219 36.0285 47.2407 33.0698 47.611 30.0242C48.5494 30.0242 49.4128 30.0026 50.2744 30.032C50.8294 30.0508 51.12 29.8629 51.1472 29.2803C51.1641 28.9008 51.2513 28.5242 51.3066 28.1462C51.3835 27.616 51.1669 27.3743 50.6185 27.3854C49.7222 27.4039 48.825 27.3904 47.9269 27.3904ZM51.3028 42.6108C52.2516 42.6108 53.0447 42.5712 53.8313 42.6224C54.5747 42.6708 54.8457 42.4171 54.9347 41.6474C55.6632 35.3705 56.4516 29.1002 57.2025 22.8257C57.5016 20.3268 57.4782 20.3864 55.0069 20.3329C53.8969 20.3088 53.881 20.9487 53.7919 21.6966C53.3325 25.5606 52.8582 29.4229 52.3969 33.2867C52.035 36.319 51.6853 39.3526 51.3028 42.6108ZM58.2694 42.6115C59.0682 42.6115 59.655 42.6117 60.2419 42.6115C61.8375 42.6106 61.8066 42.6071 61.9857 41.0683C62.4216 37.3114 62.9307 33.5627 63.33 29.8022C63.6553 26.7387 64.2929 27.2451 61.0369 27.1668C60.3385 27.15 60.0675 27.3874 59.9897 28.0916C59.6213 31.4024 59.2013 34.7075 58.8047 38.0155C58.6275 39.4875 58.4616 40.9608 58.2694 42.6115ZM64.5478 22.7482C64.5263 21.5179 63.4885 20.4797 62.2913 20.4907C61.1288 20.5016 60.0732 21.6039 60.0732 22.8069C60.0741 24.012 61.1363 25.1262 62.2875 25.1293C63.4922 25.1325 64.5694 23.9977 64.5478 22.7482Z" fill="#FD6542"/>
<path fill-rule="evenodd" clip-rule="evenodd" d="M75.9806 32.9035C75.8944 35.2294 75.4134 37.161 74.0194 38.7551C72.8878 40.049 71.2866 40.3877 69.8803 39.6003C69.5278 39.403 69.1125 38.8848 69.1284 38.5325C69.24 36.1147 69.6497 33.7541 71.2312 31.7928C71.6841 31.2315 72.1931 30.6719 72.7856 30.275C74.0766 29.411 75.3637 29.9202 75.7678 31.4102C75.9206 31.9723 75.9356 32.5718 75.9806 32.9035Z" fill="#FD6542"/>
</g>
<defs>
<clipPath id="clip0_1172:30255">
<rect width="60" height="60" fill="white" transform="translate(30 4)"/>
</clipPath>
</defs>
</svg>
