<svg width="120" height="68" viewBox="0 0 120 68" fill="none" xmlns="http://www.w3.org/2000/svg">
<path d="M34.4948 40.5646C34.6515 37.314 35.4825 34.2724 36.7524 31.3406C37.343 29.987 38.7227 28.9732 40.6093 29.5689C41.4246 29.825 42.2398 30.0968 43.029 30.4156C44.9522 31.1838 46.8911 31.1943 48.8456 30.5828C49.7811 30.2901 50.7061 29.9557 51.6311 29.6421C53.1258 29.1299 54.1971 29.4435 55.164 30.6925C56.1465 31.9677 56.5384 33.5094 56.9147 35.0093C57.3433 36.7026 57.5941 38.4429 57.8397 40.1779C57.9233 40.7841 57.824 41.4322 57.7091 42.0384C57.5471 42.885 56.9984 43.324 56.1674 43.1045C55.3417 42.885 54.401 42.5976 53.8313 42.0175C51.4169 39.5769 48.4432 39.1327 45.2344 39.2477C42.8513 39.3365 40.7399 40.0263 38.9735 41.6987C38.1635 42.4669 37.2385 43.0784 36.0469 43.1098C35.1846 43.1359 34.8136 42.8537 34.6411 42.0227C34.5941 41.798 34.5522 41.5733 34.5261 41.3433C34.5104 41.0663 34.5052 40.7946 34.4948 40.5646ZM40.0553 34.4762C39.4334 33.593 38.9108 33.3474 37.9597 33.5565C37.8238 33.5878 37.6461 33.7759 37.6252 33.9066C37.5781 34.2777 37.5677 34.6592 37.6252 35.025C37.6461 35.1661 37.8656 35.3594 38.0171 35.3908C38.8951 35.5528 39.6059 35.2863 40.0553 34.4762ZM40.4421 34.2097C40.5884 34.0268 40.7399 33.8334 40.902 33.6453C41.2207 33.2795 41.4977 32.1611 41.2155 31.9416C40.9385 31.7273 40.4682 31.7587 40.0867 31.6907C40.0083 31.6751 39.8933 31.6541 39.841 31.6959C39.679 31.8318 39.4439 31.9729 39.4073 32.1454C39.2244 33.0077 39.5797 33.661 40.4421 34.2097ZM40.3636 34.7637C39.6006 35.2131 39.2505 35.8664 39.4334 36.7391C39.47 36.9168 39.7313 37.1886 39.862 37.1729C40.3375 37.1207 40.9019 37.4656 41.2887 36.9325C41.2991 36.9168 41.2939 36.8907 41.2939 36.8698C41.4873 35.9291 41.1998 35.2811 40.3636 34.7637ZM40.6406 34.4867C40.7556 34.6121 40.8863 34.7166 40.9804 34.8525C41.4664 35.5633 42.2137 35.4013 42.846 35.2706C43.0081 35.2392 43.0133 34.4449 43.0917 34.0059C43.0969 33.985 43.1021 33.9536 43.0917 33.9432C42.9454 33.7864 42.8147 33.5355 42.6475 33.5042C41.78 33.3265 41.1058 33.6348 40.6406 34.4867ZM53.0631 36.2009C53.0683 35.7357 52.6816 35.3281 52.2112 35.3072C51.6939 35.2811 51.2967 35.6573 51.2914 36.1747C51.2862 36.6712 51.6416 37.0475 52.1224 37.0684C52.6241 37.0841 53.0526 36.6869 53.0631 36.2009ZM50.4135 35.349C50.9204 35.3386 51.2549 34.9936 51.2549 34.4815C51.2549 33.9641 50.8577 33.5721 50.356 33.5878C49.8804 33.6035 49.4989 34.0007 49.4937 34.4762C49.4884 34.9779 49.8909 35.3595 50.4135 35.349ZM51.213 32.7255C51.2235 33.2063 51.5998 33.5826 52.0806 33.593C52.5875 33.5982 52.9795 33.2011 52.969 32.6837C52.9638 32.2029 52.5823 31.8266 52.1015 31.8214C51.5945 31.8162 51.2026 32.2133 51.213 32.7255ZM54.7511 34.3979C54.7511 33.9066 54.3905 33.5512 53.8888 33.5408C53.3871 33.5303 52.969 33.938 52.9742 34.4292C52.9795 34.8943 53.3767 35.2863 53.8522 35.2967C54.3644 35.302 54.7511 34.9205 54.7511 34.3979Z" fill="#CF1203"/>
<path d="M83.8866 39.0073C84.3517 39.462 84.7855 39.88 85.2192 40.3034C84.4667 41.0455 83.7194 41.7928 82.9407 42.561C82.5017 42.1795 82.0627 41.7615 81.5871 41.3904C81.4408 41.2754 81.1533 41.1813 81.007 41.2441C76.915 43.0889 72.0338 40.6378 70.8266 35.8194C69.7605 31.5601 72.1854 27.1336 76.1938 26.0152C80.2597 24.8759 84.4719 27.5099 85.4492 31.811C86.045 34.4188 85.4962 36.781 83.8866 39.0073ZM74.072 33.7185C74.1451 34.2306 74.1765 34.7794 74.3019 35.302C74.7775 37.3036 76.3506 38.6728 78.1431 38.6728C79.8782 38.6728 81.4094 37.3611 81.9425 35.4065C82.2508 34.2724 82.2247 33.1331 81.9425 31.9991C81.4512 30.0445 80.0402 28.9157 78.1274 28.9261C76.1938 28.9314 74.7618 30.102 74.3124 32.0775C74.1869 32.6001 74.1504 33.1488 74.072 33.7185Z" fill="#494949"/>
<path d="M17.4577 41.5838C17.0814 41.7144 16.7155 41.8555 16.3445 41.96C14.2331 42.5506 12.2002 41.7562 11.202 39.7964C9.96864 37.3767 10.0418 34.8996 11.4058 32.5531C12.5347 30.6142 14.3377 29.9609 16.5117 30.5253C16.8148 30.6037 17.1127 30.6978 17.2904 30.7501C17.5622 30.6089 17.7451 30.4313 17.9332 30.426C18.8896 30.3999 19.8512 30.4104 20.8337 30.4104C20.8598 30.5097 20.9016 30.5828 20.9016 30.656C20.8964 34.3979 20.9278 38.1345 20.8703 41.8764C20.8389 44.0191 20.0602 45.843 17.9384 46.7106C15.6755 47.6304 13.5067 47.3743 11.5992 45.7647C11.0191 45.2734 10.554 44.6567 10 44.0557C10.7317 43.5592 11.3692 43.1307 12.0173 42.6917C12.8953 43.6585 13.9875 44.04 15.2366 44.0191C16.7051 43.993 17.5151 43.1202 17.4577 41.5838ZM17.5256 36.112C17.5256 35.5476 17.5413 34.9832 17.5151 34.4188C17.5099 34.2515 17.4524 34.0164 17.3374 33.9328C16.2818 33.1854 14.3324 33.013 13.7785 34.9048C13.4858 35.8978 13.5224 36.8855 13.836 37.8628C14.0659 38.5788 14.5729 38.9498 15.3097 39.0282C16.5954 39.1693 17.5256 38.3697 17.5256 37.1102C17.5256 36.781 17.5256 36.4465 17.5256 36.112Z" fill="#494949"/>
<path d="M32.1064 41.8242C31.0403 41.9653 30.0107 42.1012 28.9655 42.2423C28.8766 41.9862 28.8035 41.7771 28.7565 41.6465C27.7635 41.7562 26.8176 41.9496 25.8664 41.9548C23.9693 41.9705 22.7569 40.9828 22.344 39.2111C21.9207 37.3924 22.6472 35.6156 24.3091 34.9205C25.3072 34.5076 26.4413 34.4188 27.5179 34.1993C27.7374 34.1575 27.9725 34.1941 28.2182 34.1941C28.354 33.6506 28.0875 33.4049 27.6381 33.3527C26.5667 33.2168 25.6103 33.4624 24.8212 34.3038C24.0059 33.7812 23.1907 33.2586 22.3754 32.7308C23.9119 30.4156 27.2095 29.5115 29.624 30.703C30.6483 31.21 31.218 32.0566 31.38 33.1436C31.542 34.2359 31.6047 35.3438 31.6935 36.4465C31.8399 38.2182 31.9705 39.9846 32.1064 41.8242ZM28.4742 36.6608C27.497 37.0005 26.6294 37.2566 25.7985 37.6172C25.5842 37.7112 25.3543 38.1345 25.3961 38.3593C25.4379 38.5787 25.8142 38.8923 26.0441 38.8923C26.8071 38.8871 27.5649 38.7669 28.3227 38.6519C28.4115 38.6363 28.537 38.4115 28.537 38.2861C28.5474 37.8262 28.5056 37.3715 28.4742 36.6608Z" fill="#494949"/>
<path d="M69.635 37.1259C67.2571 37.1259 64.9472 37.1259 62.632 37.1259C62.8201 39.023 65.2189 39.5299 67.555 38.1711C68.0933 38.8349 68.6368 39.509 69.2378 40.2512C67.7483 41.5786 66.076 42.3102 64.0953 42.0175C61.1269 41.5786 59.1357 39.0282 59.3082 35.9448C59.3448 35.2602 59.4284 34.5652 59.5956 33.9067C60.2959 31.1212 62.355 29.7414 65.198 30.0968C67.8424 30.4261 69.358 32.0305 69.635 34.8526C69.6924 35.5738 69.635 36.3107 69.635 37.1259ZM66.3791 34.7062C66.2589 33.5774 65.7468 33.0966 64.7224 33.0862C63.6197 33.0757 62.8254 33.7081 62.7156 34.7062C63.9176 34.7062 65.1248 34.7062 66.3791 34.7062Z" fill="#494949"/>
<path d="M104.509 30.0551C107.561 30.1543 109.902 32.5897 109.996 35.8455C110.043 37.3559 109.657 38.7408 108.726 39.9481C106.641 42.6447 102.711 42.744 100.479 40.1623C97.8089 37.0737 98.9116 31.9364 102.575 30.5202C103.192 30.285 103.861 30.2066 104.509 30.0551ZM102.115 36.0651C102.293 36.6399 102.392 37.1782 102.617 37.659C102.983 38.4325 103.641 38.8871 104.509 38.8819C105.376 38.8767 106.024 38.4325 106.416 37.6643C107.002 36.5145 106.976 35.3543 106.265 34.2725C105.366 32.9033 103.505 32.9503 102.695 34.3718C102.408 34.884 102.309 35.4954 102.115 36.0651Z" fill="#494949"/>
<path d="M97.9814 36.1068C97.9814 37.9987 97.3386 39.624 95.8596 40.8469C93.649 42.676 90.3879 42.3625 88.4908 40.1571C86.5206 37.868 86.5467 34.0791 88.564 31.9259C90.1475 30.2379 92.0968 29.6996 94.2709 30.4418C96.5913 31.2361 97.6835 33.06 97.9814 35.417C98.0075 35.6417 97.9814 35.8769 97.9814 36.1068ZM90.2416 36.0128C90.2416 36.1591 90.2259 36.3054 90.2416 36.4518C90.3827 37.8001 91.2345 38.7774 92.3581 38.8819C93.4086 38.976 94.3911 38.2077 94.6994 37.0319C94.7674 36.7705 94.8092 36.4988 94.8196 36.2323C94.898 34.6435 93.8841 33.3266 92.5619 33.2952C91.2763 33.2586 90.2677 34.4345 90.2416 36.0128Z" fill="#494949"/>
<path d="M46.4626 20C49.3056 20.1829 51.6887 21.2072 53.6171 23.2715C53.9986 23.6791 53.9254 23.9823 53.5857 24.3324C53.2304 24.7035 52.9063 24.6355 52.5666 24.3011C51.2601 23.0154 49.7655 22.0643 47.9311 21.7298C45.2397 21.2386 42.8931 21.9807 40.8184 23.6896C40.6093 23.8621 40.4055 24.045 40.2226 24.2488C39.8724 24.6407 39.538 24.7192 39.1094 24.3377C38.6443 23.9248 38.8429 23.5956 39.1565 23.2297C40.74 21.3954 42.82 20.5226 45.1456 20.1411C45.6002 20.0679 46.0602 20.0418 46.4626 20Z" fill="#CF1607"/>
<path d="M52.0387 26.0936C51.8088 26.3706 51.6467 26.7416 51.3854 26.8253C51.1503 26.8984 50.7479 26.726 50.544 26.5274C49.3211 25.362 47.9049 24.7035 46.2064 24.761C44.6699 24.8132 43.3216 25.362 42.2398 26.4908C41.8948 26.8514 41.5186 27.1127 41.0691 26.658C40.719 26.2974 40.6615 25.9264 41.0325 25.503C42.9976 23.2558 46.614 22.4771 49.2793 23.8255C50.0894 24.2331 50.8054 24.8341 51.5318 25.3829C51.7408 25.524 51.8453 25.8009 52.0387 26.0936Z" fill="#CF1607"/>
<path d="M46.6925 27.7503C45.4852 27.7816 44.764 28.0952 44.163 28.7067C43.8651 29.0098 43.5568 29.3651 43.1178 28.9209C42.7102 28.5133 42.8095 28.043 43.1649 27.6928C45.1299 25.7644 47.675 25.7905 49.6504 27.766C49.9954 28.1109 49.9849 28.5133 49.6191 28.8687C49.2742 29.2032 48.9815 29.1248 48.6575 28.806C48.0251 28.1788 47.2987 27.7085 46.6925 27.7503Z" fill="#CF1607"/>
<path d="M40.0553 34.4763C39.6059 35.2863 38.8951 35.5528 38.0171 35.3908C37.8656 35.3647 37.6461 35.1661 37.6252 35.025C37.5677 34.6592 37.5781 34.2725 37.6252 33.9066C37.6408 33.776 37.8238 33.5826 37.9596 33.5565C38.9108 33.3527 39.4334 33.5931 40.0553 34.4763Z" fill="#FCF6F5"/>
<path d="M40.4421 34.2098C39.5746 33.661 39.2192 33.0078 39.4073 32.1455C39.4439 31.973 39.6791 31.8319 39.8411 31.696C39.8881 31.6542 40.0031 31.6751 40.0867 31.6908C40.4735 31.7587 40.9386 31.7274 41.2156 31.9416C41.503 32.1611 41.2208 33.2795 40.902 33.6453C40.74 33.8335 40.5937 34.0321 40.4421 34.2098Z" fill="#FCF7F7"/>
<path d="M40.3636 34.7637C41.1998 35.2811 41.4925 35.9291 41.2991 36.8646C41.2939 36.8855 41.3043 36.9116 41.2939 36.9273C40.9019 37.4656 40.3427 37.1155 39.8672 37.1677C39.7365 37.1834 39.4752 36.9116 39.4386 36.734C39.2505 35.8664 39.6006 35.2132 40.3636 34.7637Z" fill="#FDF8F8"/>
<path d="M40.6407 34.4867C41.1058 33.6401 41.78 33.3265 42.6423 33.4989C42.8148 33.5303 42.9402 33.7864 43.0865 33.938C43.0969 33.9484 43.0917 33.9798 43.0865 34.0007C43.0081 34.4449 43.0029 35.234 42.8409 35.2654C42.2138 35.396 41.4664 35.558 40.9752 34.8473C40.8863 34.7166 40.7557 34.6069 40.6407 34.4867Z" fill="#FDF8F8"/>
<path d="M53.063 36.201C53.0526 36.687 52.6292 37.0842 52.1223 37.0685C51.6415 37.0528 51.2914 36.6713 51.2914 36.1748C51.2966 35.6574 51.6938 35.2812 52.2112 35.3073C52.6815 35.3282 53.0683 35.7359 53.063 36.201Z" fill="#FCF4F3"/>
<path d="M50.4135 35.3491C49.8909 35.3596 49.4937 34.9833 49.4937 34.4763C49.4937 34.0008 49.8805 33.6036 50.356 33.5879C50.863 33.5722 51.2549 33.9642 51.2549 34.4816C51.2549 34.9885 50.9204 35.3387 50.4135 35.3491Z" fill="#FCF5F4"/>
<path d="M51.213 32.7255C51.2025 32.2133 51.5945 31.8162 52.1014 31.8214C52.5822 31.8266 52.9637 32.2029 52.969 32.6837C52.9794 33.2011 52.5875 33.5983 52.0805 33.593C51.5997 33.5826 51.2182 33.2063 51.213 32.7255Z" fill="#FCF4F3"/>
<path d="M54.7511 34.398C54.7511 34.9206 54.3643 35.3021 53.8522 35.2968C53.3818 35.2864 52.9846 34.8944 52.9742 34.4293C52.9689 33.9381 53.387 33.5357 53.8887 33.5409C54.3904 33.5461 54.7511 33.9067 54.7511 34.398Z" fill="#FCF6F5"/>
</svg>
