<svg width="120" height="68" viewBox="0 0 120 68" fill="none" xmlns="http://www.w3.org/2000/svg">
<path d="M58.9285 25.0722C58.958 25.0659 58.9738 25.0596 58.9895 25.0596C60.9325 25.0585 62.8765 25.0028 64.8163 25.0732C66.8613 25.1479 68.5856 25.9375 69.7306 27.7196C70.4949 28.9098 70.7315 30.2387 70.6106 31.6255C70.4318 33.6799 69.4635 35.2591 67.6498 36.2832C66.6731 36.8352 65.6049 37.0886 64.4904 37.0991C62.6652 37.1169 60.84 37.1043 59.0148 37.1033C58.9906 37.1033 58.9664 37.098 58.9275 37.0938C58.9285 33.0912 58.9285 29.0896 58.9285 25.0722ZM61.8514 34.3749C62.8271 34.3749 63.7965 34.4338 64.7554 34.3591C65.874 34.2719 66.7635 33.7262 67.2987 32.7042C67.6562 32.0219 67.7255 31.2901 67.6509 30.5289C67.5195 29.1926 66.6784 28.1717 65.3641 27.892C64.8279 27.7785 64.2654 27.7785 63.7134 27.7606C63.0952 27.7396 62.4759 27.7553 61.8514 27.7553C61.8514 29.978 61.8514 32.1754 61.8514 34.3749Z" fill="#010101"/>
<path d="M40.7857 25.0649C40.8225 25.0585 40.8467 25.0501 40.8709 25.0501C42.8559 25.0491 44.8409 25.0228 46.8239 25.0575C48.8541 25.0932 50.5426 26.6398 50.8381 28.6648C51.0578 30.1652 50.7929 31.5414 49.752 32.6959C49.4807 32.9966 49.1369 33.231 48.8036 33.5149C49.5995 34.6798 50.4154 35.8742 51.2565 37.1044C51.1546 37.1044 51.0841 37.1044 51.0137 37.1044C49.9455 37.1044 48.8772 37.1012 47.8101 37.1075C47.6671 37.1086 47.5872 37.0654 47.5136 36.9414C46.9868 36.0561 46.4475 35.1771 45.9218 34.2908C45.8366 34.1478 45.7462 34.0995 45.5832 34.1016C44.964 34.111 44.3436 34.1058 43.7044 34.1058C43.7044 35.1109 43.7044 36.0898 43.7044 37.0865C42.7224 37.0865 41.7614 37.0865 40.7847 37.0865C40.7857 33.0912 40.7857 29.0885 40.7857 25.0649ZM43.7075 31.4037C44.5855 31.4037 45.4423 31.4321 46.2961 31.3963C47.2728 31.3553 48.0088 30.4879 47.9699 29.4902C47.9331 28.5218 47.1435 27.7596 46.1731 27.7564C45.4339 27.7543 44.6948 27.7554 43.9557 27.7564C43.8747 27.7564 43.7948 27.7638 43.7065 27.768C43.7075 28.9887 43.7075 30.1862 43.7075 31.4037Z" fill="#010101"/>
<path d="M32.3578 32.4162C32.3578 31.6823 32.3578 30.9726 32.3578 30.2513C34.3554 30.2513 36.3457 30.2513 38.3654 30.2513C38.3654 30.3449 38.3654 30.4343 38.3654 30.5237C38.3654 31.7664 38.3581 33.0102 38.3717 34.2529C38.3738 34.4937 38.2929 34.6672 38.1404 34.8354C37.0312 36.054 35.6644 36.8068 34.0326 37.0328C32.2873 37.2746 30.6366 36.976 29.2025 35.9141C27.3006 34.5063 26.4511 32.577 26.798 30.2429C27.1576 27.8226 28.6033 26.174 30.9216 25.4381C33.4008 24.6506 35.6833 25.1163 37.6221 26.9258C37.846 27.135 38.0342 27.3831 38.2571 27.6334C37.4255 28.0539 36.6296 28.4577 35.7927 28.8824C35.6791 28.7573 35.574 28.6143 35.4436 28.5008C34.8906 28.015 34.2219 27.8174 33.5048 27.7522C32.3872 27.6512 31.3526 27.8573 30.5284 28.6753C29.5926 29.6037 29.3445 30.7402 29.6883 31.9882C30.0353 33.2478 30.8785 34.0721 32.1464 34.3675C33.4302 34.6672 34.6498 34.4474 35.7201 33.6316C35.8021 33.5685 35.861 33.4297 35.8684 33.3214C35.8884 33.0291 35.8757 32.7347 35.8757 32.4172C34.7024 32.4162 33.5374 32.4162 32.3578 32.4162Z" fill="#010101"/>
<path d="M16.8035 39.6013C18.2933 37.8161 19.7653 36.0518 21.2393 34.2865C21.9395 35.1781 21.9627 36.6301 21.2561 37.6468C20.9123 38.1409 20.5012 38.5888 20.1143 39.0535C19.0682 40.3121 18.0178 41.5685 16.9696 42.8259C16.917 42.889 16.8603 42.9479 16.7951 43.0204C16.037 42.0816 15.2874 41.1542 14.5398 40.2279C13.1793 38.5436 11.8199 36.8572 10.4562 35.175C9.85693 34.4358 9.84327 33.4906 10.4436 32.7515C10.881 32.2132 11.331 31.6854 11.8136 31.1071C11.8136 31.2259 11.8262 31.2901 11.8115 31.3458C11.5402 32.4298 11.7663 33.3918 12.476 34.2613C13.8943 35.9971 15.2947 37.7467 16.7036 39.4899C16.7309 39.5214 16.7593 39.5519 16.8035 39.6013Z" fill="#010101"/>
<path d="M56.2286 25.0648C56.2286 29.0822 56.2286 33.0838 56.2286 37.0949C55.2561 37.0949 54.2941 37.0949 53.3215 37.0949C53.3215 33.0827 53.3215 29.0811 53.3215 25.0648C54.2867 25.0648 55.2487 25.0648 56.2286 25.0648Z" fill="black"/>
<path d="M21.7135 37.0475C22.0709 35.8857 21.8975 34.8837 21.1899 33.9816C20.8787 33.5853 20.5538 33.2015 20.2373 32.8093C19.8914 32.3804 19.6506 32.3762 19.2921 32.8051C17.9737 34.3833 16.6573 35.9635 15.3168 37.57C14.8479 36.9907 14.3874 36.4209 13.9111 35.8321C14.3285 35.3327 14.7396 34.8385 15.1517 34.3444C16.3829 32.8682 17.6162 31.3931 18.8453 29.9149C19.0398 29.6814 19.2669 29.5017 19.5718 29.4564C19.9734 29.3965 20.3267 29.508 20.5864 29.8265C21.4664 30.9063 22.3443 31.9893 23.2127 33.0785C23.7206 33.7146 23.7353 34.6545 23.2359 35.3001C22.8048 35.8573 22.339 36.3883 21.8859 36.9287C21.8543 36.9676 21.7997 36.9897 21.7135 37.0475Z" fill="#020202"/>
<path d="M44.4215 38.4227C44.8799 38.4227 45.3152 38.4227 45.7715 38.4227C46.0291 39.2722 46.2877 40.1239 46.5632 41.0291C46.8639 40.127 47.1436 39.2848 47.4359 38.408C47.7639 38.408 48.1056 38.3996 48.4462 38.4164C48.5009 38.4196 48.5735 38.5289 48.5987 38.6014C48.8458 39.3301 49.0844 40.0608 49.3263 40.7904C49.3473 40.8535 49.3715 40.9156 49.4104 41.0217C49.6795 40.1344 49.9361 39.287 50.1958 38.428C50.6268 38.428 51.06 38.428 51.5226 38.428C51.347 38.9516 51.1725 39.4646 51.0022 39.9788C50.6899 40.9229 50.3766 41.8671 50.0696 42.8133C50.0191 42.9679 49.956 43.0467 49.7731 43.0331C49.4892 43.0131 49.2022 43.0278 48.8857 43.0278C48.5892 42.1835 48.2906 41.3351 47.9752 40.4382C47.93 40.5497 47.8964 40.6212 47.8711 40.6958C47.6272 41.3992 47.3801 42.1015 47.1467 42.8091C47.0899 42.9815 47.0058 43.0425 46.8239 43.032C46.5401 43.0152 46.2541 43.0278 45.9523 43.0278C45.4414 41.4949 44.9335 39.9651 44.4215 38.4227Z" fill="#020202"/>
<path d="M16.8077 25.1437C17.1042 25.5127 17.3975 25.8586 17.6699 26.2193C17.9621 26.6072 17.9611 27.156 17.6509 27.5293C15.893 29.6468 14.1267 31.7569 12.3477 33.8902C11.8683 33.1448 11.7179 32.3562 11.9061 31.5046C12.0071 31.0462 12.21 30.634 12.5086 30.2755C13.9143 28.5859 15.3253 26.8995 16.7341 25.212C16.7488 25.1931 16.7699 25.1784 16.8077 25.1437Z" fill="#020202"/>
<path d="M29.7903 40.8032C29.7903 39.9757 29.7903 39.2134 29.7903 38.4333C30.2046 38.4333 30.6125 38.4333 31.0383 38.4333C31.0383 39.9337 31.0383 41.4477 31.0383 42.9943C30.705 42.9943 30.3633 43.0037 30.0227 42.9869C29.9512 42.9837 29.8713 42.8954 29.8176 42.8292C29.273 42.1363 28.7337 41.4403 28.1922 40.7453C28.148 40.6886 28.1007 40.6328 28.0082 40.5193C28.0082 41.3846 28.0082 42.1815 28.0082 42.9858C27.5729 42.9858 27.1723 42.9858 26.756 42.9858C26.756 41.4634 26.756 39.9484 26.756 38.4154C27.1156 38.4154 27.4678 38.4039 27.8189 38.4238C27.9062 38.4291 28.0071 38.5164 28.0681 38.5931C28.6327 39.3091 29.191 40.0325 29.7903 40.8032Z" fill="#010101"/>
<path d="M64.3044 42.9942C63.8102 42.9942 63.3676 42.9995 62.926 42.9879C62.8619 42.9858 62.783 42.9154 62.741 42.8555C62.5296 42.5537 62.3025 42.2583 62.1301 41.9334C61.9566 41.6075 61.719 41.5349 61.3657 41.6285C61.3657 42.0701 61.3657 42.5201 61.3657 42.9816C60.9315 42.9816 60.5236 42.9816 60.0999 42.9816C60.0999 41.4687 60.0999 39.961 60.0999 38.4459C60.1041 38.4428 60.1167 38.4228 60.1293 38.4228C61.003 38.4344 61.8788 38.4091 62.7494 38.4701C63.4927 38.5227 64.0005 38.9968 64.113 39.6098C64.2592 40.4047 64.0068 40.9503 63.3024 41.3593C63.2803 41.3719 63.2614 41.3888 63.2288 41.414C63.5779 41.9281 63.928 42.4412 64.3044 42.9942ZM61.3668 40.6297C61.7589 40.6013 62.148 40.5992 62.5275 40.5361C62.7683 40.4961 62.8682 40.2859 62.8587 40.0398C62.8492 39.7907 62.7199 39.6088 62.4802 39.5772C62.1133 39.5289 61.7411 39.5278 61.3668 39.5068C61.3668 39.8937 61.3668 40.228 61.3668 40.6297Z" fill="#030303"/>
<path d="M53.0597 40.7179C53.0597 39.3658 54.1237 38.3281 55.5136 38.3228C56.9036 38.3176 57.9844 39.3616 57.9802 40.7042C57.976 42.049 56.8994 43.0825 55.5052 43.0783C54.1069 43.0751 53.0597 42.0637 53.0597 40.7179ZM54.3634 40.6916C54.3603 41.3792 54.8733 41.9312 55.5168 41.9344C56.1634 41.9386 56.6933 41.3792 56.6838 40.7042C56.6744 40.0187 56.1592 39.4815 55.5094 39.4815C54.8607 39.4815 54.3666 40.004 54.3634 40.6916Z" fill="#020202"/>
<path d="M34.4385 41.1837C34.4385 41.4318 34.4385 41.6547 34.4385 41.8955C35.2407 41.8955 36.0355 41.8955 36.8493 41.8955C36.8493 42.2666 36.8493 42.6199 36.8493 42.9847C35.6266 42.9847 34.4122 42.9847 33.1821 42.9847C33.1821 41.4644 33.1821 39.9515 33.1821 38.4269C34.3933 38.4269 35.6003 38.4269 36.8209 38.4269C36.8209 38.7844 36.8209 39.1408 36.8209 39.5183C36.0208 39.5183 35.2354 39.5183 34.4395 39.5183C34.4395 39.7443 34.4395 39.9504 34.4395 40.1733C35.1555 40.1733 35.8663 40.1733 36.5928 40.1733C36.5928 40.5129 36.5928 40.8357 36.5928 41.1847C35.882 41.1837 35.165 41.1837 34.4385 41.1837Z" fill="#020202"/>
<path d="M70.5938 38.4154C69.9966 39.0935 69.4331 39.7338 68.859 40.3868C69.4499 41.2478 70.0355 42.1005 70.6485 42.9942C70.1312 42.9942 69.657 42.9995 69.1839 42.9868C69.1229 42.9847 69.0504 42.8996 69.0073 42.8365C68.6645 42.3392 68.327 41.8387 67.9758 41.3204C67.7193 41.5717 67.4312 41.7788 67.4964 42.2099C67.5332 42.4559 67.5027 42.7114 67.5027 42.9784C67.0822 42.9784 66.6742 42.9784 66.2495 42.9784C66.2495 41.4686 66.2495 39.9536 66.2495 38.427C66.6563 38.427 67.0643 38.427 67.489 38.427C67.489 39.0105 67.489 39.5951 67.489 40.2553C67.591 40.147 67.652 40.0892 67.7056 40.0251C68.1136 39.5456 68.5247 39.0683 68.9252 38.5826C69.0251 38.4616 69.1219 38.4059 69.2838 38.4101C69.7022 38.4238 70.1217 38.4154 70.5938 38.4154Z" fill="#020202"/>
<path d="M73.5618 22C73.7153 22 73.8478 22 73.9961 22C73.9961 30.0516 73.9961 38.0947 73.9961 46.1536C73.8604 46.1536 73.7216 46.1536 73.5618 46.1536C73.5618 38.1126 73.5618 30.0642 73.5618 22Z" fill="black"/>
<path d="M41.3598 39.5246C41.3598 40.6959 41.3598 41.8345 41.3598 42.9827C40.9277 42.9827 40.5198 42.9827 40.0866 42.9827C40.0866 41.8387 40.0866 40.7011 40.0866 39.5383C39.6219 39.5383 39.1813 39.5383 38.7303 39.5383C38.7303 39.1556 38.7303 38.7992 38.7303 38.4291C40.0561 38.4291 41.3798 38.4291 42.713 38.4291C42.713 38.795 42.713 39.1514 42.713 39.5257C42.2703 39.5246 41.8361 39.5246 41.3598 39.5246Z" fill="black"/>
<path d="M100.574 41.9901C100.574 40.8431 100.574 39.696 100.574 38.5374C100.744 38.5374 100.892 38.5374 101.06 38.5374C101.06 40.0156 101.06 41.497 101.06 42.9837C100.815 43.0468 100.64 42.9879 100.47 42.7671C99.6301 41.6758 98.7711 40.6002 97.9184 39.5194C97.888 39.4815 97.8554 39.4447 97.7944 39.3722C97.7944 40.6012 97.7944 41.7862 97.7944 42.9869C97.6188 42.9869 97.4632 42.9869 97.2918 42.9869C97.2918 41.5096 97.2918 40.0282 97.2918 38.5489C97.5936 38.4732 97.8028 38.5405 98.0026 38.8034C98.7743 39.8201 99.5744 40.8136 100.364 41.8167C100.414 41.8808 100.468 41.9418 100.52 42.0048C100.539 41.9996 100.556 41.9954 100.574 41.9901Z" fill="#050505"/>
<path d="M76.8937 31.8599C77.6991 31.8599 78.4855 31.799 79.2583 31.8757C80.1636 31.9651 80.643 32.7757 80.3717 33.5937C80.2403 33.9922 79.9543 34.2298 79.5779 34.378C79.4781 34.4169 79.3729 34.4432 79.2404 34.4842C79.6925 35.0867 80.132 35.6712 80.6031 36.2989C80.3886 36.2989 80.2151 36.3115 80.0458 36.2926C79.9785 36.2853 79.9039 36.2169 79.8587 36.157C79.4928 35.6765 79.1353 35.1887 78.7684 34.7092C78.719 34.644 78.6296 34.5704 78.557 34.5683C78.1796 34.5536 77.8021 34.562 77.4005 34.562C77.4005 35.1445 77.4005 35.7112 77.4005 36.2884C77.2197 36.2884 77.0641 36.2884 76.8937 36.2884C76.8937 34.807 76.8937 33.3256 76.8937 31.8599ZM77.3931 34.0815C77.9472 34.0815 78.4761 34.1036 79.0018 34.0752C79.5674 34.0447 79.9196 33.6557 79.9081 33.1363C79.8976 32.6737 79.5275 32.3394 78.9755 32.3131C78.6822 32.2994 78.3888 32.3089 78.0944 32.3089C77.8642 32.3089 77.6339 32.3089 77.3931 32.3089C77.3931 32.8493 77.3931 33.3519 77.3931 33.8534C77.3931 33.9186 77.3931 33.9848 77.3931 34.0815Z" fill="#050505"/>
<path d="M85.2576 27.3568C85.2534 28.6805 84.264 29.6741 82.9519 29.672C81.6566 29.6699 80.6567 28.6658 80.6756 27.3589C80.6956 25.8996 81.8332 25.0059 83.0349 25.0427C84.2935 25.0795 85.2618 26.0573 85.2576 27.3568ZM84.7098 27.3726C84.7098 26.316 83.9623 25.5211 82.9666 25.5201C81.9741 25.519 81.2213 26.3033 81.2202 27.34C81.2192 28.3904 81.9741 29.1894 82.9687 29.1894C83.9696 29.1915 84.7098 28.4187 84.7098 27.3726Z" fill="#060606"/>
<path d="M86.6286 42.9532C86.6286 41.5054 86.6286 40.0313 86.6286 38.5184C87.414 38.5657 88.2057 38.4143 88.9774 38.633C90.0225 38.9295 90.6218 39.8211 90.5587 40.9439C90.5019 41.947 89.7491 42.8186 88.7177 42.9384C88.0343 43.0183 87.333 42.9532 86.6286 42.9532ZM87.1532 38.9642C87.1532 40.1869 87.1532 41.3466 87.1532 42.4989C87.6169 42.4989 88.0637 42.5305 88.5043 42.4926C89.3464 42.4201 89.9647 41.7577 90.0246 40.9145C90.0877 40.0187 89.5714 39.2459 88.723 39.0809C88.2183 38.982 87.6916 38.9999 87.1532 38.9642Z" fill="#060606"/>
<path d="M107.264 40.9828C107.264 41.5138 107.264 42.0143 107.264 42.5357C108.177 42.5357 109.081 42.5357 110 42.5357C110 42.6924 110 42.8312 110 42.9868C108.922 42.9868 107.843 42.9868 106.746 42.9868C106.746 41.5127 106.746 40.0324 106.746 38.5373C107.815 38.5373 108.878 38.5373 109.961 38.5373C109.961 38.6803 109.961 38.8254 109.961 38.9873C109.073 38.9873 108.183 38.9873 107.275 38.9873C107.275 39.493 107.275 39.9819 107.275 40.4981C108.07 40.4981 108.871 40.4981 109.682 40.4981C109.682 40.6727 109.682 40.8209 109.682 40.9828C108.881 40.9828 108.085 40.9828 107.264 40.9828Z" fill="#0D0D0D"/>
<path d="M81.3569 36.2832C81.3569 34.7923 81.3569 33.3172 81.3569 31.8306C82.4336 31.8306 83.4976 31.8306 84.5784 31.8306C84.5784 31.9736 84.5784 32.1123 84.5784 32.2764C83.691 32.2764 82.7963 32.2764 81.8858 32.2764C81.8858 32.7926 81.8858 33.2825 81.8858 33.7956C82.6838 33.7956 83.4776 33.7956 84.2861 33.7956C84.2861 33.9628 84.2861 34.11 84.2861 34.2751C83.4934 34.2751 82.6975 34.2751 81.8868 34.2751C81.8868 34.7997 81.8868 35.3065 81.8868 35.8332C82.7942 35.8332 83.6984 35.8332 84.6163 35.8332C84.6163 35.9909 84.6163 36.1287 84.6163 36.2832C83.5344 36.2832 82.4535 36.2832 81.3569 36.2832Z" fill="#0D0D0D"/>
<path d="M93.1871 38.5363C94.2596 38.5363 95.3225 38.5363 96.3991 38.5363C96.3991 38.6825 96.3991 38.8223 96.3991 38.9832C95.5055 38.9832 94.6097 38.9832 93.7002 38.9832C93.7002 39.4952 93.7002 39.9872 93.7002 40.5003C94.4951 40.5003 95.2889 40.5003 96.0995 40.5003C96.0995 40.6664 96.0995 40.8126 96.0995 40.9755C95.312 40.9755 94.5161 40.9755 93.7034 40.9755C93.7034 41.4981 93.7034 42.0049 93.7034 42.5358C94.6055 42.5358 95.5097 42.5358 96.4254 42.5358C96.4254 42.6988 96.4254 42.8376 96.4254 42.99C95.3467 42.99 94.2743 42.99 93.1882 42.99C93.1871 41.5086 93.1871 40.0282 93.1871 38.5363Z" fill="#020202"/>
<path d="M95.9113 25.1268C95.9113 25.7798 95.9113 26.4232 95.9113 27.0814C96.7777 27.0814 97.6209 27.0814 98.4852 27.0814C98.4852 26.4337 98.4852 25.7903 98.4852 25.131C98.6607 25.131 98.8174 25.131 98.9919 25.131C98.9919 26.6083 98.9919 28.0897 98.9919 29.5826C98.8332 29.5826 98.6765 29.5826 98.4925 29.5826C98.4925 28.9255 98.4925 28.2674 98.4925 27.6029C98.4347 27.5955 98.4031 27.5871 98.3716 27.5871C97.5652 27.5861 96.7588 27.5861 95.925 27.5861C95.925 28.2568 95.925 28.914 95.925 29.5826C95.7421 29.5826 95.5854 29.5826 95.4161 29.5826C95.4161 28.1002 95.4161 26.6188 95.4161 25.1258C95.5791 25.1268 95.7337 25.1268 95.9113 25.1268Z" fill="#030303"/>
<path d="M81.3611 42.9953C80.8333 43.0174 80.8344 43.0163 80.6325 42.5705C80.5221 42.3266 80.4695 41.987 80.2803 41.8682C80.0784 41.742 79.7451 41.8219 79.4686 41.8198C79.006 41.8167 78.5444 41.824 78.0818 41.8156C77.9367 41.8125 77.8537 41.8503 77.799 41.9943C77.7033 42.2435 77.5761 42.4811 77.4815 42.7303C77.4047 42.9332 77.2985 43.0552 77.062 43.0047C76.9926 42.99 76.9169 43.0026 76.8149 43.0026C77.1955 42.1626 77.5645 41.3488 77.9336 40.535C78.2206 39.9031 78.515 39.2744 78.7883 38.6362C78.864 38.4596 78.985 38.4901 79.1143 38.489C79.2362 38.488 79.3435 38.4701 79.415 38.632C80.0553 40.0682 80.7082 41.4981 81.3569 42.9311C81.3622 42.9459 81.359 42.9637 81.3611 42.9953ZM80.0931 41.3383C79.7598 40.5939 79.436 39.8705 79.0943 39.1083C78.7463 39.8842 78.4225 40.6055 78.0934 41.3383C78.7663 41.3383 79.4108 41.3383 80.0931 41.3383Z" fill="#060606"/>
<path d="M89.6387 36.2884C89.0983 36.3189 89.1004 36.3178 88.8849 35.8331C88.7797 35.5976 88.7219 35.278 88.5379 35.1592C88.3518 35.0393 88.0353 35.1171 87.7756 35.1161C87.313 35.1129 86.8515 35.1245 86.3899 35.1108C86.1996 35.1045 86.106 35.1655 86.0419 35.3453C85.9578 35.5808 85.819 35.7974 85.7422 36.0339C85.6687 36.26 85.5404 36.3378 85.3164 36.301C85.2512 36.2905 85.1829 36.2989 85.082 36.2989C85.2586 35.9067 85.4247 35.5356 85.5929 35.1644C86.0713 34.1057 86.555 33.049 87.0239 31.985C87.1006 31.8115 87.2026 31.7831 87.3677 31.78C87.5391 31.7768 87.6316 31.8231 87.7062 31.9892C88.3129 33.3487 88.9311 34.7018 89.5441 36.0581C89.5777 36.1328 89.6061 36.2095 89.6387 36.2884ZM86.3573 34.6314C87.0397 34.6314 87.6831 34.6314 88.356 34.6314C88.0217 33.8849 87.6968 33.1584 87.3593 32.4045C87.0176 33.1636 86.6927 33.8859 86.3573 34.6314Z" fill="#050505"/>
<path d="M89.3023 25.129C89.4821 25.129 89.6387 25.129 89.8027 25.129C89.8101 25.1605 89.8248 25.192 89.8248 25.2236C89.8206 26.1299 89.8343 27.0362 89.8027 27.9414C89.7659 28.9918 89.0783 29.63 87.9975 29.671C86.9535 29.7099 86.228 29.0938 86.105 28.0613C86.0882 27.9204 86.0745 27.7774 86.0735 27.6355C86.0703 26.8059 86.0724 25.9764 86.0724 25.1311C86.2459 25.1311 86.4015 25.1311 86.596 25.1311C86.596 25.2141 86.596 25.3024 86.596 25.3908C86.6013 26.2298 86.5802 27.0698 86.6202 27.9078C86.6706 28.9602 87.7189 29.528 88.6515 29.0307C89.1067 28.7878 89.2792 28.3641 89.2897 27.8794C89.3075 27.0572 89.2991 26.234 89.3012 25.4118C89.3023 25.3214 89.3023 25.232 89.3023 25.129Z" fill="#060606"/>
<path d="M81.8689 38.5331C82.0581 38.5331 82.2074 38.5331 82.382 38.5331C82.382 39.3711 82.3799 40.2006 82.3841 41.0291C82.3851 41.1963 82.3977 41.3656 82.4293 41.5286C82.5618 42.2246 83.0769 42.6231 83.7982 42.5968C84.5216 42.5705 85.0168 42.1415 85.0546 41.4161C85.0988 40.5613 85.0756 39.7044 85.0809 38.8475C85.0819 38.7476 85.0809 38.6488 85.0809 38.5363C85.2596 38.5363 85.4152 38.5363 85.5877 38.5363C85.5929 38.6015 85.6034 38.6656 85.6034 38.7298C85.6045 39.5446 85.614 40.3594 85.6003 41.1742C85.5908 41.7536 85.451 42.3013 84.9663 42.6746C84.3123 43.1782 83.5753 43.1961 82.8456 42.8912C82.1675 42.6073 81.892 42.0133 81.8741 41.313C81.851 40.392 81.8689 39.4699 81.8689 38.5331Z" fill="#050505"/>
<path d="M94.3658 28.5428C94.472 28.6606 94.5666 28.7668 94.6644 28.8751C94.0567 29.773 92.4522 29.9507 91.5112 29.2136C90.4893 28.4125 90.3463 26.7733 91.2126 25.7956C92.0979 24.7967 93.695 24.7736 94.6623 25.7609C94.5519 25.8807 94.4394 26.0016 94.3132 26.1394C93.8685 25.703 93.3491 25.4633 92.7235 25.5296C92.2987 25.5748 91.936 25.7598 91.6511 26.0794C91.0307 26.7712 91.0265 27.9078 91.6448 28.6185C92.0022 29.0296 92.4638 29.2094 93.0084 29.1937C93.552 29.1768 93.9704 28.8982 94.3658 28.5428Z" fill="#050505"/>
<path d="M105.702 41.9586C105.794 42.07 105.89 42.1846 105.987 42.3013C105.28 43.215 103.739 43.3517 102.785 42.5726C101.812 41.7777 101.707 40.1596 102.544 39.1987C103.392 38.224 105.066 38.1799 105.996 39.1598C105.886 39.2817 105.774 39.4047 105.65 39.5414C105.195 39.1166 104.679 38.8622 104.051 38.9327C103.609 38.9831 103.237 39.1839 102.946 39.5246C102.352 40.2206 102.375 41.3845 102.996 42.0469C103.704 42.8049 104.586 42.7808 105.702 41.9586Z" fill="#050505"/>
<path d="M78.393 25.6021C77.8715 25.6021 77.3868 25.6021 76.8906 25.6021C76.8906 25.436 76.8906 25.2888 76.8906 25.129C78.0597 25.129 79.2247 25.129 80.4001 25.129C80.4001 25.2835 80.4001 25.4307 80.4001 25.5968C79.9112 25.5968 79.4265 25.5968 78.9218 25.5968C78.9218 26.93 78.9218 28.2453 78.9218 29.5774C78.74 29.5774 78.577 29.5774 78.3919 29.5774C78.393 28.2684 78.393 26.9552 78.393 25.6021Z" fill="#050505"/>
<path d="M90.3684 31.8306C90.544 31.8306 90.6933 31.8306 90.8636 31.8306C90.8636 33.1543 90.8636 34.4685 90.8636 35.8111C91.7121 35.8111 92.5395 35.8111 93.3785 35.8111C93.3785 35.9846 93.3785 36.1308 93.3785 36.2885C92.3755 36.2885 91.3788 36.2885 90.3684 36.2885C90.3684 34.805 90.3684 33.3235 90.3684 31.8306Z" fill="#010101"/>
<path d="M92.0012 42.9911C91.8372 42.9911 91.6816 42.9911 91.5165 42.9911C91.5165 41.5065 91.5165 40.0324 91.5165 38.5416C91.6721 38.5416 91.8278 38.5416 92.0012 38.5416C92.0012 40.0114 92.0012 41.4918 92.0012 42.9911Z" fill="#010101"/>
</svg>
