<svg width="120" height="68" viewBox="0 0 120 68" fill="none" xmlns="http://www.w3.org/2000/svg">
<g clip-path="url(#clip0_1172:30228)">
<path d="M33.0556 40.2222C33 40.1666 32.9445 40.1111 32.9445 40V31.6666C32.9445 31.5555 33 31.5 33.0556 31.4444C33.1111 31.3889 33.1667 31.3333 33.2778 31.3333H34.3333C34.5 31.3333 34.6111 31.3889 34.7222 31.5555L37.1667 36.1111L39.6111 31.5555C39.7222 31.3889 39.8333 31.3333 40 31.3333H41C41.1111 31.3333 41.1667 31.3889 41.2222 31.4444C41.2778 31.5 41.3333 31.5555 41.3333 31.6666V40C41.3333 40.1111 41.2778 40.1666 41.2222 40.2222C41.1667 40.2778 41.1111 40.2778 41 40.2778H39.8889C39.7778 40.2778 39.7222 40.2222 39.6667 40.1666C39.6111 40.1111 39.5556 40.0555 39.5556 39.9444V34.4444L37.7778 37.8333C37.6667 38 37.5556 38.1111 37.3333 38.1111H36.7778C36.6111 38.1111 36.4445 38 36.3333 37.8333L34.5556 34.4444V39.9444C34.5556 40.0555 34.5 40.1111 34.5 40.1666C34.4445 40.2222 34.3889 40.2778 34.2778 40.2778H33.1667C33.1667 40.2778 33.1111 40.2778 33.0556 40.2222Z" fill="#273879"/>
<path d="M43.5 39.6667C42.9445 39.1667 42.6667 38.4444 42.6111 37.5555V37V36.4444C42.6667 35.5555 42.9445 34.8333 43.5 34.3333C44.0556 33.8333 44.8334 33.5555 45.8334 33.5555C46.8334 33.5555 47.5556 33.8333 48.1111 34.3333C48.6667 34.8333 48.9445 35.5555 49 36.4444C49 36.5555 49 36.7222 49 37C49 37.2778 49 37.4444 49 37.5555C48.9445 38.4444 48.6667 39.1667 48.1111 39.6667C47.5556 40.1667 46.7778 40.4444 45.7778 40.4444C44.8334 40.3889 44.0556 40.1667 43.5 39.6667ZM46.8889 38.6667C47.1111 38.3889 47.2778 38 47.2778 37.4444C47.2778 37.3333 47.2778 37.1667 47.2778 36.9444C47.2778 36.7222 47.2778 36.5555 47.2778 36.4444C47.2778 35.8889 47.1111 35.5 46.8889 35.2222C46.6667 34.9444 46.2778 34.7778 45.8334 34.7778C45.3889 34.7778 45.0556 34.9444 44.7778 35.2222C44.5556 35.5 44.3889 35.9444 44.3889 36.4444V36.9444V37.4444C44.3889 38 44.5556 38.3889 44.7778 38.6667C45 38.9444 45.3889 39.1111 45.8334 39.1111C46.2778 39.1111 46.6111 38.9444 46.8889 38.6667Z" fill="#273879"/>
<path d="M50.6112 39.5555C50.1667 39 49.8889 38.2778 49.8334 37.3333V36.8889V36.4444C49.8889 35.5555 50.1112 34.8333 50.5556 34.2778C51 33.7222 51.6667 33.4444 52.5556 33.4444C53.3889 33.4444 54 33.7222 54.5 34.2778V31.4444C54.5 31.3333 54.5556 31.2778 54.6112 31.2222C54.6667 31.1666 54.7223 31.1111 54.8334 31.1111H55.9445C56.0556 31.1111 56.1112 31.1111 56.1667 31.1666C56.2223 31.2222 56.2778 31.2778 56.2778 31.3889V39.8333C56.2778 39.9444 56.2778 40 56.2223 40.0555C56.1667 40.1111 56.1112 40.1666 56.0001 40.1666H54.9445C54.8334 40.1666 54.7778 40.1111 54.7223 40.0555C54.6667 40 54.6112 39.9444 54.6112 39.8333V39.3333C54.1667 39.9444 53.4445 40.2222 52.5556 40.2222C51.7223 40.3889 51.1112 40.1111 50.6112 39.5555ZM54.1667 38.5555C54.3889 38.2222 54.5556 37.8333 54.5556 37.3889C54.5556 37.2778 54.5556 37.1111 54.5556 36.8889C54.5556 36.6666 54.5556 36.5 54.5556 36.3889C54.5556 35.9444 54.3889 35.6111 54.1667 35.2778C53.8889 35 53.5556 34.8889 53.1112 34.8889C52.2223 34.8889 51.7223 35.4444 51.6667 36.5555V36.9444V37.3333C51.7223 38.4444 52.2223 39 53.1112 39C53.5556 39 53.9445 38.8889 54.1667 38.5555Z" fill="#273879"/>
<path d="M58.3889 40.1111C58 39.9444 57.7222 39.7222 57.5556 39.3889C57.3333 39.1111 57.2222 38.7778 57.2222 38.4444C57.2222 37.8889 57.4445 37.3889 57.9445 37.0555C58.3889 36.7222 59.0556 36.4444 59.8889 36.3333L61.6667 36.0555V35.7778C61.6667 35.3889 61.5556 35.1111 61.3889 34.9444C61.2222 34.7778 60.8889 34.6667 60.5 34.6667C60.2222 34.6667 60 34.7222 59.8333 34.8333C59.6667 34.9444 59.5 35.0555 59.4445 35.1667C59.3333 35.2778 59.2778 35.3333 59.2222 35.3889C59.1667 35.5 59.1111 35.5555 59.0556 35.5555H58.0556C58 35.5555 57.8889 35.5555 57.8333 35.5C57.7778 35.4444 57.7778 35.3889 57.7778 35.2778C57.7778 35.0555 57.8889 34.8333 58.1111 34.5555C58.3333 34.2778 58.6111 34.0555 59.0556 33.8333C59.5 33.6111 60 33.5555 60.6111 33.5555C61.6111 33.5555 62.3333 33.7778 62.8333 34.2222C63.2778 34.6667 63.5 35.2778 63.5 36V40C63.5 40.1111 63.5 40.1667 63.3889 40.2222C63.3333 40.2778 63.2778 40.3333 63.1667 40.3333H62.1111C62 40.3333 61.9445 40.2778 61.8889 40.2222C61.8333 40.1667 61.7778 40.1111 61.7778 40V39.5C61.6111 39.7778 61.3333 40 61 40.1667C60.6667 40.3333 60.2222 40.4444 59.7222 40.4444C59.1667 40.3889 58.7778 40.3333 58.3889 40.1111ZM61.1667 38.7222C61.4445 38.3889 61.6111 37.9444 61.6111 37.3889V37.1111L60.3333 37.3333C59.3333 37.5 58.8889 37.8333 58.8889 38.3333C58.8889 38.6111 59 38.8333 59.2222 38.9444C59.4445 39.1111 59.7222 39.1667 60.0556 39.1667C60.5 39.1667 60.8889 39 61.1667 38.7222Z" fill="#273879"/>
<path d="M64.7778 40.1667C64.7222 40.1111 64.6667 40.0556 64.6667 39.9445V31.5C64.6667 31.3889 64.7222 31.3333 64.7778 31.2778C64.8334 31.2222 64.8889 31.2222 65 31.2222H66.0556C66.1667 31.2222 66.2222 31.2222 66.2778 31.2778C66.3334 31.3333 66.3334 31.3889 66.3334 31.5V39.9445C66.3334 40.0556 66.2778 40.1111 66.2778 40.1667C66.2222 40.2222 66.1667 40.2778 66.0556 40.2778H65C64.8889 40.2778 64.8334 40.2222 64.7778 40.1667Z" fill="#273879"/>
<path d="M67.8889 40.1666C67.8333 40.1111 67.7778 40.0555 67.7778 39.9444V31.6666C67.7778 31.5555 67.8333 31.5 67.8889 31.4444C67.9444 31.3889 68 31.3333 68.1111 31.3333H71.6111C72.7222 31.3333 73.6111 31.6111 74.2778 32.1111C74.8889 32.6111 75.2222 33.3333 75.2222 34.2778C75.2222 34.8889 75.1111 35.3889 74.8333 35.7778C74.5556 36.2222 74.1667 36.5 73.6667 36.7222L75.3889 39.8333C75.3889 39.8889 75.4445 39.9444 75.4445 40C75.4445 40.0555 75.4444 40.1111 75.3889 40.1666C75.3333 40.2222 75.2778 40.2778 75.2222 40.2778H73.4444C73.2222 40.2778 73 40.1666 72.9444 39.9444L71.5556 37.1666H70.3333V39.9444C70.3333 40.0555 70.2778 40.1111 70.2222 40.1666C70.1667 40.2222 70.0556 40.2778 70 40.2778H68.2222C68 40.2778 67.9444 40.2222 67.8889 40.1666ZM71.6111 35.2778C72 35.2778 72.2778 35.1666 72.4444 35C72.6111 34.8333 72.7222 34.5555 72.7222 34.2222C72.7222 33.8889 72.6111 33.6111 72.4444 33.4444C72.2778 33.2222 72 33.1666 71.6111 33.1666H70.1667V35.2778H71.6111Z" fill="#28A8E0"/>
<path d="M76.9444 40.1111C76.5556 39.9444 76.2778 39.7222 76.0556 39.3889C75.8333 39.0555 75.7222 38.7222 75.7222 38.3889C75.7222 37.8333 75.9444 37.3333 76.4444 37C76.9444 36.6111 77.6111 36.3889 78.4444 36.2778L80.0556 36.0555V35.8889C80.0556 35.5555 80 35.3333 79.8889 35.2222C79.7778 35.0555 79.5556 35 79.2222 35C79.0556 35 78.8889 35.0555 78.7778 35.1111C78.6667 35.1667 78.5556 35.2778 78.3889 35.3889C78.2778 35.5 78.1667 35.5555 78.1111 35.6111C78.0556 35.6667 78.0556 35.7222 78 35.7222H76.5C76.3889 35.7222 76.3333 35.7222 76.2778 35.6111C76.2222 35.5555 76.2222 35.5 76.2222 35.3889C76.2222 35.1667 76.3333 34.8889 76.5556 34.6111C76.7778 34.3333 77.1111 34.0555 77.5556 33.8889C78 33.6667 78.5556 33.5555 79.2222 33.5555C80.2778 33.5555 81.0556 33.7778 81.5556 34.2222C82.0556 34.6667 82.3333 35.3333 82.3333 36.1111V40C82.3333 40.1111 82.2778 40.1667 82.2222 40.2222C82.1667 40.2778 82.1111 40.3333 82 40.3333H80.4445C80.3333 40.3333 80.2778 40.2778 80.2222 40.2222C80.1667 40.1667 80.1111 40.0555 80.1111 40V39.5555C79.9444 39.8333 79.6667 40.0555 79.3333 40.2222C79 40.3889 78.6111 40.4444 78.1667 40.5C77.7778 40.3889 77.3333 40.2778 76.9444 40.1111ZM79.7778 38.5C80 38.2778 80.1111 37.8889 80.1111 37.4444V37.2778L79.0556 37.4444C78.3333 37.5555 78 37.8333 78 38.2222C78 38.4444 78.1111 38.5555 78.2778 38.7222C78.4444 38.8333 78.6667 38.8889 78.8889 38.8889C79.2222 38.8889 79.5 38.7222 79.7778 38.5Z" fill="#28A8E0"/>
<path d="M83.5556 40.1667C83.5 40.1111 83.4445 40.0556 83.4445 39.9445V31.5C83.4445 31.3889 83.5 31.3334 83.5556 31.2778C83.6111 31.2222 83.7222 31.1667 83.7778 31.1667H85.3334C85.4445 31.1667 85.5 31.2222 85.5556 31.2778C85.6111 31.3334 85.6667 31.3889 85.6667 31.5V35.7778L87.3889 33.8334C87.3889 33.8334 87.4445 33.7778 87.5 33.7222C87.5556 33.6667 87.6111 33.6667 87.6667 33.6111C87.7222 33.6111 87.7778 33.5556 87.8334 33.5556H89.6111C89.6667 33.5556 89.7778 33.5556 89.8333 33.6111C89.8889 33.6667 89.8889 33.7222 89.9445 33.8334C89.9445 33.8889 89.8889 34 89.8333 34.0556L87.6111 36.5556L90.1667 39.7222C90.2222 39.7778 90.2778 39.8889 90.2778 39.8889C90.2778 40 90.2222 40.0556 90.1667 40.1111C90.1111 40.1667 90.0556 40.1667 89.9445 40.1667H88.1111C88 40.1667 87.9445 40.1667 87.8889 40.1111C87.8333 40.0556 87.7778 40 87.6667 39.9445L85.7222 37.5556V39.8334C85.7222 39.9445 85.6667 40 85.6111 40.0556C85.5556 40.1111 85.5 40.1667 85.3889 40.1667H83.8333C83.7222 40.2222 83.6111 40.2222 83.5556 40.1667Z" fill="#28A8E0"/>
<path d="M91.7778 42.6111C91.7222 42.5555 91.7222 42.5 91.7222 42.4444C91.7222 42.3888 91.7222 42.3333 91.7222 42.2777L92.7222 39.8888L90.2778 34.1111C90.2778 34.0555 90.2222 34 90.2222 33.9444C90.2222 33.8333 90.2778 33.7777 90.3333 33.7222C90.3889 33.6666 90.4445 33.6666 90.5556 33.6666H92.0556C92.2222 33.6666 92.3333 33.7777 92.4445 33.9444L93.8889 37.5555L95.3333 33.9444C95.4445 33.7777 95.5556 33.6666 95.7222 33.6666H97.2222C97.2778 33.6666 97.3889 33.7222 97.4444 33.7222C97.5 33.7777 97.5 33.8333 97.5 33.8888C97.5 33.9444 97.5 34 97.5 34.0555L93.8889 42.4444C93.7778 42.6111 93.6667 42.7222 93.5 42.7222H92C91.8889 42.6666 91.8333 42.6666 91.7778 42.6111Z" fill="#28A8E0"/>
<path d="M98.5555 40.1111C98.1666 39.9444 97.8889 39.7222 97.6667 39.3889C97.4444 39.0556 97.3333 38.7222 97.3333 38.3889C97.3333 37.8333 97.5555 37.3333 98.0555 37C98.5555 36.6111 99.2222 36.3889 100.056 36.2222L101.667 36V35.8333C101.667 35.5 101.611 35.2778 101.5 35.1667C101.389 35 101.167 34.9444 100.833 34.9444C100.667 34.9444 100.5 35 100.389 35.0556C100.278 35.1111 100.167 35.2222 100 35.3333C99.8889 35.4444 99.7778 35.5 99.7222 35.5556C99.6667 35.6111 99.6667 35.6667 99.6111 35.6667H98.1111C98 35.6667 97.9444 35.6667 97.8889 35.5556C97.8333 35.5 97.8333 35.4444 97.8333 35.3333C97.8333 35.1111 97.9444 34.8333 98.1666 34.5556C98.3889 34.2778 98.7222 34 99.1666 33.8333C99.6111 33.6111 100.167 33.5 100.833 33.5C101.889 33.5 102.667 33.7222 103.167 34.1667C103.667 34.6111 103.944 35.2778 103.944 36.0556V39.9444C103.944 40.0556 103.889 40.1111 103.833 40.1667C103.778 40.2222 103.722 40.2778 103.611 40.2778H102.056C101.944 40.2778 101.889 40.2222 101.833 40.1667C101.778 40.1111 101.722 40.0556 101.722 39.9444V39.5C101.556 39.7778 101.278 40 100.944 40.1667C100.611 40.3333 100.222 40.4444 99.7778 40.4444C99.3333 40.3333 98.8889 40.2778 98.5555 40.1111ZM101.333 38.5C101.556 38.2778 101.667 37.8889 101.667 37.4444V37.2778L100.611 37.4444C99.8889 37.5556 99.5555 37.8333 99.5555 38.2222C99.5555 38.4444 99.6667 38.5556 99.7778 38.7222C99.9444 38.8333 100.167 38.8889 100.389 38.8889C100.778 38.8333 101.111 38.7222 101.333 38.5Z" fill="#28A8E0"/>
<path d="M105.778 37.6667V35.2778H104.778C104.667 35.2778 104.611 35.2222 104.556 35.1667C104.5 35.1111 104.444 35.0555 104.444 34.9444V33.8333C104.444 33.7222 104.5 33.6667 104.556 33.6111C104.611 33.5555 104.667 33.5 104.778 33.5H105.778V31.3889C105.778 31.2778 105.833 31.2222 105.889 31.1667C105.944 31.1111 106 31.0555 106.111 31.0555H107.667C107.778 31.0555 107.833 31.1111 107.889 31.1667C107.944 31.2222 108 31.2778 108 31.3889V33.5H109.611C109.722 33.5 109.778 33.5555 109.833 33.6111C109.889 33.6667 109.944 33.7222 109.944 33.8333V34.9444C109.944 35.0555 109.889 35.1111 109.833 35.1667C109.778 35.2222 109.667 35.2778 109.611 35.2778H108V37.4444C108 37.7222 108.056 37.9444 108.167 38.1111C108.278 38.2778 108.444 38.3333 108.722 38.3333H109.722C109.833 38.3333 109.889 38.3889 109.944 38.4444C110 38.5 110.056 38.6111 110.056 38.6667V39.8333C110.056 39.9444 110 40 109.944 40.0555C109.889 40.1111 109.833 40.1667 109.722 40.1667H108.5C106.667 40.2222 105.778 39.3889 105.778 37.6667Z" fill="#28A8E0"/>
<path d="M22.2222 39.8333C21.3889 39.8333 20.7222 39.1666 20.7222 38.3333V34.6111C20.7222 32.2777 22.6111 30.4444 24.8889 30.4444C27.2222 30.4444 29.0556 32.3333 29.0556 34.6111C29.0556 35.4444 28.3889 36.1111 27.5556 36.1111C26.7222 36.1111 26.0556 35.4444 26.0556 34.6111C26.0556 33.9444 25.5556 33.4444 24.8889 33.4444C24.2222 33.4444 23.7222 34 23.7222 34.6111V38.3333C23.7778 39.1666 23.0556 39.8333 22.2222 39.8333Z" fill="#28A8E0"/>
<path d="M20.7222 34.4445V34.5C20.7222 34.5556 20.7222 34.6667 20.7222 34.7222V34.5C20.7778 34.5556 20.7778 34.5 20.7222 34.4445ZM23.0556 31.2222C22.6667 31.2222 22.3889 31.2778 22.2778 31.3889C23.1667 32.1111 23.7222 33.2222 23.7778 34.4445C23.8889 33.8889 24.3333 33.4445 24.9445 33.4445C25.6111 33.4445 26.1111 34 26.1111 34.6111C26.1111 31.8889 24.2222 31.2222 23.0556 31.2222Z" fill="#231F55"/>
<path d="M22.2778 39.8333C23.1111 39.8333 23.7778 39.1666 23.7778 38.3333V34.6111C23.7778 32.2777 21.8889 30.4444 19.6111 30.4444C17.2778 30.4444 15.4445 32.3333 15.4445 34.6111C15.4445 35.4444 16.1111 36.1111 16.9445 36.1111C17.7778 36.1111 18.4445 35.4444 18.4445 34.6111C18.4445 33.9444 19 33.4444 19.6111 33.4444C20.2778 33.4444 20.7778 34 20.7778 34.6111V38.3333C20.7778 39.1666 21.4445 39.8333 22.2778 39.8333Z" fill="#1D76BB"/>
<path d="M17.7222 31.2222C17.3334 31.2222 17 31.2778 16.8889 31.3889C17.7778 32.1667 18.3889 33.3333 18.3889 34.6111V34.8333C18.3889 34.7778 18.3889 34.6667 18.3889 34.6111C18.3889 33.9445 18.9445 33.4445 19.5556 33.4445C20.2222 33.4445 20.7222 34 20.7222 34.6111C20.7778 31.8889 18.8334 31.2222 17.7222 31.2222Z" fill="#231F55"/>
<path d="M16.8889 41.3888C16.0556 41.3888 15.3889 40.7222 15.3889 39.8888V34.6111C15.3889 33.9444 14.8333 33.4444 14.2222 33.4444C13.5556 33.4444 13.0556 34 13.0556 34.6111V40.9444C13.0556 41.7777 12.3889 42.4444 11.5556 42.4444C10.7222 42.4444 10 41.7777 10 40.9444V34.6111C10 32.2777 11.8889 30.4444 14.1667 30.4444C16.5 30.4444 18.3333 32.3333 18.3333 34.6111V39.8888C18.3889 40.7222 17.7222 41.3888 16.8889 41.3888Z" fill="#273879"/>
<path d="M12.3333 31.2222C11.9444 31.2222 11.6111 31.2778 11.5 31.3889C10.6111 32.1111 10.0556 33.2222 10 34.5V40.8333C10 41.6667 10.6667 42.3333 11.5 42.3333C12.3333 42.3333 13 41.6667 13 40.8333V34.6111C13 33.9445 13.5 33.4445 14.1667 33.4445C14.8333 33.4445 15.3333 34 15.3333 34.6111C15.3889 31.8889 13.4444 31.2222 12.3333 31.2222Z" fill="#231F55"/>
<path d="M14.2222 29.9444C15.2961 29.9444 16.1667 29.0739 16.1667 28C16.1667 26.9261 15.2961 26.0555 14.2222 26.0555C13.1483 26.0555 12.2778 26.9261 12.2778 28C12.2778 29.0739 13.1483 29.9444 14.2222 29.9444Z" fill="#273879"/>
<path d="M19.5555 29.9444C20.6294 29.9444 21.5 29.0739 21.5 28C21.5 26.9261 20.6294 26.0555 19.5555 26.0555C18.4816 26.0555 17.6111 26.9261 17.6111 28C17.6111 29.0739 18.4816 29.9444 19.5555 29.9444Z" fill="#1D76BB"/>
<path d="M24.9444 29.9444C26.0183 29.9444 26.8889 29.0739 26.8889 28C26.8889 26.9261 26.0183 26.0555 24.9444 26.0555C23.8706 26.0555 23 26.9261 23 28C23 29.0739 23.8706 29.9444 24.9444 29.9444Z" fill="#28A8E0"/>
</g>
<defs>
<clipPath id="clip0_1172:30228">
<rect width="100" height="16.6667" fill="white" transform="translate(10 26)"/>
</clipPath>
</defs>
</svg>
