<svg width="120" height="68" viewBox="0 0 120 68" fill="none" xmlns="http://www.w3.org/2000/svg">
<path d="M50.5345 12.9158C50.5109 12.7335 50.4501 12.5477 50.4704 12.3721C50.5109 11.9972 50.5818 11.6223 50.6527 11.2509C50.8047 10.4707 50.9229 9.67708 51.1289 8.91045C51.362 8.03238 51.7368 7.20835 52.2502 6.44848C53.1012 5.19215 54.2596 4.42552 55.7557 4.15872C55.8874 4.13508 56.0056 4.05404 56.1306 4C56.5629 4 56.9951 4 57.4274 4C58.6027 4.54711 58.9168 5.65821 59.2005 6.76255C59.626 8.40725 59.8084 10.0891 59.859 11.7845C59.8691 12.0783 59.9063 12.3721 59.9299 12.6625C59.9063 12.6592 59.8793 12.6558 59.8556 12.6558C59.7678 12.6288 59.6834 12.5815 59.5956 12.5815C57.8327 12.6051 56.0698 12.622 54.3069 12.6659C53.7192 12.6794 53.1316 12.7571 52.5474 12.8314C52.4359 12.8449 52.3413 12.98 52.2367 13.0611C51.774 13.105 51.3079 13.1185 50.852 13.1995C50.5717 13.2502 50.5278 13.1354 50.5345 12.9158Z" fill="#044E7F"/>
<path d="M50.5346 12.9158C50.5313 13.1387 50.5718 13.2502 50.8555 13.1995C51.3114 13.1185 51.7775 13.1016 52.2401 13.0611C52.355 13.0374 52.4732 12.9969 52.5914 12.9901C53.8004 12.9057 55.0061 12.8246 56.2151 12.7402C56.5123 12.7402 56.8095 12.7436 57.1067 12.7436C57.2452 12.7706 57.3836 12.8179 57.5255 12.8179C58.2989 12.8246 59.0688 12.8213 59.8422 12.8213C59.8422 12.7942 59.8422 12.7672 59.8422 12.7368C59.4167 12.7368 58.9878 12.7368 58.5623 12.7368C58.5657 12.7098 58.569 12.6862 58.5724 12.6592C59.0013 12.6558 59.4302 12.6558 59.8625 12.6524C59.8861 12.6524 59.9131 12.6558 59.9368 12.6592C60.5278 12.6862 61.1222 12.6929 61.7098 12.7402C63.5436 12.8888 65.3741 13.0374 67.2045 13.2198C68.8729 13.3853 70.4973 13.777 72.0914 14.2836C74.0434 14.905 75.9008 15.729 77.4138 17.1508C79.1126 18.7483 79.8319 20.7206 79.4841 23.0407C79.3827 23.7094 79.2038 24.368 79.0619 25.0333C78.5553 25.0569 78.0623 25.0839 77.6874 24.6212C77.5118 24.4051 77.1031 24.4726 76.9613 24.7057C76.7958 24.9758 76.8836 25.1953 77.12 25.3946C77.6097 25.8032 78.1771 25.962 78.8053 25.9451C78.4169 26.9684 77.9914 27.9748 77.3024 28.8427C77.1403 28.9069 76.9782 28.9711 76.8195 29.0386C75.2626 29.6735 73.7259 30.3625 72.1488 30.9332C69.5821 31.862 66.904 32.3246 64.1887 32.4597C62.7162 32.534 61.2235 32.4429 59.7544 32.2943C58.0523 32.122 56.4008 31.6729 54.8102 31.0278C52.4191 30.0585 50.2847 28.7549 48.9305 26.4551C48.2044 25.219 47.789 23.885 47.7113 22.4463C47.7113 21.8519 47.7113 21.2609 47.7113 20.6665C47.7653 20.214 47.7957 19.7614 47.8802 19.3156C48.1672 17.7722 48.6941 16.3133 49.4776 14.9523C49.7883 14.4119 50.099 13.875 50.4198 13.3177C50.3354 13.311 50.2847 13.3076 50.2307 13.3008C50.3252 13.1792 50.43 13.0475 50.5346 12.9158ZM78.1602 19.6973C77.9441 18.6064 77.3328 17.9918 76.4007 17.931C75.4618 17.8972 74.6783 18.4443 74.4487 19.292C74.2156 20.1566 74.6006 21.038 75.3943 21.4635C76.2588 21.9262 77.4679 21.5784 77.8022 20.9063C77.988 20.5382 78.0454 20.1025 78.1602 19.6973ZM62.5372 24.3139C62.6689 24.7428 62.7635 25.1886 62.9425 25.6006C63.3208 26.4753 63.8982 26.526 64.6649 26.2896C65.6848 25.9755 66.6507 25.479 67.6301 25.0366C67.7483 24.9826 67.8698 24.78 67.8732 24.6449C67.8969 23.8006 67.8834 22.9563 67.8834 22.0951C67.2586 21.8182 66.6338 21.5345 66.0023 21.2677C65.5227 21.0684 65.0465 20.8455 64.5467 20.7172C63.5335 20.4571 62.8817 20.9502 62.6419 21.8587C62.5643 22.1525 62.5676 22.47 62.5339 22.7739C62.5372 23.2906 62.5372 23.804 62.5372 24.3139Z" fill="#0872B3"/>
<path d="M47.701 22.4564C47.7753 23.8917 48.1941 25.2257 48.9202 26.4652C50.2711 28.765 52.4089 30.0686 54.7999 31.0379C56.3906 31.6829 58.0421 32.1321 59.7442 32.3044C61.2133 32.4529 62.706 32.5408 64.1784 32.4698C66.8937 32.3347 69.5718 31.8721 72.1385 30.9433C73.719 30.3726 75.2557 29.6836 76.8092 29.0487C76.9713 28.9846 77.1334 28.9204 77.2921 28.8529C76.5863 29.9572 75.6238 30.7981 74.5397 31.5107C72.8984 32.588 71.0747 33.2027 69.1666 33.5809C68.2345 33.7667 67.2888 33.9119 66.3432 34.0098C65.1308 34.1348 63.9116 34.1956 62.6958 34.2834C61.784 34.2901 60.8688 34.2969 59.9569 34.3037C59.8354 34.2665 59.7138 34.2023 59.5922 34.199C59.1194 34.1855 58.6466 34.1855 58.1738 34.199C57.9509 34.2057 57.7314 34.2496 57.5085 34.2766C57.1032 34.2766 56.6979 34.2766 56.2926 34.2766C55.4247 34.2496 54.5534 34.2226 53.6855 34.1956C53.6044 34.1922 53.5233 34.1888 53.4457 34.1787C52.5203 34.0706 51.595 33.9626 50.6696 33.8579C50.6358 33.8545 50.5953 33.9187 50.5548 33.9524C50.548 34.0031 50.5413 34.0571 50.5379 34.1078C50.5075 34.0065 50.4737 33.9051 50.4399 33.8005C48.1333 33.4121 45.8773 32.8379 43.9017 31.5006C43.4728 31.2101 43.1182 30.8083 42.7163 30.4739C42.0239 29.8998 41.5343 29.1737 41.129 28.3834C40.7474 27.6337 40.4535 26.8535 40.359 26.0126C40.2509 25.0704 40.0956 24.1281 40.0989 23.1825C40.1057 21.7337 40.3353 20.2984 40.9534 18.9711C41.5545 17.6743 42.4258 16.5868 43.6045 15.7256C45.4113 14.4085 47.4815 13.8243 49.6227 13.3954C49.8185 13.3548 50.0212 13.3346 50.2171 13.3076C50.2711 13.3109 50.3217 13.3177 50.4062 13.3244C50.0853 13.8817 49.7746 14.4187 49.4639 14.959C48.6804 16.3234 48.1502 17.779 47.8665 19.3224C47.7821 19.7682 47.7551 20.2241 47.6976 20.6732C47.701 21.2676 47.701 21.862 47.701 22.4564Z" fill="#07649D"/>
<path d="M31.9397 58.0117C31.5243 58.8594 31.1427 59.6463 30.7543 60.4264C30.4335 61.0715 30.1498 61.7368 29.7682 62.3447C29.194 63.2666 27.9816 63.2632 27.4514 62.3143C26.7523 61.0613 26.1478 59.7543 25.5027 58.471C25.4386 58.3427 25.3744 58.2143 25.2562 57.9745C25.1887 58.4372 25.1279 58.7952 25.0873 59.1498C24.9455 60.3318 24.8239 61.5172 24.6686 62.6959C24.5639 63.4895 23.8986 63.9556 23.0239 63.8644C22.3889 63.7969 21.9364 63.2362 22.0073 62.5338C22.0884 61.7097 22.1796 60.8891 22.264 60.065C22.318 59.5314 22.3518 58.9945 22.416 58.4609C22.4835 57.9036 22.5848 57.3531 22.6558 56.7993C22.7233 56.2792 22.7368 55.7523 22.8381 55.2424C23.007 54.415 22.8212 53.5166 23.3785 52.7568C23.6014 52.4528 23.8749 52.3481 24.2025 52.3042C24.9759 52.2029 25.5568 52.4933 25.8607 53.1384C26.7354 55.006 27.6439 56.8567 28.5591 58.7581C28.63 58.6736 28.7043 58.6196 28.7381 58.5487C29.4676 57.0154 30.1937 55.4822 30.9265 53.9489C31.1021 53.5808 31.3048 53.2262 31.5007 52.8682C31.8283 52.2738 32.5814 52.2096 33.1487 52.3278C33.6621 52.4325 34.0944 52.956 34.1619 53.4997C34.3983 55.4112 34.6381 57.3261 34.8745 59.2376C35.0062 60.3014 35.1582 61.3619 35.2494 62.4257C35.3169 63.189 34.8205 63.7597 34.0876 63.8644C33.3075 63.9758 32.6523 63.5098 32.5645 62.7904C32.4496 61.8583 32.3483 60.9228 32.2301 59.9907C32.1525 59.3592 32.0478 58.7277 31.9397 58.0117Z" fill="#044E7F"/>
<path d="M37.7451 58.1434C37.6979 54.7763 40.349 52.213 43.5235 52.2367C46.7015 52.2603 49.2918 54.8135 49.329 57.9408C49.3729 61.5713 46.6643 63.6719 44.1348 63.9589C42.4394 64.1514 40.8724 63.6685 39.6195 62.4797C38.3834 61.3112 37.6911 59.8523 37.7451 58.1434ZM46.6002 58.113C46.6069 56.3163 45.2695 54.9182 43.5404 54.9182C41.8349 54.9148 40.4908 56.2994 40.4807 58.0759C40.4705 59.8759 41.8079 61.2673 43.5404 61.2639C45.2695 61.2606 46.5934 59.8962 46.6002 58.113Z" fill="#044E7F"/>
<path d="M50.538 34.1045C50.5448 34.0538 50.5515 33.9998 50.5549 33.9491C51.0986 34.0065 51.6424 34.0741 52.1895 34.1146C53.6417 34.226 55.0939 34.3578 56.5461 34.4253C57.647 34.476 58.7514 34.4354 59.8557 34.4354C59.8557 34.6482 59.8591 34.861 59.8591 35.0771C59.8253 36.9582 59.599 38.8123 59.1026 40.6292C58.9641 41.1358 58.7142 41.6187 58.4744 42.0882C58.032 42.9595 57.2147 43.0946 56.3704 42.9966C55.7895 42.9291 55.2188 42.7298 54.6616 42.534C53.564 42.1456 52.7568 41.379 52.1388 40.4165C51.4228 39.2986 51.0142 38.0659 50.8048 36.7589C50.69 36.043 50.5616 35.327 50.4603 34.6077C50.4434 34.4456 50.511 34.2733 50.538 34.1045Z" fill="#044E7F"/>
<path d="M64.5027 61.3078C64.2764 61.8583 64.0468 62.4088 63.8307 62.9627C63.601 63.5503 63.0809 63.9015 62.4527 63.8779C61.855 63.8576 61.318 63.4625 61.1796 62.8816C61.0647 62.3987 61.2707 61.9427 61.4328 61.5003C61.8685 60.3251 62.3447 59.1667 62.7871 57.9948C63.3646 56.4683 63.9151 54.935 64.5061 53.4119C64.7797 52.7027 65.3065 52.2704 66.1035 52.2772C66.8026 52.2839 67.4172 52.5102 67.7313 53.3309C68.4 55.0803 69.0755 56.8263 69.7442 58.5757C70.1731 59.6935 70.6087 60.808 71.0207 61.9292C71.426 63.0302 70.7235 63.9387 69.5483 63.861C69.1464 63.834 68.6027 63.4017 68.4608 62.9998C68.2616 62.4324 68.0555 61.8684 67.8529 61.3044C67.7955 61.2808 67.7381 61.2369 67.6807 61.2369C66.6777 61.2335 65.6746 61.2335 64.6716 61.2369C64.6175 61.2403 64.5601 61.2842 64.5027 61.3078ZM66.8769 58.6297C66.6439 57.9745 66.4277 57.3599 66.1778 56.654C65.9245 57.3767 65.7084 57.9914 65.4855 58.6297C65.9482 58.6297 66.3737 58.6297 66.8769 58.6297Z" fill="#044E7F"/>
<path d="M54.5906 61.1424C55.4822 61.1491 56.3704 61.1525 57.262 61.1626C57.9982 61.1694 58.4811 61.5645 58.65 62.2028C58.8729 63.0505 58.1164 63.8002 57.441 63.8036C55.928 63.8104 54.415 63.8104 52.9054 63.7901C52.2637 63.78 51.7875 63.1687 51.7842 62.6283C51.7639 59.6226 51.774 56.6135 51.774 53.6078C51.774 52.8716 52.2536 52.4055 52.7703 52.3279C53.5572 52.2097 54.1989 52.5372 54.4251 53.1958C54.4555 53.2836 54.4859 53.3714 54.5163 53.4626C54.5129 55.9449 54.5095 58.4305 54.5129 60.9127C54.5129 60.987 54.5636 61.0647 54.5906 61.1424Z" fill="#044E7F"/>
<path d="M93.1989 61.1289C94.0736 58.5352 94.9179 56.0192 95.769 53.5065C95.877 53.1891 95.9784 52.8513 96.1709 52.5845C96.4377 52.213 96.9746 52.1725 97.3934 52.4157C97.7176 52.6014 97.7953 52.9121 97.6264 53.4052C96.5187 56.6507 95.411 59.8928 94.3032 63.1383C94.1175 63.682 93.8271 63.8779 93.2394 63.8847C92.6349 63.8914 92.3073 63.6719 92.1182 63.1282C91.5036 61.3518 90.899 59.572 90.281 57.7955C89.8386 56.519 89.3793 55.2458 88.9369 53.9658C88.8288 53.6483 88.7342 53.3241 88.6701 52.9965C88.5991 52.6352 88.822 52.4326 89.1429 52.338C89.8014 52.1421 90.2641 52.4089 90.4938 53.1012C91.355 55.6848 92.2195 58.2717 93.0807 60.8553C93.1043 60.9195 93.1381 60.987 93.1989 61.1289Z" fill="#044E7F"/>
<path d="M76.7215 53.7125C76.3804 53.6348 76.0765 53.3072 76.0697 53.0168C76.0664 52.7196 76.3534 52.3886 76.6979 52.3177C76.8397 52.2873 76.9917 52.267 77.1369 52.267C79.7948 52.2637 82.456 52.2603 85.1139 52.2704C85.3469 52.2704 85.6137 52.3008 85.8096 52.4089C86.3939 52.7331 86.3061 53.2937 85.634 53.7057C84.5769 53.7091 83.5232 53.7125 82.4662 53.7226C82.3412 53.7226 82.2163 53.7598 82.0913 53.7801C82.0812 53.9253 82.0643 54.0739 82.0643 54.2191C82.0643 57.1269 82.0643 60.038 82.0609 62.9458C82.0609 63.4287 81.892 63.6651 81.4496 63.8205C81.0444 63.9623 80.656 63.8745 80.4095 63.5638C80.3419 63.476 80.3183 63.3544 80.2744 63.2464C80.271 60.1191 80.271 56.9884 80.2676 53.8611C80.2642 53.8341 80.2609 53.8071 80.2575 53.7767C80.1291 53.7564 80.0042 53.7192 79.8759 53.7192C78.8222 53.7159 77.7718 53.7159 76.7215 53.7125Z" fill="#044E7F"/>
<path d="M78.7985 25.9519C78.1703 25.9688 77.6063 25.8066 77.1133 25.4014C76.8735 25.2021 76.789 24.9826 76.9545 24.7124C77.0997 24.476 77.505 24.4085 77.6806 24.628C78.0589 25.0907 78.5486 25.0637 79.0551 25.04C78.9707 25.344 78.8829 25.6479 78.7985 25.9519Z" fill="#050709"/>
<path d="M80.2674 53.8645C80.2708 56.9918 80.2708 60.1225 80.2742 63.2498C80.2505 63.1214 80.2066 62.9931 80.2066 62.8647C80.2033 59.9941 80.2033 57.1235 80.2066 54.2529C80.2066 54.1212 80.2472 53.9928 80.2674 53.8645Z" fill="#FDFDFD"/>
<path d="M54.5906 61.1424C54.5636 61.0647 54.5129 60.987 54.5129 60.9093C54.5129 58.4271 54.5163 55.9415 54.5163 53.4592C54.54 53.6146 54.5872 53.7666 54.5872 53.9219C54.5906 56.3265 54.5906 58.7344 54.5906 61.1424Z" fill="#FDFDFD"/>
<path d="M76.7214 53.7125C77.7717 53.7159 78.8221 53.7159 79.8758 53.7226C80.0041 53.7226 80.129 53.7598 80.2574 53.7801C79.2206 53.7801 78.1838 53.7834 77.147 53.7767C77.0051 53.7767 76.8633 53.7362 76.7214 53.7125Z" fill="#FDFDFD"/>
<path d="M82.0913 53.7801C82.2163 53.7598 82.3412 53.7226 82.4662 53.7226C83.5232 53.7125 84.5769 53.7125 85.634 53.7057C85.4922 53.7294 85.3503 53.7733 85.2085 53.7767C84.1683 53.7834 83.1281 53.7801 82.0913 53.7801Z" fill="#FDFDFD"/>
<path d="M64.5028 61.3079C64.5602 61.2842 64.6176 61.2403 64.6717 61.2403C65.6747 61.2369 66.6777 61.2369 67.6808 61.2403C67.7382 61.2403 67.7956 61.2842 67.853 61.3079C66.7385 61.3079 65.6207 61.3079 64.5028 61.3079Z" fill="#FEFEFE"/>
<path d="M59.8591 35.0737C59.8591 34.8609 59.8557 34.6482 59.8557 34.432C59.8557 34.405 59.8557 34.378 59.8557 34.351C59.7307 34.324 59.6058 34.2767 59.4774 34.2767C58.8223 34.2699 58.1637 34.2699 57.5085 34.2699C57.7314 34.2429 57.9509 34.199 58.1738 34.1923C58.6467 34.1788 59.1195 34.1821 59.5923 34.1923C59.7139 34.1956 59.8354 34.2598 59.957 34.297C59.9638 34.3138 59.9671 34.3307 59.9705 34.3476C59.9334 34.5941 59.8962 34.8339 59.8591 35.0737Z" fill="#0867A1"/>
<path d="M59.9671 34.3544C59.9637 34.3375 59.9604 34.3206 59.9536 34.3037C60.8655 34.297 61.7807 34.2902 62.6925 34.2834C62.4966 34.3071 62.3042 34.351 62.1083 34.351C61.3957 34.3577 60.6831 34.3544 59.9671 34.3544Z" fill="#FDFDFD"/>
<path d="M59.8558 12.6592C59.4269 12.6625 58.9979 12.6625 58.5657 12.6659C58.0152 12.6659 57.4647 12.6558 56.9108 12.6659C56.6778 12.6693 56.4414 12.7132 56.2084 12.7402C54.9993 12.8213 53.7937 12.9023 52.5846 12.9901C52.4664 12.9969 52.3516 13.0374 52.2334 13.0611C52.3381 12.9834 52.4327 12.8483 52.5441 12.8314C53.1284 12.7571 53.716 12.6828 54.3036 12.6659C56.0665 12.622 57.8294 12.6051 59.5923 12.5815C59.6835 12.5815 59.7713 12.6322 59.8558 12.6592Z" fill="#044D7D"/>
<path d="M62.5371 22.7806C62.5709 22.4733 62.5675 22.1592 62.6452 21.8654C62.885 20.9569 63.5368 20.4639 64.5499 20.7239C65.0498 20.8522 65.5259 21.0718 66.0055 21.2744C66.637 21.5378 67.2618 21.8249 67.8866 22.1018C67.8866 22.9596 67.8967 23.8073 67.8765 24.6516C67.8731 24.7867 67.7515 24.9893 67.6333 25.0434C66.6539 25.4858 65.688 25.9856 64.6681 26.2963C63.9015 26.5327 63.324 26.4787 62.9458 25.6073C62.7668 25.1987 62.6722 24.7529 62.5405 24.3206C62.5371 23.8039 62.5371 23.2906 62.5371 22.7806Z" fill="#044E7F"/>
<path d="M78.1601 19.6972C78.0452 20.1025 77.9912 20.5382 77.8055 20.9097C77.4677 21.5817 76.2587 21.9296 75.3975 21.4669C74.6039 21.0414 74.2189 20.1599 74.4519 19.2953C74.6815 18.4477 75.465 17.9006 76.4039 17.9343C76.2553 18.0458 76.0966 18.1437 75.9581 18.2653C75.3671 18.7888 75.3367 19.9404 75.9379 20.2916C76.6471 20.707 77.5994 20.6429 77.9912 19.8458C78.0182 19.7817 78.0993 19.7445 78.1601 19.6972Z" fill="#050708"/>
<path d="M78.1601 19.6973C78.1027 19.7479 78.0217 19.7851 77.9879 19.8459C77.5928 20.6395 76.6438 20.7071 75.9346 20.2917C75.3334 19.9404 75.3638 18.7888 75.9548 18.2653C76.0933 18.1438 76.252 18.0425 76.4006 17.9344C77.3327 17.9918 77.944 18.6064 78.1601 19.6973ZM76.2115 19.2717C76.2216 19.6027 76.5222 19.9337 76.816 19.9337C77.1132 19.9337 77.407 19.5791 77.4036 19.2346C77.3969 18.9307 77.0727 18.5794 76.7924 18.576C76.4918 18.5727 76.2013 18.9171 76.2115 19.2717Z" fill="#42413E"/>
<path d="M58.5588 12.7402C58.9844 12.7402 59.4133 12.7402 59.8388 12.7402C59.8388 12.7673 59.8388 12.7943 59.8388 12.8247C59.0654 12.8247 58.2954 12.828 57.522 12.8213C57.3836 12.8213 57.2451 12.7706 57.1033 12.747C57.5896 12.7436 58.0725 12.7402 58.5588 12.7402Z" fill="#0876BA"/>
<path d="M58.5588 12.7402C58.0725 12.7402 57.5896 12.7436 57.1033 12.7436C56.8061 12.7436 56.5089 12.7402 56.2117 12.7402C56.4447 12.7132 56.6777 12.6693 56.9141 12.6659C57.4646 12.6557 58.0151 12.6625 58.569 12.6659C58.5656 12.6895 58.5622 12.7132 58.5588 12.7402Z" fill="#044E7F"/>
<path d="M59.8556 34.3544C59.8556 34.3814 59.8556 34.4084 59.8556 34.4354C58.7513 34.4354 57.6469 34.476 56.546 34.4253C55.0904 34.3578 53.6416 34.226 52.1894 34.1146C51.6457 34.0707 51.1019 34.0065 50.5548 33.9491C50.592 33.9153 50.6359 33.8512 50.6696 33.8546C51.595 33.9559 52.5203 34.0673 53.4457 34.1754C53.5268 34.1855 53.6044 34.1889 53.6855 34.1923C54.5534 34.2193 55.4247 34.2463 56.2927 34.2733C56.4311 34.3003 56.573 34.3476 56.7115 34.351C57.7584 34.3578 58.8087 34.3544 59.8556 34.3544Z" fill="#044D7E"/>
<path d="M59.8557 34.3544C58.8087 34.3544 57.7584 34.3577 56.7115 34.351C56.573 34.351 56.4312 34.3003 56.2927 34.2733C56.698 34.2733 57.1033 34.2733 57.5085 34.2733C58.1637 34.2733 58.8223 34.2699 59.4774 34.2801C59.6058 34.2801 59.7307 34.3273 59.8557 34.3544Z" fill="#044E7F"/>
<path d="M76.2116 19.2717C76.2014 18.9171 76.4885 18.5726 76.7925 18.576C77.0694 18.5794 77.397 18.9306 77.4037 19.2346C77.4105 19.579 77.1133 19.9337 76.8161 19.9337C76.5223 19.9337 76.2217 19.6027 76.2116 19.2717Z" fill="#FBFBFB"/>
</svg>
