<svg width="120" height="68" viewBox="0 0 120 68" fill="none" xmlns="http://www.w3.org/2000/svg">
<path d="M10.0008 44.0831C10.1508 44.0972 10.3008 44.1222 10.4508 44.1231C12.2541 44.1389 14.0583 44.1214 15.86 44.1831C16.4699 44.2039 17.1083 44.3381 17.6724 44.5697C19.1333 45.1697 19.8724 46.6581 19.6316 48.3272C19.3649 50.173 18.1291 51.3122 16.1791 51.4047C14.8925 51.4655 13.6008 51.4163 12.2666 51.4163C12.2666 52.678 12.2666 53.8622 12.2666 55.0838C11.4817 55.0838 10.7408 55.0838 10 55.0838C10.0008 51.4163 10.0008 47.7497 10.0008 44.0831ZM12.2766 46.2522C12.2766 47.2914 12.2766 48.3514 12.2766 49.4689C13.5925 49.4247 14.8816 49.4289 16.1608 49.3205C16.9816 49.2514 17.4216 48.6139 17.4024 47.773C17.3833 46.9322 16.9099 46.3064 16.0991 46.268C14.8333 46.208 13.5616 46.2522 12.2766 46.2522Z" fill="#ED3325"/>
<path d="M35.5007 55.4163C34.989 55.2638 34.4574 55.1597 33.9699 54.9513C32.5199 54.3322 31.6257 53.2388 31.5882 51.6414C31.5299 49.1597 31.5732 46.6756 31.5732 44.1589C32.2724 44.1589 32.999 44.1589 33.7665 44.1589C33.7665 44.3164 33.7665 44.4656 33.7665 44.6156C33.7665 46.5589 33.7665 48.5022 33.7665 50.4455C33.7665 50.6264 33.7682 50.8064 33.7732 50.9872C33.7974 51.9697 34.1007 52.8155 35.0765 53.2105C36.1515 53.6455 37.229 53.6272 38.1982 52.9139C38.7882 52.4797 38.9957 51.8264 38.9998 51.1164C39.0107 48.9506 39.0082 46.7856 39.0107 44.6198C39.0107 44.4706 39.0107 44.3214 39.0107 44.1489C39.7657 44.1489 40.4823 44.1489 41.2281 44.1489C41.2356 44.2731 41.2498 44.3923 41.2498 44.5123C41.2515 46.5947 41.2581 48.6764 41.2448 50.7589C41.2415 51.2564 41.2265 51.7655 41.119 52.2472C40.7715 53.8097 39.7265 54.7172 38.2365 55.1647C37.9115 55.2622 37.579 55.333 37.2498 55.4163C36.6673 55.4163 36.084 55.4163 35.5007 55.4163Z" fill="#ED3426"/>
<path d="M110 55.1663C109.851 55.1497 109.702 55.118 109.553 55.118C107.165 55.1147 104.776 55.1155 102.387 55.1155C102.237 55.1155 102.087 55.1155 101.912 55.1155C101.912 51.4514 101.912 47.8197 101.912 44.1564C102.636 44.1564 103.361 44.1564 104.127 44.1564C104.127 47.1239 104.127 50.0756 104.127 53.0764C104.316 53.0764 104.464 53.0764 104.612 53.0764C106.098 53.0764 107.584 53.0864 109.07 53.068C109.365 53.0647 109.481 53.1622 109.56 53.4305C109.683 53.8497 109.851 54.2555 110 54.6663C110 54.833 110 54.9997 110 55.1663Z" fill="#ED3426"/>
<path d="M61.5004 13C61.7062 13.2042 61.8821 13.4592 62.1245 13.6025C62.507 13.8292 62.9329 13.985 63.3437 14.1625C63.4295 14.1992 63.5345 14.1908 63.6287 14.2125C64.6329 14.4375 65.157 15.2983 64.8904 16.305C64.862 16.4108 64.752 16.5783 64.6895 16.5741C64.5795 16.5675 64.4145 16.4708 64.3804 16.3741C64.132 15.6741 63.5529 15.3425 62.9654 14.9825C62.4504 14.6667 61.9754 14.2775 61.5162 13.8817C61.2671 13.6667 61.0846 13.3725 61.1671 13.0008C61.2779 13 61.3896 13 61.5004 13Z" fill="#7A7B7E"/>
<path d="M64.6796 44.1256C65.4554 44.1256 66.1896 44.1122 66.9229 44.1381C67.0545 44.1422 67.2112 44.2814 67.3045 44.3997C68.9579 46.5064 70.6037 48.6197 72.2503 50.7314C72.3353 50.8405 72.422 50.9489 72.5645 51.1297C72.5645 48.7622 72.5645 46.4747 72.5645 44.1556C73.3395 44.1556 74.067 44.1556 74.8153 44.1556C74.8153 47.793 74.8153 51.4238 74.8153 55.1055C74.1753 55.1055 73.542 55.1196 72.9112 55.0921C72.797 55.0871 72.6712 54.928 72.5837 54.8147C70.7845 52.4697 68.9904 50.1214 67.1945 47.7739C67.1229 47.6797 67.0429 47.5922 66.8945 47.4139C66.8945 50.038 66.8945 52.553 66.8945 55.088C66.1304 55.088 65.4154 55.088 64.6796 55.088C64.6796 51.438 64.6796 47.8055 64.6796 44.1256Z" fill="#ED3326"/>
<path d="M28.1365 50.608C29.514 51.808 30.1357 53.4213 30.769 55.1088C29.9165 55.1088 29.1165 55.1171 28.3174 55.0971C28.2299 55.0946 28.1157 54.9413 28.0657 54.8346C27.7682 54.1946 27.5157 53.533 27.1932 52.9071C26.6082 51.7713 25.6857 51.1671 24.3716 51.2288C23.9466 51.2488 23.5199 51.2322 23.0574 51.2322C23.0574 52.5346 23.0574 53.7913 23.0574 55.0796C22.3074 55.0796 21.5941 55.0796 20.8499 55.0796C20.8499 51.448 20.8499 47.8072 20.8499 44.1564C20.9124 44.1455 20.9657 44.128 21.0191 44.1289C22.9891 44.1414 24.9607 44.1155 26.929 44.1839C28.2724 44.2305 29.3723 44.813 29.9865 46.0764C30.6548 47.4513 30.459 49.8505 28.229 50.5255C28.2074 50.5297 28.1907 50.558 28.1365 50.608ZM23.0691 49.1588C24.2774 49.1588 25.4399 49.1622 26.6024 49.1547C26.7657 49.1538 26.9332 49.1105 27.0907 49.0613C27.6999 48.8697 28.0865 48.2822 28.0549 47.6147C28.0224 46.9255 27.609 46.3205 26.9732 46.273C25.6807 46.1764 24.3816 46.173 23.0691 46.1314C23.0691 47.1864 23.0691 48.153 23.0691 49.1588Z" fill="#ED3426"/>
<path d="M43.0414 55.0563C43.0414 51.4397 43.0414 47.8197 43.0414 44.1722C43.1339 44.1564 43.2239 44.1264 43.3147 44.1272C44.7997 44.1355 46.2855 44.1164 47.7697 44.1647C50.9238 44.268 52.7705 46.1014 52.8871 49.2605C52.913 49.9588 52.8496 50.683 52.6896 51.363C52.1813 53.5263 50.7497 54.8271 48.4097 55.0271C46.648 55.1771 44.8639 55.0563 43.0414 55.0563ZM45.2872 53.0688C46.1239 53.0688 46.9164 53.1046 47.7047 53.0613C49.268 52.9763 50.1597 52.2663 50.488 50.903C50.693 50.0522 50.7063 49.1955 50.4855 48.3488C50.2097 47.2947 49.6238 46.4722 48.4855 46.3164C47.438 46.173 46.3697 46.1764 45.2872 46.1139C45.2872 48.4872 45.2872 50.7563 45.2872 53.0688Z" fill="#ED3426"/>
<path d="M54.2072 55.0905C54.2072 51.4405 54.2072 47.8197 54.2072 44.1622C57.1455 44.1622 60.0788 44.1622 63.0587 44.1622C62.9146 44.8239 62.7729 45.4797 62.6246 46.1605C60.5671 46.1605 58.5305 46.1605 56.4646 46.1605C56.4646 46.9189 56.4646 47.6464 56.4646 48.4197C58.203 48.4197 59.9438 48.4197 61.7171 48.4197C61.7171 49.1214 61.7171 49.7788 61.7171 50.4872C59.9813 50.4872 58.2288 50.4872 56.4555 50.4872C56.4555 51.3647 56.4555 52.1913 56.4555 53.0763C56.6105 53.0763 56.7571 53.0763 56.9038 53.0763C58.7505 53.0763 60.5971 53.083 62.4429 53.0688C62.7154 53.0663 62.8329 53.1522 62.9054 53.4047C63.0654 53.9596 63.2521 54.5063 63.4387 55.0905C60.3496 55.0905 57.303 55.0905 54.2072 55.0905Z" fill="#ED3426"/>
<path d="M100.552 55.1088C99.8251 55.1088 99.1042 55.1196 98.3851 55.0963C98.2834 55.093 98.1434 54.9413 98.0959 54.8272C97.8851 54.3155 97.6892 53.7955 97.5126 53.2713C97.4426 53.0647 97.3434 52.9972 97.1276 52.9988C95.7943 53.008 94.4618 53.0097 93.1284 52.998C92.8893 52.9955 92.7901 53.078 92.7184 53.2972C92.546 53.8238 92.3568 54.3447 92.1476 54.858C92.1035 54.9663 91.9476 55.0955 91.8393 55.0988C91.1335 55.1205 90.426 55.1096 89.6693 55.1096C89.7118 54.9646 89.7351 54.8513 89.7776 54.7455C91.1385 51.3205 92.5026 47.898 93.8576 44.4706C93.9576 44.2164 94.0751 44.1006 94.3676 44.1172C94.8801 44.1464 95.3951 44.1122 95.9084 44.1347C96.0268 44.1397 96.2068 44.2372 96.2476 44.3372C97.6976 47.8897 99.1334 51.448 100.571 55.0063C100.575 55.0163 100.566 55.0321 100.552 55.1088ZM93.5743 50.9505C94.6093 50.9505 95.5884 50.9505 96.6359 50.9505C96.1226 49.5789 95.6259 48.2505 95.0876 46.8105C94.5576 48.2614 94.0743 49.583 93.5743 50.9505Z" fill="#ED3325"/>
<path d="M85.4202 44.1556C85.2169 44.7822 85.0144 45.3564 84.8494 45.9405C84.7786 46.1922 84.6186 46.1697 84.4377 46.1697C83.4802 46.168 82.5236 46.1689 81.5169 46.1689C81.5169 49.1414 81.5169 52.1013 81.5169 55.0846C80.7528 55.0846 80.0378 55.0846 79.2853 55.0846C79.2853 52.1305 79.2853 49.1805 79.2853 46.1855C78.092 46.1855 76.9336 46.1855 75.7478 46.1855C75.7478 45.4864 75.7478 44.8322 75.7478 44.1547C78.9636 44.1556 82.1636 44.1556 85.4202 44.1556Z" fill="#ED3325"/>
<path d="M43.9489 23.9724C44.588 23.6174 44.5755 23.1382 44.4472 22.5674C44.4047 22.3799 44.6605 22.0691 44.853 21.8958C45.5014 21.3108 46.3239 21.1816 47.1497 21.2108C48.2297 21.2491 49.3072 21.3783 50.3863 21.4541C50.8147 21.4841 51.248 21.5058 51.6755 21.4783C51.9338 21.4616 52.1855 21.3441 52.5113 21.2516C52.3938 21.1499 52.3646 21.1041 52.3388 21.1058C51.498 21.1549 50.7638 20.8483 50.0605 20.4341C49.8697 20.3216 49.6705 20.2224 49.4763 20.1149C48.588 19.6233 47.6647 19.5183 46.7139 19.8983C46.0714 20.1549 45.453 20.4783 44.8005 20.7033C44.2055 20.9083 43.5855 21.0908 42.9639 21.1549C42.3514 21.2174 41.8881 20.8433 41.5831 20.3141C41.3806 19.9616 41.4389 19.7524 41.8006 19.5741C42.1231 19.4149 42.2981 19.2116 42.2564 18.8258C42.2456 18.7258 42.3997 18.5924 42.5056 18.5083C42.5272 18.4908 42.7106 18.6066 42.7514 18.6933C43.2114 19.6841 43.6505 19.9541 44.7305 19.7099C45.578 19.5191 46.403 19.2216 47.2305 18.9491C48.1313 18.6524 49.033 18.3299 49.9922 18.5883C50.4255 18.7049 50.8605 18.8891 51.2346 19.1349C52.0563 19.6741 52.843 20.2666 53.6346 20.8516C53.7055 20.9033 53.7621 21.1049 53.7238 21.1516C53.5155 21.3999 53.3021 21.6624 53.038 21.8424C52.5713 22.1607 52.0555 22.4057 51.5805 22.7124C50.8705 23.1699 50.093 23.2124 49.2955 23.1241C48.5372 23.0399 47.7797 22.9441 47.028 22.8149C46.0889 22.6541 45.373 22.9591 44.8347 23.7374C44.6572 23.9899 44.4389 24.2149 43.9489 23.9724Z" fill="#ED3527"/>
<path d="M88.3651 55.1046C87.6127 55.1046 86.9068 55.1046 86.1702 55.1046C86.1702 51.4613 86.1702 47.8214 86.1702 44.1547C86.8952 44.1547 87.6193 44.1547 88.3651 44.1547C88.3651 47.808 88.3651 51.4363 88.3651 55.1046Z" fill="#ED3528"/>
<path d="M67.7962 21.7249C67.7762 21.6382 67.7312 21.5482 67.7412 21.4641C67.8137 20.8282 67.452 20.4757 66.9104 20.3449C65.8354 20.0849 64.7529 19.8274 63.6588 19.6757C60.7129 19.2658 57.7896 19.6099 54.8755 20.0499C54.2322 20.1474 53.6597 20.0541 53.1988 19.5591C52.9872 19.3316 52.9663 19.0991 53.0963 18.7991C53.1988 18.5633 53.1713 18.2749 53.2247 18.0141C53.2597 17.8433 53.3355 17.6808 53.393 17.5141C53.4947 17.6216 53.6347 17.7124 53.693 17.8399C54.1397 18.8116 55.3155 19.3099 56.5313 19.0249C57.798 18.7274 59.0555 18.3783 60.3329 18.1374C62.6521 17.7008 64.9721 17.7741 67.2637 18.3474C67.657 18.4458 68.047 18.6308 68.3845 18.8566C68.7387 19.0933 68.7979 19.4957 68.5437 19.8057C68.1245 20.3174 67.917 20.8741 67.9837 21.5349C67.9904 21.5999 67.9254 21.6716 67.8945 21.7407C67.862 21.7357 67.8295 21.7299 67.7962 21.7249Z" fill="#ED3527"/>
<path d="M50.8496 29.9423C51.1005 29.3365 51.1255 28.4999 51.813 27.824C51.913 28.2582 52.0146 28.6049 52.0688 28.959C52.1405 29.424 52.153 29.899 52.2363 30.3615C52.2671 30.534 52.3971 30.7198 52.5346 30.8357C52.798 31.0582 53.1196 31.2115 53.3804 31.4365C53.9913 31.9615 54.1163 32.6557 53.6013 33.279C53.1863 33.7806 52.6413 34.1848 52.113 34.5773C51.8888 34.7431 51.7871 34.8923 51.7413 35.1615C51.5396 36.334 51.3088 37.5015 51.0838 38.6698C51.0671 38.7556 51.0171 38.8348 50.9821 38.9164C50.9321 38.9156 50.8813 38.9156 50.8313 38.9148C50.7446 37.7789 50.658 36.6431 50.5705 35.5015C49.8646 35.7115 49.4938 36.4548 49.698 37.2065C49.7563 37.4198 49.8463 37.6265 49.8905 37.8423C49.9771 38.2598 49.7696 38.6014 49.3371 38.7431C49.3371 38.6273 49.3238 38.5206 49.3396 38.4189C49.3913 38.0831 49.2721 37.8439 49.0038 37.629C48.293 37.0606 48.2172 36.3331 48.8722 35.7048C49.2738 35.3198 49.7871 35.044 50.2738 34.759C50.4946 34.6298 50.5763 34.504 50.5805 34.2465C50.5955 33.3482 50.6438 32.4515 50.6788 31.5532C50.3638 31.4573 50.033 31.3948 49.7388 31.2557C49.4963 31.1415 49.2605 30.9673 49.0855 30.7648C48.7172 30.3365 48.8472 30.0032 49.4063 29.9507C49.8538 29.909 50.308 29.9423 50.8496 29.9423ZM52.1463 31.8482C52.0846 32.544 52.0263 33.199 51.9655 33.874C52.5505 33.6723 52.9313 33.1932 52.9204 32.714C52.9113 32.2823 52.693 32.0207 52.1463 31.8482Z" fill="#797A7D"/>
<path d="M71.7761 32.2624C71.682 32.0499 71.5395 31.8457 71.5028 31.624C71.3178 30.5182 71.3836 29.4132 71.587 28.3149C71.9828 26.1824 72.6203 24.1458 73.9011 22.3566C74.1786 21.9683 74.5144 21.72 75.0119 21.7575C75.0936 21.7633 75.1778 21.7775 75.2553 21.8033C75.8503 22.0033 76.2344 23.4174 75.8161 23.9408C75.7794 23.9024 75.7253 23.8716 75.7136 23.8291C75.5803 23.3416 75.4169 23.2383 75.0136 23.5333C74.6303 23.8133 74.2261 24.1466 74.0053 24.5516C73.1686 26.0849 72.3653 27.6499 72.0695 29.3924C71.9128 30.3149 71.917 31.264 71.8486 32.2015C71.8245 32.2224 71.8003 32.2424 71.7761 32.2624Z" fill="#7A7B7E"/>
<path d="M68.2813 25.4465C68.298 25.559 68.3271 25.6707 68.3288 25.7832C68.3571 27.839 67.9063 29.7707 66.8463 31.5482C66.1997 32.6323 65.5547 33.7165 64.923 34.809C64.4655 35.5998 63.7397 35.7956 62.9039 35.7681C61.0722 35.7073 59.5255 34.8631 58.0031 33.964C57.4614 33.644 56.9456 33.2815 56.4172 32.9381C56.4414 32.8973 56.4656 32.8565 56.4889 32.8156C56.6672 32.9056 56.8481 32.9906 57.0239 33.0856C58.3206 33.7848 59.6364 34.4531 61.1064 34.6931C61.7989 34.8065 62.5163 34.8481 63.2172 34.8098C63.9397 34.7706 64.4805 34.3048 64.8572 33.7165C65.5372 32.6548 66.218 31.589 66.8147 30.4798C67.6055 29.0123 68.0646 27.4307 68.1471 25.7532C68.1521 25.6515 68.1746 25.5515 68.1888 25.4507C68.2205 25.449 68.2505 25.4474 68.2813 25.4465Z" fill="#7C7D80"/>
<path d="M62.032 17.2133C61.9479 17.25 61.8662 17.3058 61.7804 17.3158C61.722 17.3225 61.652 17.2717 61.5946 17.235C60.4912 16.5333 59.4087 15.7967 58.2771 15.1433C57.8362 14.8883 57.2896 14.8175 56.7888 14.6675C56.3529 14.5367 55.8946 14.4583 55.4863 14.27C55.2438 14.1584 55.0638 13.89 54.8904 13.6659C54.8396 13.6 54.8696 13.4134 54.9304 13.3384C54.9688 13.2909 55.1713 13.3067 55.2379 13.365C55.6104 13.6917 56.0046 13.7275 56.4746 13.5959C57.1479 13.4075 57.7304 13.5984 58.1829 14.1525C58.3229 14.3242 58.4829 14.4792 58.6421 14.6333C59.1671 15.1417 59.4879 15.1917 60.1337 14.8742C60.5621 14.6633 60.9462 14.7567 61.1479 15.1725C61.4379 15.77 61.6904 16.385 61.9579 16.9933C61.9795 17.0442 61.9929 17.0975 62.032 17.2133Z" fill="#7A7B7E"/>
<path d="M62.0171 29.4357C62.0238 29.424 62.0304 29.4015 62.0379 29.4015C62.7221 29.369 63.4071 29.3357 64.0921 29.3082C64.2854 29.3007 64.4829 29.3349 64.6729 29.3115C65.1779 29.249 65.3871 29.0115 65.3462 28.4982C65.2946 27.8632 65.1679 27.2332 65.1371 26.5982C65.1062 25.9666 65.0887 25.3207 65.1846 24.6999C65.2862 24.0424 65.7262 23.5949 66.3879 23.3974C66.8837 23.2491 67.3762 23.0983 67.9179 23.2883C67.6279 23.3791 67.327 23.4449 67.0504 23.5666C66.7587 23.6949 66.4729 23.8616 66.4879 24.2699C66.7162 24.3541 66.962 24.4074 67.1679 24.5299C67.5779 24.7741 67.5654 25.0724 67.1579 25.3041C67.0379 25.3724 66.9137 25.4482 66.7829 25.4774C66.6879 25.4982 66.5445 25.4799 66.4829 25.4191C66.4312 25.3682 66.4754 25.2282 66.4629 25.1291C66.4496 25.0299 66.4187 24.9324 66.3954 24.8341C66.3087 24.9008 66.1637 24.9541 66.1454 25.0357C66.0271 25.5607 65.9104 26.0891 65.8429 26.6224C65.7571 27.2957 65.7329 27.9766 65.6546 28.6516C65.5921 29.1915 65.0187 29.7999 64.5004 29.8857C64.3846 29.9049 64.2412 29.8232 64.1237 29.7615C63.8212 29.6032 63.5529 29.564 63.2337 29.7757C62.8212 30.0474 62.1938 29.8449 62.0171 29.4357Z" fill="#7B7C7F"/>
<path d="M71.0428 33.8065C71.0111 33.899 71.0095 33.9398 70.992 33.9482C70.0695 34.4007 69.8528 35.2565 69.762 36.1606C69.6578 37.2081 69.2686 38.0906 68.5295 38.8598C68.1436 39.2614 67.907 39.8073 67.5862 40.3148C67.5445 40.2339 67.4353 40.1056 67.4103 39.9631C67.257 39.0981 67.3262 38.2206 68.1053 37.7198C69.1128 37.0731 69.507 36.2898 69.2795 35.1056C69.1928 34.6557 69.3245 34.1423 69.4478 33.6823C69.5061 33.4657 69.7603 33.2807 69.9645 33.1348C70.0345 33.0848 70.3245 33.179 70.337 33.2423C70.4053 33.579 70.6461 33.6723 70.9195 33.749C70.9736 33.7648 71.0211 33.7965 71.0428 33.8065Z" fill="#7A7B7E"/>
<path d="M52.4472 24.3641C52.738 24.6841 53.0405 24.9941 53.3114 25.3291C53.4097 25.4507 53.5022 25.6457 53.4772 25.7857C53.2722 26.9191 53.2764 28.0407 53.5797 29.1574C53.5989 29.2274 53.5747 29.3099 53.5705 29.4024C52.7164 28.8024 51.898 25.0707 52.4472 24.3641Z" fill="#7B7C7F"/>
<path d="M62.662 22.5991C62.5328 22.6066 62.4037 22.6191 62.2745 22.6199C60.9787 22.6308 59.7479 22.9349 58.5737 23.4691C58.3487 23.5716 58.152 23.7349 57.9337 23.8533C57.8587 23.8941 57.7554 23.8841 57.6654 23.8974C57.6595 23.8116 57.6504 23.7258 57.6495 23.6399C57.6495 23.4083 57.6929 23.1674 57.6445 22.9458C57.5845 22.6708 57.7537 22.6358 57.9262 22.5883C59.1304 22.2599 60.3537 22.1641 61.5937 22.3108C61.9537 22.3533 62.312 22.4099 62.6712 22.4599C62.6687 22.5066 62.6653 22.5524 62.662 22.5991Z" fill="#7B7C7F"/>
<path d="M62.5604 24.2882C62.1371 24.2565 61.7146 24.2249 61.3013 24.1932C61.2804 24.304 61.2663 24.3324 61.2721 24.3549C61.3246 24.5607 61.4579 24.929 61.4221 24.9457C61.0838 25.1074 60.7171 25.209 60.3588 25.3282C60.3338 25.2357 60.2605 25.1182 60.2938 25.0574C60.3463 24.9599 60.4688 24.9007 60.5738 24.8149C60.3488 24.4649 60.073 24.5215 59.7988 24.6465C59.553 24.759 59.3205 24.8999 59.0371 25.0524C59.0371 24.8782 59.0405 24.7749 59.0363 24.6724C59.0113 23.9874 59.0088 23.9524 59.7096 23.9166C60.4521 23.8782 61.1996 23.899 61.9429 23.9315C62.1629 23.9415 62.3779 24.0799 62.5946 24.159C62.5846 24.2024 62.5729 24.2457 62.5604 24.2882Z" fill="#7B7C7F"/>
<path d="M51.6512 25.7216C51.6512 25.7857 51.6662 25.8549 51.6487 25.9141C51.3354 26.9857 50.7571 27.8799 49.8579 28.5516C49.7638 28.6216 49.6188 28.6241 49.4979 28.6574C49.5071 28.5174 49.4988 28.3741 49.5296 28.2391C49.5529 28.1357 49.6846 28.0291 49.6654 27.9491C49.5371 27.4324 49.9246 27.3349 50.2371 27.1007C50.6613 26.7832 50.9954 26.3449 51.3646 25.9557C51.4379 25.8782 51.4954 25.7866 51.5604 25.7007C51.5912 25.7074 51.6212 25.7141 51.6512 25.7216Z" fill="#7C7D80"/>
<path d="M72.272 36.7923C71.4695 37.319 71.172 38.1856 70.7404 39.0631C70.662 38.8956 70.637 38.8106 70.5879 38.7431C70.4929 38.6123 70.4079 38.424 70.277 38.3781C69.9929 38.279 70.0087 38.1265 70.1387 37.9415C70.6479 37.2115 71.3187 36.759 72.272 36.7923Z" fill="#7B7C7F"/>
<path d="M67.0703 17.2775C66.9878 17.1666 66.8444 17.0233 66.7611 16.8516C66.5719 16.4625 66.4128 16.0591 66.2411 15.6616C66.1928 15.55 66.1169 15.4392 66.1111 15.325C66.1069 15.2525 66.1953 15.1383 66.2678 15.11C66.3286 15.0867 66.4761 15.1392 66.5011 15.1958C66.7111 15.6658 67.1628 15.8383 67.5519 16.0925C67.7836 16.2433 68.0353 16.4058 67.9319 16.7483C67.8261 17.1058 67.5311 17.2108 67.0703 17.2775Z" fill="#7B7C7F"/>
<path d="M61.1454 31.5423C61.6579 31.2773 62.157 31.0548 62.617 30.769C62.9437 30.5657 63.2129 30.524 63.5195 30.7707C63.7845 30.984 64.042 31.0557 64.307 30.7365C64.4812 30.5265 64.6554 30.6132 64.7445 30.8432C64.812 31.0173 64.8487 31.2032 64.9145 31.4415C64.4587 31.3032 64.0404 31.0765 63.7145 31.5448C63.6204 31.4832 63.5537 31.4557 63.5079 31.4073C63.1587 31.0448 62.8179 31.0698 62.4054 31.339C62.1412 31.5115 61.802 31.5832 61.4862 31.654C61.3696 31.679 61.2229 31.5698 61.1454 31.5423Z" fill="#7D7E81"/>
<path d="M64.5312 31.8356C64.4662 32.5015 64.1362 32.9215 63.687 32.9931C63.1979 33.0706 62.2529 32.5823 62.1021 31.974C62.9104 32.1556 63.7162 32.5215 64.5312 31.8356Z" fill="#7C7D80"/>
<path d="M72.5303 34.8582C72.1528 35.324 71.772 35.7948 71.3745 36.2865C71.2545 36.0406 71.1537 35.834 71.037 35.5948C71.2628 35.1273 72.0061 34.7482 72.5303 34.8582Z" fill="#7D7E81"/>
<path d="M52.1463 31.8481C52.693 32.0198 52.9113 32.2823 52.9213 32.714C52.9321 33.1931 52.5513 33.6723 51.9663 33.874C52.0255 33.199 52.0838 32.5448 52.1463 31.8481Z" fill="#F9F9F9"/>
</svg>
