<svg width="120" height="68" viewBox="0 0 120 68" fill="none" xmlns="http://www.w3.org/2000/svg">
<path d="M10 33.9713C10.0239 26.7319 15.9014 20.938 23.1086 21.0005C30.1789 21.0621 35.9829 26.7769 35.9774 33.9851C35.9719 41.4064 29.8849 47.0487 22.8412 46.9678C15.9271 46.8888 10.0202 41.2879 10 33.9713ZM12.6226 34.0659C12.596 39.6136 17.096 44.4306 23.0011 44.4261C28.8575 44.4215 33.3621 39.6577 33.3667 34.0687C33.3713 28.4053 28.8015 23.727 23.07 23.6856C17.2091 23.6443 12.5877 28.4218 12.6226 34.0659Z" fill="#2397CB"/>
<path d="M95.6449 34.4657C95.6339 30.4748 98.8106 27.2594 102.773 27.2521C106.759 27.2438 109.962 30.4289 110 34.3794C110.037 38.3593 106.861 41.6096 102.838 41.6243C98.8253 41.639 95.6311 38.4346 95.6449 34.4657ZM98.2464 34.4419C98.2207 36.8908 100.229 39.0062 102.781 39.0228C105.284 39.0384 107.359 36.9956 107.397 34.5347C107.436 32.0655 105.411 29.8757 102.851 29.8527C100.296 29.8288 98.2372 31.9708 98.2464 34.4419Z" fill="#2397CB"/>
<path d="M67.2543 35.7816C67.4896 36.219 67.7147 36.639 67.9408 37.058C68.5997 38.2793 69.2585 39.4996 69.9165 40.7209C69.9514 40.7852 69.9882 40.8496 70.0121 40.9185C70.092 41.1547 69.967 41.3678 69.7217 41.412C69.65 41.4248 69.5756 41.4257 69.5021 41.4257C68.8928 41.4267 68.2826 41.4202 67.6734 41.4294C67.4243 41.4331 67.27 41.3476 67.1542 41.1151C66.3345 39.4656 65.501 37.8226 64.6804 36.174C64.5995 36.0123 64.5113 35.9525 64.3303 35.9562C63.7578 35.9682 63.1844 35.9608 62.6119 35.9608C62.5393 35.9608 62.4667 35.9608 62.3619 35.9608C62.3619 36.061 62.3619 36.1464 62.3619 36.2319C62.3619 37.7665 62.3619 39.3012 62.3619 40.8367C62.3619 40.8955 62.3638 40.9543 62.361 41.0131C62.3481 41.2594 62.2066 41.4064 61.9613 41.4248C61.8593 41.4322 61.7554 41.4276 61.6525 41.4276C61.1967 41.4276 60.7418 41.4285 60.286 41.4267C60.2125 41.4267 60.1381 41.4267 60.0673 41.4138C59.8946 41.3816 59.7815 41.2567 59.7641 41.083C59.7567 41.0104 59.7604 40.9359 59.7604 40.8624C59.7604 36.5811 59.7604 32.2998 59.7604 28.0184C59.7604 27.5461 59.8578 27.4459 60.3256 27.4459C62.1322 27.4459 63.9397 27.4441 65.7464 27.4459C67.0191 27.4469 68.1218 27.8723 69.0095 28.7959C69.8393 29.6587 70.2427 30.7027 70.1986 31.8954C70.1527 33.148 69.5903 34.1588 68.6364 34.9583C68.2854 35.2523 67.8967 35.4876 67.4795 35.6769C67.4133 35.7063 67.3472 35.7384 67.2543 35.7816ZM62.3867 29.8609C62.3867 31.1833 62.3867 32.4863 62.3867 33.805C62.4685 33.8087 62.5402 33.8151 62.6119 33.8151C63.6117 33.816 64.6106 33.8096 65.6104 33.8169C66.6377 33.8252 67.6348 32.9329 67.5999 31.7227C67.5705 30.71 66.6864 29.8618 65.6729 29.8545C64.6299 29.8471 63.5859 29.8526 62.543 29.8526C62.4988 29.8526 62.4547 29.8572 62.3867 29.8609Z" fill="#2396CB"/>
<path d="M79.2254 41.6362C75.999 41.616 73.2091 39.5474 72.3177 36.469C71.1534 32.4459 73.6052 28.3208 77.6632 27.4285C79.264 27.0765 80.8308 27.207 82.3286 27.9119C82.9581 28.2078 83.5159 28.613 84.0342 29.0734C84.2593 29.2737 84.2694 29.4832 84.0608 29.7019C83.6758 30.1054 83.2862 30.506 82.8965 30.9048C82.71 31.096 82.5712 31.1015 82.3617 30.9214C81.7543 30.3994 81.0623 30.041 80.2822 29.8646C78.2513 29.4042 76.2021 30.3902 75.3337 32.297C74.502 34.122 74.6932 35.8662 75.9604 37.4366C76.724 38.3832 77.7496 38.8886 78.9681 38.986C80.1829 39.0834 81.2599 38.7176 82.2128 37.9816C82.5905 37.6894 82.7587 37.7224 83.05 38.0413C83.3661 38.3887 83.7006 38.7195 84.0287 39.0567C84.2869 39.3223 84.285 39.5052 84.0094 39.7652C83.1134 40.6107 82.0621 41.1694 80.8611 41.4441C80.6258 41.4984 80.386 41.5425 80.1461 41.57C79.8411 41.6022 79.5323 41.6141 79.2254 41.6362Z" fill="#2397CB"/>
<path d="M46.4239 41.6279C44.9307 41.6059 43.6414 41.2705 42.4918 40.4774C42.2988 40.3442 42.1169 40.1935 41.945 40.0345C41.7475 39.8516 41.7273 39.7358 41.8541 39.507C42.0976 39.0714 42.3475 38.6386 42.6058 38.2122C42.7482 37.977 43.0174 37.9264 43.261 38.0753C43.4861 38.2132 43.703 38.3657 43.9309 38.4999C44.5015 38.838 45.0961 39.1229 45.7504 39.2635C46.3008 39.3821 46.8338 39.3389 47.3291 39.054C48.2168 38.5431 48.2756 37.5543 47.8262 36.8862C47.6434 36.6142 47.4054 36.3973 47.1389 36.2099C46.6858 35.891 46.1896 35.6539 45.6778 35.4453C44.9895 35.165 44.3168 34.8544 43.7039 34.4281C43.0983 34.0081 42.5782 33.5064 42.2336 32.8456C41.3 31.0537 41.9009 28.5891 44.1422 27.6509C45.0354 27.2769 45.9718 27.1878 46.9303 27.287C48.1405 27.412 49.2341 27.8485 50.2302 28.5377C50.3009 28.5864 50.3745 28.6452 50.4204 28.7159C50.5334 28.8915 50.5344 29.0789 50.4186 29.2554C50.1649 29.6422 49.9086 30.0273 49.6476 30.4095C49.5989 30.4803 49.5309 30.5437 49.4601 30.5933C49.2892 30.7137 49.1173 30.7211 48.9262 30.6117C48.5063 30.371 48.0826 30.1357 47.6489 29.9197C47.3006 29.7461 46.9294 29.6211 46.5416 29.5641C45.9838 29.4823 45.4554 29.5568 44.9932 29.906C44.4133 30.3425 44.2718 31.0353 44.6256 31.6712C44.7717 31.9331 44.9794 32.1399 45.2146 32.3191C45.6686 32.6655 46.1795 32.9054 46.7042 33.1204C47.4118 33.4099 48.112 33.7131 48.7626 34.1193C49.3149 34.4648 49.8157 34.8691 50.2118 35.3911C51.355 36.8991 51.1776 39.042 49.8029 40.3451C49.0392 41.0692 48.1203 41.4561 47.0837 41.5783C46.8292 41.6077 46.5719 41.6169 46.4239 41.6279Z" fill="#2397CB"/>
<path d="M89.3042 39.0227C89.4219 39.0227 89.5018 39.0227 89.5827 39.0227C91.1256 39.0227 92.6685 39.0227 94.2123 39.0227C94.2785 39.0227 94.3446 39.019 94.4108 39.0245C94.6084 39.0411 94.7646 39.1808 94.7673 39.3783C94.7765 39.9361 94.7765 40.4948 94.7682 41.0526C94.7655 41.2594 94.6304 41.3899 94.4236 41.4174C94.3584 41.4266 94.2913 41.4248 94.2261 41.4248C91.8966 41.4248 89.5671 41.4248 87.2385 41.4248C87.165 41.4248 87.0905 41.4266 87.0189 41.4138C86.836 41.3816 86.722 41.253 86.7055 41.0673C86.7 41.0085 86.7037 40.9497 86.7037 40.8909C86.7037 36.5866 86.7037 32.2823 86.7037 27.9771C86.7037 27.9256 86.7009 27.8741 86.7046 27.8227C86.7184 27.6141 86.8341 27.4882 87.0437 27.4542C87.0869 27.4468 87.131 27.4432 87.1751 27.4432C87.7264 27.4422 88.2769 27.4404 88.8282 27.445C88.9211 27.4459 89.0203 27.4661 89.103 27.5057C89.2307 27.5663 89.2923 27.6858 89.3024 27.8273C89.3079 27.9008 89.3042 27.9743 89.3042 28.0478C89.3042 31.6105 89.3042 35.1733 89.3042 38.7351C89.3042 38.8242 89.3042 38.9106 89.3042 39.0227Z" fill="#2396CB"/>
<path d="M53.5099 34.4363C53.5099 32.2998 53.5099 30.1632 53.5099 28.0276C53.5099 27.9688 53.5071 27.91 53.5108 27.8512C53.5228 27.6261 53.6514 27.4836 53.8747 27.4524C53.9326 27.4441 53.9923 27.4459 54.0502 27.4459C54.5566 27.445 55.0638 27.445 55.5702 27.4459C55.651 27.4459 55.7319 27.4487 55.8109 27.4625C55.9809 27.4919 56.0848 27.5994 56.1178 27.7666C56.1335 27.8448 56.1325 27.9275 56.1325 28.0074C56.1335 32.2943 56.1335 36.582 56.1325 40.8689C56.1325 40.9277 56.1353 40.9865 56.1298 41.0453C56.1068 41.2668 55.9671 41.4037 55.7429 41.4248C55.7062 41.4285 55.6694 41.4267 55.6326 41.4267C55.0969 41.4267 54.5602 41.4267 54.0245 41.4267C53.9877 41.4267 53.951 41.4276 53.9142 41.4248C53.6551 41.4055 53.5108 41.2594 53.509 40.9984C53.5053 40.5288 53.5081 40.0584 53.5081 39.5888C53.5099 37.8713 53.5099 36.1538 53.5099 34.4363Z" fill="#2396CB"/>
<path d="M22.9883 43.1074C17.8579 43.0881 13.9312 38.8931 13.9395 34.0421C13.9478 29.1524 17.9415 24.9722 23.0618 25.0089C28.0709 25.0447 32.0518 29.1469 32.0444 34.0715C32.0361 38.9731 28.0627 43.0945 22.9883 43.1074ZM24.5055 30.1504C23.3651 30.1917 22.2632 30.8056 21.5088 32.0103C21.1302 32.614 20.9482 33.283 20.962 33.9998C20.9694 34.3536 21.2441 34.6274 21.5915 34.6394C21.9333 34.6513 22.2265 34.3848 22.255 34.0338C22.2632 33.9318 22.2697 33.8289 22.2798 33.7269C22.4259 32.2483 23.8245 31.2062 25.2764 31.4957C26.4995 31.7401 27.2411 32.7537 27.3211 33.7673C27.424 35.0841 26.5694 36.0913 25.5484 36.4056C25.3013 36.4818 25.0476 36.5085 24.7894 36.5186C24.4099 36.5324 24.1333 36.8301 24.1425 37.1894C24.1517 37.5478 24.4439 37.8281 24.8243 37.8244C25.0219 37.8226 25.2213 37.8079 25.4161 37.7748C27.5628 37.4063 28.8658 35.4287 28.6048 33.4944C28.3457 31.5747 26.7238 30.1439 24.5055 30.1504ZM17.3359 33.975C17.3543 34.1643 17.3644 34.3554 17.391 34.5438C17.6557 36.3899 19.251 37.8115 21.1155 37.8198C22.6023 37.8262 23.7409 37.1646 24.51 35.8937C24.8638 35.3102 25.0311 34.666 25.0228 33.9823C25.0173 33.5734 24.6663 33.2784 24.272 33.3382C23.966 33.3841 23.7446 33.6396 23.7152 33.9869C23.7032 34.1257 23.7097 34.2672 23.6858 34.4041C23.4634 35.6925 22.3285 36.5407 21.132 36.5177C19.5074 36.4864 18.1868 34.8645 18.8108 33.1047C19.1159 32.2455 19.953 31.4727 21.1872 31.4442C21.5575 31.435 21.8451 31.1575 21.8396 30.8056C21.8332 30.4214 21.5354 30.1366 21.1798 30.1513C20.9749 30.1596 20.7681 30.1678 20.566 30.2C18.7116 30.5005 17.3506 32.1013 17.3359 33.975Z" fill="#2396CB"/>
</svg>
