<svg width="120" height="68" viewBox="0 0 120 68" fill="none" xmlns="http://www.w3.org/2000/svg">
<g clip-path="url(#clip0_1187:30258)">
<path d="M27.7054 30.7631H25.3456L25.1982 30.3232L30.3599 24.8944H30.581V28.3421H34.4899C34.5797 28.727 34.6291 29.1202 34.6373 29.5153V30.1753C34.6373 30.3953 34.5635 30.5419 34.5635 30.7619H30.6547V38.0946C30.6348 38.7558 30.6594 39.4177 30.7285 40.0757C30.7845 40.4845 30.9091 40.8811 31.0969 41.2489C31.1597 41.3801 31.2523 41.495 31.3674 41.5843C31.4826 41.6736 31.6171 41.735 31.7603 41.7635C32.1211 41.8582 32.4925 41.9074 32.8658 41.9102C33.187 41.9252 33.5088 41.9005 33.824 41.8368C34.1187 41.7635 34.4135 41.7635 34.6347 41.6902C34.7857 42.0889 34.8607 42.512 34.8558 42.938C34.8558 43.378 34.9295 43.7446 34.9295 44.0379C34.561 44.1112 34.1187 44.1846 33.6752 44.2579C33.2109 44.3209 32.7421 44.3455 32.2736 44.3312C31.0565 44.3965 29.8553 44.032 28.882 43.3021C28.429 42.8407 28.0822 42.2868 27.8656 41.6789C27.6491 41.0709 27.5679 40.4234 27.6278 39.7811V30.7631H27.7054Z" fill="#1F1F1F"/>
<path d="M42.6754 44.4844C41.5904 44.4949 40.5136 44.2957 39.5049 43.8978C38.6289 43.5067 37.8489 42.9308 37.2189 42.21C36.6034 41.4521 36.1515 40.5763 35.8909 39.6371C35.5896 38.6128 35.4406 37.55 35.4487 36.4827C35.4352 35.4151 35.5843 34.3516 35.8909 33.3284C36.1674 32.3955 36.6179 31.5226 37.2189 30.7555C37.813 29.9971 38.6032 29.4138 39.5049 29.0677C40.5039 28.6331 41.5825 28.4087 42.6729 28.4087C43.7632 28.4087 44.8417 28.6331 45.8408 29.0677C46.7016 29.4841 47.4768 30.0564 48.1268 30.7555C48.7422 31.5133 49.1943 32.3892 49.4548 33.3284C49.7677 34.3273 49.917 35.3697 49.897 36.4159C49.9105 37.4835 49.7614 38.547 49.4548 39.5702C49.1783 40.5031 48.7278 41.3759 48.1268 42.1431C47.5327 42.9014 46.7425 43.4848 45.8408 43.8309C44.8494 44.2857 43.7668 44.5093 42.6754 44.4844ZM42.6754 42.0633C43.2756 42.1019 43.8756 41.9873 44.4187 41.7305C44.9618 41.4736 45.4299 41.0829 45.7787 40.5955C46.5185 39.3286 46.8775 37.8771 46.8131 36.4133C46.8775 34.9495 46.5185 33.498 45.7787 32.231C45.442 31.7313 44.976 31.3312 44.4298 31.0729C43.8836 30.8145 43.2776 30.7076 42.6754 30.7632C42.0753 30.7246 41.4753 30.8393 40.9322 31.0961C40.3891 31.353 39.9209 31.7437 39.5722 32.231C38.8511 33.5029 38.5182 34.9562 38.614 36.4133C38.5276 37.8696 38.86 39.3203 39.5722 40.5955C39.9209 41.0829 40.3891 41.4736 40.9322 41.7305C41.4753 41.9873 42.0753 42.1019 42.6754 42.0633Z" fill="#1F1F1F"/>
<path d="M62.5857 41.4017C62.7331 41.695 62.8805 42.0616 63.028 42.4308C63.173 42.8564 63.2477 43.3026 63.249 43.7519C61.9467 44.2084 60.5734 44.4318 59.1928 44.4119C58.1194 44.4885 57.0421 44.3312 56.0361 43.9511C55.03 43.5709 54.1194 42.977 53.3677 42.2108C51.9727 40.5796 51.2599 38.4781 51.3765 36.3395C51.35 35.2652 51.5254 34.1954 51.8937 33.1851C52.1959 32.2482 52.6713 31.3757 53.2953 30.6122C53.9326 29.8675 54.7425 29.2882 55.6551 28.9245C56.6996 28.4669 57.8319 28.2416 58.973 28.2645C59.7127 28.2693 60.4515 28.3183 61.1854 28.4112C61.8194 28.5044 62.4389 28.6773 63.0292 28.9257C63.012 29.3201 62.9627 29.7125 62.8818 30.099C62.8144 30.5052 62.6904 30.9 62.5133 31.2722C61.4227 30.9005 60.274 30.7262 59.1217 30.7576C58.4607 30.709 57.798 30.8246 57.1931 31.0941C56.5882 31.3635 56.0601 31.7784 55.6564 32.3014C54.8418 33.4875 54.4287 34.9012 54.4771 36.3369C54.3579 37.872 54.833 39.3944 55.8051 40.5924C56.2739 41.0402 56.8294 41.3884 57.4379 41.6155C58.0463 41.8427 58.6949 41.9441 59.3441 41.9136C59.9123 41.9045 60.4792 41.8555 61.0406 41.767C61.5751 41.7502 62.1007 41.6259 62.5857 41.4017Z" fill="#1F1F1F"/>
<path d="M64.7974 21.813C65.0374 21.7486 65.2864 21.7239 65.5345 21.7397H67.0098C67.3046 21.7397 67.527 21.813 67.7468 21.813V44.2627C67.5062 44.3233 67.2578 44.348 67.0098 44.336H65.5345C65.2397 44.336 65.0173 44.2627 64.7974 44.2627V21.813Z" fill="#1F1F1F"/>
<path d="M78.5862 22.033C78.8262 21.9686 79.0752 21.9439 79.3233 21.9597H80.7986C81.0936 21.9597 81.3155 22.033 81.5359 22.033V30.5429C81.9718 29.9034 82.5528 29.3747 83.2324 28.9991C84.0894 28.5323 85.0577 28.3043 86.0338 28.3392C86.9155 28.3291 87.7922 28.4782 88.6204 28.7791C89.4056 29.0424 90.0971 29.5268 90.6112 30.1736C91.2246 30.8756 91.6781 31.7017 91.9394 32.5947C92.2549 33.7163 92.4042 34.8779 92.3816 36.0424C92.4485 37.1836 92.2802 38.3263 91.8859 39.4001C91.4922 40.4739 90.8809 41.456 90.0901 42.2855C89.214 43.0741 88.1894 43.6813 87.0753 44.0718C85.9612 44.4623 84.7802 44.6282 83.6007 44.5599C82.6866 44.5567 81.7746 44.4831 80.8725 44.3399C80.0698 44.2143 79.2801 44.018 78.5125 43.7533V22.033H78.5862ZM81.6155 41.6217C81.9901 41.7718 82.3915 41.8465 82.795 41.8417C83.2098 41.9027 83.6295 41.9272 84.0493 41.915C84.7542 41.9071 85.4535 41.7831 86.1183 41.5484C86.7338 41.3386 87.2901 40.9858 87.7408 40.5192C88.2253 39.985 88.6014 39.3619 88.8464 38.6847C89.1549 37.8624 89.3049 36.9895 89.2887 36.1119C89.364 34.7589 89.0577 33.4119 88.4042 32.2229C88.0964 31.7516 87.6647 31.3731 87.1556 31.1286C86.6471 30.8841 86.0809 30.783 85.5183 30.8362C85.0429 30.8429 84.5711 30.917 84.1162 31.0561C83.6464 31.1993 83.2169 31.4505 82.8619 31.7894C82.4852 32.1693 82.1845 32.6178 81.9781 33.1106C81.7359 33.7434 81.6105 34.4146 81.6091 35.0917L81.6155 41.6217Z" fill="#1F1F1F"/>
<path d="M94.8134 30.837H92.8226C92.7571 30.6487 92.7317 30.4489 92.7486 30.2504V28.9293C92.7486 28.7093 92.8226 28.4893 92.8226 28.3427H97.8366V44.2624C97.5965 44.3229 97.3479 44.3477 97.1 44.3357H95.6247C95.3296 44.3357 95.1071 44.2624 94.8873 44.2624V30.837H94.8134Z" fill="#1F1F1F"/>
<path d="M101.594 30.7631H99.2338L99.0859 30.3232L104.248 24.8944H104.469V28.3421H108.378C108.468 28.727 108.517 29.1202 108.525 29.5153V30.1753C108.525 30.3953 108.451 30.5419 108.451 30.7619H104.543V38.0946C104.523 38.7558 104.547 39.4177 104.616 40.0757C104.673 40.4845 104.797 40.8811 104.985 41.2489C105.048 41.3802 105.14 41.495 105.256 41.5844C105.37 41.6737 105.505 41.735 105.649 41.7635C106.009 41.8582 106.38 41.9074 106.754 41.9102C107.075 41.9251 107.397 41.9005 107.712 41.8368C108.007 41.7635 108.301 41.7635 108.523 41.6902C108.674 42.0889 108.749 42.512 108.744 42.938C108.744 43.378 108.818 43.7446 108.818 44.0379C108.449 44.1112 108.007 44.1846 107.563 44.2579C107.099 44.3209 106.63 44.3454 106.161 44.3312C104.944 44.3965 103.744 44.032 102.77 43.3021C102.317 42.8405 101.97 42.2866 101.754 41.6786C101.538 41.0708 101.457 40.4233 101.517 39.7811V30.7631H101.594Z" fill="#1F1F1F"/>
<path d="M68.4841 36.1932L73.4984 28.5634C73.7641 28.5027 74.0369 28.478 74.3092 28.49H76.0056C76.3004 28.49 76.5953 28.5634 76.8163 28.5634L71.802 35.8961L77.7008 44.258C77.4346 44.3155 77.1623 44.3401 76.8901 44.3313H75.1949C74.9001 44.3313 74.6053 44.258 74.3105 44.258L68.4841 36.1932Z" fill="#1F1F1F"/>
<path d="M18.1926 31.0574H17.8177C17.1782 31.0454 16.5491 30.8953 15.9738 30.6174C15.4607 30.3793 15.0315 29.9931 14.7421 29.509C14.4527 29.0249 14.3164 28.4652 14.351 27.903C14.3341 27.3554 14.4326 26.8102 14.6402 26.3027C14.8478 25.7952 15.16 25.3366 15.5566 24.9564C15.9532 24.5763 16.4255 24.283 16.943 24.0954C17.4605 23.9078 18.0117 23.8302 18.5611 23.8675C20.4783 23.8675 21.5842 24.9678 21.8791 27.1685L21.9553 27.4618H24.0242V22.7663L23.8031 22.693C22.148 22.202 20.435 21.9308 18.7085 21.8864C16.054 21.8864 11.5555 22.7663 11.5555 28.6363C11.5555 34.1384 17.4543 34.2117 17.7504 34.2117C18.0465 34.2117 22.1751 34.6517 22.1751 37.954C22.1751 41.9896 19.7417 42.2829 17.4556 42.2829C16.9486 42.3356 16.4362 42.2751 15.9557 42.1057C15.4753 41.9362 15.0389 41.6622 14.6785 41.3036C14.318 40.945 14.0426 40.5109 13.8723 40.0328C13.702 39.5548 13.6412 39.045 13.6942 38.5406V38.174H11.4818V42.3562L11.6292 42.5028C13.3968 43.5776 15.3906 44.2306 17.4543 44.4107C22.616 44.4107 25.2707 41.9162 25.2707 37.1474C25.272 31.7173 19.6667 31.1307 18.1926 31.0574Z" fill="#1F1F1F"/>
<path d="M102.405 11.9819H100.119V9.70742H87.0655C86.9486 9.7029 86.831 9.72257 86.7218 9.76519C86.6127 9.80781 86.5134 9.87246 86.4303 9.95509C86.3472 10.0377 86.2824 10.1365 86.2394 10.2453C86.1965 10.3541 86.1768 10.4706 86.181 10.5874V21.4449C86.1768 21.5617 86.1965 21.6781 86.2394 21.787C86.2824 21.8958 86.3472 21.9946 86.4303 22.0772C86.5134 22.1598 86.6127 22.2245 86.7218 22.2671C86.831 22.3097 86.9486 22.3293 87.0655 22.3248H93.6289V22.3981L95.181 24.8193C95.2542 24.9659 95.3282 24.9659 95.4753 24.9659C95.5866 24.9477 95.6894 24.8965 95.7704 24.8193L97.3218 22.3981V22.3248H103.885C104.003 22.3293 104.12 22.3097 104.229 22.2671C104.339 22.2245 104.438 22.1598 104.521 22.0772C104.604 21.9946 104.669 21.8958 104.712 21.787C104.755 21.6781 104.775 21.5617 104.77 21.4449V14.3296H102.473V11.9819H102.405Z" fill="#1F1F1F"/>
<path d="M103.658 8.46069H101.372V10.7351H103.658V8.46069Z" fill="#1F1F1F"/>
<path d="M107.641 10.7357H105.355V13.0101H107.641V10.7357Z" fill="#1F1F1F"/>
<path d="M110 6.25995H107.714V8.53438H110V6.25995Z" fill="#1F1F1F"/>
<path d="M90.9359 19.6128C90.862 19.6128 90.7881 19.6128 90.6409 19.4661L87.6176 16.4584C87.5233 16.3596 87.4705 16.2283 87.4705 16.0918C87.4705 15.9553 87.5233 15.8239 87.6176 15.7251L88.0599 15.2852C88.1592 15.191 88.2916 15.1384 88.4289 15.1384C88.5655 15.1384 88.6979 15.191 88.7972 15.2852L91.0092 17.4863C91.1803 17.6667 91.2838 17.8993 91.3043 18.1462L91.2303 19.2461C91.2395 19.3334 91.2134 19.4208 91.1585 19.4893C91.1028 19.5578 91.0233 19.6021 90.9359 19.6128Z" fill="#D6403D"/>
<path d="M89.7366 18.5831L90.8176 17.2579L91.1261 17.5495L91.2028 17.6224L89.8028 18.6494L89.7366 18.5831Z" fill="#A63131"/>
<path d="M91.0493 19.6862C90.9127 19.6834 90.7817 19.6312 90.681 19.5395L89.7965 18.6596L94.3683 14.9174C94.4423 14.8441 94.5155 14.8441 94.6634 14.8441C94.8106 14.8441 94.9578 14.9907 95.0317 15.2107V16.2398C95.0113 16.4867 94.9078 16.7194 94.7367 16.8998L91.493 19.5408C91.3493 19.6014 91.2014 19.6505 91.0507 19.6875L91.0493 19.6862Z" fill="#5780C1"/>
<path d="M96.9472 18.2917C96.9071 18.2966 96.8662 18.2925 96.8282 18.2798C96.7902 18.2672 96.7549 18.2462 96.7261 18.2184L93.3345 15.7973L93.7768 15.4307L94.2937 14.9907C94.3944 14.899 94.5254 14.8469 94.662 14.8441C94.8099 14.8441 94.8831 14.9174 95.031 14.9174L96.8747 16.2386C96.9817 16.3143 97.0704 16.4128 97.1338 16.527C97.1979 16.6412 97.2352 16.7681 97.243 16.8985L97.3169 17.9276C97.3169 18.0743 97.243 18.1476 97.243 18.221C97.1697 18.2917 97.0958 18.2917 96.9472 18.2917Z" fill="#FFCD3F"/>
<path d="M97.0951 18.365C96.9479 18.365 96.874 18.2917 96.7268 18.2917L95.6923 17.5584L100.338 13.5961C100.437 13.5019 100.57 13.4493 100.706 13.4493C100.844 13.4493 100.976 13.5019 101.075 13.5961L101.518 14.1107C101.612 14.2096 101.665 14.3408 101.665 14.4774C101.665 14.6138 101.612 14.7452 101.518 14.844L97.5352 18.2183C97.4007 18.2996 97.2493 18.3497 97.093 18.365H97.0951Z" fill="#009E5D"/>
<path d="M93.1866 15.8705L94.3359 17.1922C94.3359 17.1922 94.595 17.0005 94.669 16.9271L94.8021 16.8608L93.3331 15.7959L93.1866 15.8705Z" fill="#33668F"/>
<path d="M95.736 17.5194L96.7705 16.1982L96.9916 16.3449L97.0655 16.4182L95.736 17.5194Z" fill="#BF9447"/>
<path d="M12.2727 56.7125V50.993H14.2246C14.7209 50.993 15.1476 51.1686 15.5046 51.5196C15.8617 51.8707 16.0403 52.2852 16.0403 52.7633C16.0403 53.2415 15.8617 53.6561 15.5046 54.0071C15.1476 54.3581 14.7209 54.5337 14.2246 54.5337H12.999V56.7125H12.2727ZM12.999 53.8982H14.2246C14.5211 53.8982 14.7753 53.7892 14.9872 53.5714C15.2051 53.3474 15.314 53.0781 15.314 52.7633C15.314 52.4486 15.2051 52.1823 14.9872 51.9645C14.7753 51.7405 14.5211 51.6285 14.2246 51.6285H12.999V53.8982ZM17.9822 56.7125V51.6285H16.2573V50.993H20.4334V51.6285H18.7085V56.7125H17.9822ZM22.681 56.7125V50.993H23.2711L25.4046 55.5777L27.538 50.993H28.1281V56.7125H27.4018V52.8542L25.6315 56.7125H25.1776L23.4073 52.8542V56.7125H22.681ZM30.3389 56.7579C29.9394 56.7579 29.6126 56.6399 29.3584 56.4038C29.1042 56.1678 28.9771 55.8773 28.9771 55.5323C28.9771 55.1086 29.1677 54.7848 29.5491 54.5609C29.9303 54.3309 30.6022 54.2159 31.5645 54.2159V53.989C31.5645 53.7832 31.4797 53.6047 31.3103 53.4533C31.1468 53.2959 30.9441 53.2173 30.702 53.2173C30.2541 53.2173 29.9817 53.414 29.8849 53.8074H29.1586C29.2071 53.4503 29.3674 53.1568 29.6398 52.9268C29.9122 52.6968 30.2662 52.5818 30.702 52.5818C31.1498 52.5818 31.5191 52.718 31.8096 52.9903C32.1 53.2627 32.2453 53.5956 32.2453 53.989V56.7125H31.746L31.5645 56.2585C31.5342 56.2949 31.4888 56.3403 31.4283 56.3947C31.3677 56.4492 31.2316 56.5249 31.0198 56.6217C30.8079 56.7125 30.581 56.7579 30.3389 56.7579ZM30.3389 56.1224C30.6839 56.1224 30.9743 56.0256 31.2104 55.8319C31.4465 55.6321 31.5645 55.4112 31.5645 55.1692V54.8514C30.8019 54.8514 30.2935 54.9089 30.0393 55.0239C29.785 55.1389 29.658 55.3235 29.658 55.5777C29.658 55.723 29.7215 55.85 29.8486 55.959C29.9758 56.0679 30.1391 56.1224 30.3389 56.1224ZM33.1404 56.7125V50.993H33.8213V53.1265C33.8516 53.0841 33.897 53.0327 33.9575 52.9722C34.018 52.9116 34.1481 52.833 34.3479 52.7361C34.5536 52.6333 34.7715 52.5818 35.0015 52.5818C35.4433 52.5818 35.8186 52.7483 36.1272 53.0811C36.4359 53.414 36.5903 53.8376 36.5903 54.3521V56.7125H35.9093V54.3521C35.9093 54.0192 35.8125 53.7469 35.6189 53.535C35.4252 53.3232 35.1891 53.2173 34.9108 53.2173C34.59 53.2173 34.3267 53.3232 34.1209 53.535C33.9212 53.7408 33.8213 54.0132 33.8213 54.3521V56.7125H33.1404ZM38.6194 56.7579C38.22 56.7579 37.8932 56.6399 37.6389 56.4038C37.3848 56.1678 37.2577 55.8773 37.2577 55.5323C37.2577 55.1086 37.4483 54.7848 37.8296 54.5609C38.2109 54.3309 38.8827 54.2159 39.845 54.2159V53.989C39.845 53.7832 39.7603 53.6047 39.5908 53.4533C39.4274 53.2959 39.2246 53.2173 38.9826 53.2173C38.5347 53.2173 38.2623 53.414 38.1655 53.8074H37.4392C37.4877 53.4503 37.648 53.1568 37.9204 52.9268C38.1927 52.6968 38.5468 52.5818 38.9826 52.5818C39.4304 52.5818 39.7996 52.718 40.0901 52.9903C40.3806 53.2627 40.5259 53.5956 40.5259 53.989V56.7125H40.0266L39.845 56.2585C39.8148 56.2949 39.7693 56.3403 39.7089 56.3947C39.6483 56.4492 39.5122 56.5249 39.3003 56.6217C39.0885 56.7125 38.8615 56.7579 38.6194 56.7579ZM38.6194 56.1224C38.9644 56.1224 39.2549 56.0256 39.491 55.8319C39.727 55.6321 39.845 55.4112 39.845 55.1692V54.8514C39.0824 54.8514 38.574 54.9089 38.3198 55.0239C38.0656 55.1389 37.9385 55.3235 37.9385 55.5777C37.9385 55.723 38.0021 55.85 38.1292 55.959C38.2562 56.0679 38.4197 56.1224 38.6194 56.1224ZM41.421 56.7125V50.993H42.1019V54.579L43.6452 52.6272H44.4169L42.8735 54.5337L44.6439 56.7125H43.8267L42.1019 54.579V56.7125H41.421ZM45.9957 56.7579C45.5962 56.7579 45.2694 56.6399 45.0152 56.4038C44.761 56.1678 44.6339 55.8773 44.6339 55.5323C44.6339 55.1086 44.8246 54.7848 45.2058 54.5609C45.5872 54.3309 46.2589 54.2159 47.2212 54.2159V53.989C47.2212 53.7832 47.1365 53.6047 46.9671 53.4533C46.8036 53.2959 46.6009 53.2173 46.3588 53.2173C45.911 53.2173 45.6386 53.414 45.5417 53.8074H44.8155C44.8639 53.4503 45.0243 53.1568 45.2966 52.9268C45.569 52.6968 45.9231 52.5818 46.3588 52.5818C46.8067 52.5818 47.1759 52.718 47.4664 52.9903C47.7569 53.2627 47.9022 53.5956 47.9022 53.989V56.7125H47.4029L47.2212 56.2585C47.191 56.2949 47.1456 56.3403 47.0851 56.3947C47.0246 56.4492 46.8884 56.5249 46.6765 56.6217C46.4647 56.7125 46.2378 56.7579 45.9957 56.7579ZM45.9957 56.1224C46.3407 56.1224 46.6312 56.0256 46.8672 55.8319C47.1032 55.6321 47.2212 55.4112 47.2212 55.1692V54.8514C46.4587 54.8514 45.9503 54.9089 45.6961 55.0239C45.4419 55.1389 45.3148 55.3235 45.3148 55.5777C45.3148 55.723 45.3784 55.85 45.5055 55.959C45.6325 56.0679 45.796 56.1224 45.9957 56.1224ZM48.7518 56.7125V52.6272H49.2512L49.4327 53.0811C49.463 53.0448 49.5084 52.9994 49.5689 52.9449C49.6294 52.8904 49.7596 52.8178 49.9593 52.7271C50.1651 52.6302 50.3829 52.5818 50.6129 52.5818H50.7037V53.2627H50.5222C50.2014 53.2627 49.9381 53.3686 49.7323 53.5804C49.5326 53.7862 49.4327 54.0585 49.4327 54.3975V56.7125H48.7518ZM51.6439 58.2104L51.3715 58.165V57.6204C51.5651 57.6204 51.7134 57.578 51.8163 57.4933C51.9253 57.4085 52.0191 57.2693 52.0977 57.0756L52.2794 56.6217L50.6906 52.6272H51.4169L52.6424 55.7592L53.8681 52.6272H54.5943L52.8241 57.0756C52.6606 57.4872 52.4881 57.7777 52.3065 57.9472C52.131 58.1227 51.9101 58.2104 51.6439 58.2104ZM56.1735 56.7579C55.7741 56.7579 55.4472 56.6399 55.193 56.4038C54.9389 56.1678 54.8117 55.8773 54.8117 55.5323C54.8117 55.1086 55.0024 54.7848 55.3836 54.5609C55.765 54.3309 56.4367 54.2159 57.3991 54.2159V53.989C57.3991 53.7832 57.3144 53.6047 57.1449 53.4533C56.9815 53.2959 56.7787 53.2173 56.5366 53.2173C56.0888 53.2173 55.8164 53.414 55.7196 53.8074H54.9933C55.0417 53.4503 55.2021 53.1568 55.4744 52.9268C55.7468 52.6968 56.1009 52.5818 56.5366 52.5818C56.9845 52.5818 57.3537 52.718 57.6442 52.9903C57.9347 53.2627 58.08 53.5956 58.08 53.989V56.7125H57.5807L57.3991 56.2585C57.3689 56.2949 57.3234 56.3403 57.2629 56.3947C57.2024 56.4492 57.0662 56.5249 56.8544 56.6217C56.6425 56.7125 56.4156 56.7579 56.1735 56.7579ZM56.1735 56.1224C56.5185 56.1224 56.809 56.0256 57.0451 55.8319C57.281 55.6321 57.3991 55.4112 57.3991 55.1692V54.8514C56.6365 54.8514 56.1281 54.9089 55.8739 55.0239C55.6197 55.1389 55.4926 55.3235 55.4926 55.5777C55.4926 55.723 55.5562 55.85 55.6833 55.959C55.8103 56.0679 55.9738 56.1224 56.1735 56.1224ZM60.0063 56.7125L62.1851 50.993H62.8206L64.9995 56.7125H64.2278L63.6831 55.3053H61.3227L60.778 56.7125H60.0063ZM61.5496 54.6698H63.4561L62.5029 52.1733L61.5496 54.6698ZM65.3041 56.7125V52.6272H65.8034L65.985 53.0811C66.0153 53.0448 66.0606 52.9994 66.1212 52.9449C66.1817 52.8904 66.3118 52.8178 66.5115 52.7271C66.7173 52.6302 66.9352 52.5818 67.1652 52.5818H67.256V53.2627H67.0744C66.7536 53.2627 66.4903 53.3686 66.2846 53.5804C66.0848 53.7862 65.985 54.0585 65.985 54.3975V56.7125H65.3041ZM69.2401 56.7579C68.9133 56.7579 68.6349 56.6308 68.4049 56.3766C68.1749 56.1224 68.0599 55.7956 68.0599 55.3961V53.2627H67.3336V52.6272H67.6514C67.9843 52.6272 68.1507 52.4607 68.1507 52.1278V51.5378H68.7408V52.6272H69.6486V53.2627H68.7408V55.3961C68.7408 55.6201 68.8013 55.7986 68.9224 55.9318C69.0495 56.0588 69.2159 56.1224 69.4217 56.1224L69.6486 56.077V56.6671C69.5579 56.7276 69.4217 56.7579 69.2401 56.7579ZM70.4118 56.7125V50.993H71.0927V53.1265C71.1229 53.0841 71.1684 53.0327 71.2289 52.9722C71.2893 52.9116 71.4195 52.833 71.6192 52.7361C71.825 52.6333 72.0429 52.5818 72.2729 52.5818C72.7147 52.5818 73.0899 52.7483 73.3986 53.0811C73.7073 53.414 73.8616 53.8376 73.8616 54.3521V56.7125H73.1808V54.3521C73.1808 54.0192 73.0839 53.7469 72.8902 53.535C72.6965 53.3232 72.4605 53.2173 72.1821 53.2173C71.8613 53.2173 71.5981 53.3232 71.3923 53.535C71.1925 53.7408 71.0927 54.0132 71.0927 54.3521V56.7125H70.4118ZM75.8908 56.7579C75.4913 56.7579 75.1645 56.6399 74.9103 56.4038C74.6561 56.1678 74.529 55.8773 74.529 55.5323C74.529 55.1086 74.7197 54.7848 75.101 54.5609C75.4822 54.3309 76.1541 54.2159 77.1164 54.2159V53.989C77.1164 53.7832 77.0317 53.6047 76.8622 53.4533C76.6988 53.2959 76.496 53.2173 76.2539 53.2173C75.806 53.2173 75.5337 53.414 75.4369 53.8074H74.7106C74.759 53.4503 74.9194 53.1568 75.1917 52.9268C75.4641 52.6968 75.8181 52.5818 76.2539 52.5818C76.7018 52.5818 77.071 52.718 77.3615 52.9903C77.652 53.2627 77.7973 53.5956 77.7973 53.989V56.7125H77.2979L77.1164 56.2585C77.0861 56.2949 77.0408 56.3403 76.9802 56.3947C76.9197 56.4492 76.7835 56.5249 76.5717 56.6217C76.3598 56.7125 76.1329 56.7579 75.8908 56.7579ZM75.8908 56.1224C76.2358 56.1224 76.5263 56.0256 76.7623 55.8319C76.9984 55.6321 77.1164 55.4112 77.1164 55.1692V54.8514C76.3538 54.8514 75.8454 54.9089 75.5912 55.0239C75.337 55.1389 75.2099 55.3235 75.2099 55.5777C75.2099 55.723 75.2734 55.85 75.4005 55.959C75.5277 56.0679 75.691 56.1224 75.8908 56.1224ZM81.9929 56.7579C81.412 56.7579 80.9493 56.5975 80.6042 56.2767C80.2593 55.9559 80.0867 55.5414 80.0867 55.033H80.8134C80.8134 55.378 80.9127 55.6473 81.1127 55.8409C81.3183 56.0286 81.612 56.1224 81.9929 56.1224C82.3627 56.1224 82.65 56.0377 82.8556 55.8682C83.0676 55.6927 83.1732 55.4748 83.1732 55.2145C83.1732 54.9604 83.0676 54.7546 82.8556 54.5972C82.65 54.4399 82.3986 54.3188 82.1021 54.2341C81.8056 54.1433 81.5063 54.0434 81.2035 53.9345C80.907 53.8255 80.6528 53.653 80.4408 53.417C80.2351 53.1749 80.1322 52.8663 80.1322 52.491C80.1322 52.0916 80.3107 51.7345 80.6676 51.4197C81.0246 51.105 81.4669 50.9477 81.9929 50.9477C82.4894 50.9477 82.907 51.1171 83.2458 51.4561C83.5908 51.789 83.7634 52.1945 83.7634 52.6726H83.0373C83.0373 52.3578 82.9373 52.0976 82.738 51.8918C82.538 51.6861 82.2901 51.5832 81.9929 51.5832C81.6662 51.5832 81.3943 51.677 81.176 51.8646C80.9641 52.0461 80.8584 52.2549 80.8584 52.491C80.8584 52.7452 80.9612 52.951 81.1669 53.1083C81.3789 53.2657 81.6331 53.3898 81.9296 53.4806C82.226 53.5653 82.5225 53.6621 82.8197 53.7711C83.1218 53.88 83.376 54.0555 83.5817 54.2976C83.7936 54.5337 83.9 54.8393 83.9 55.2145C83.9 55.6382 83.7239 56.0014 83.3732 56.304C83.0218 56.6066 82.562 56.7579 81.9929 56.7579ZM86.2042 56.7579C85.6535 56.7579 85.1908 56.5612 84.8155 56.1678C84.4401 55.7744 84.2528 55.2751 84.2528 54.6698C84.2528 54.0707 84.4401 53.5744 84.8155 53.181C85.1965 52.7815 85.6443 52.5818 86.1591 52.5818C86.6732 52.5818 87.112 52.7724 87.4753 53.1537C87.8387 53.535 88.0204 54.0253 88.0204 54.6245L87.9746 54.9876H84.9789C85.0028 55.2902 85.1331 55.5565 85.369 55.7865C85.6113 56.0104 85.8894 56.1224 86.2042 56.1224C86.6218 56.1224 86.9549 55.9559 87.2028 55.623H87.9296C87.5781 56.3796 87.0035 56.7579 86.2042 56.7579ZM84.9789 54.3975H87.3394C87.2972 54.0585 87.1641 53.7771 86.9401 53.5532C86.7162 53.3292 86.4556 53.2173 86.1591 53.2173C85.8627 53.2173 85.6021 53.3292 85.3782 53.5532C85.1542 53.7771 85.0211 54.0585 84.9789 54.3975ZM88.6929 56.7125V50.993H89.3739V54.579L90.9169 52.6272H91.6887L90.1458 54.5337L91.9155 56.7125H91.0986L89.3739 54.579V56.7125H88.6929ZM93.7648 56.7579C93.3232 56.7579 92.9479 56.5914 92.6387 56.2585C92.3303 55.9257 92.176 55.5021 92.176 54.9876V52.6272H92.857V54.9876C92.857 55.3204 92.9535 55.5928 93.1472 55.8047C93.3408 56.0165 93.5774 56.1224 93.8556 56.1224C94.176 56.1224 94.4366 56.0195 94.6366 55.8137C94.8422 55.6019 94.9451 55.3265 94.9451 54.9876V52.6272H95.626V56.7125H95.1267L94.9451 56.2585C94.9148 56.2949 94.869 56.3403 94.8084 56.3947C94.7486 56.4492 94.6148 56.5249 94.4091 56.6217C94.2098 56.7125 93.995 56.7579 93.7648 56.7579ZM96.5204 56.7125V52.6272H97.0197L97.2014 53.0811C97.2317 53.0448 97.2767 52.9994 97.3373 52.9449C97.3979 52.8904 97.5281 52.8178 97.7274 52.7271C97.9331 52.6302 98.1514 52.5818 98.381 52.5818H98.4718V53.2627H98.2908C97.9697 53.2627 97.7063 53.3686 97.5007 53.5804C97.3007 53.7862 97.2014 54.0585 97.2014 54.3975V56.7125H96.5204ZM98.9584 56.7125V52.6272H99.6394V56.7125H98.9584ZM99.2943 51.9009C99.1732 51.9009 99.0704 51.8616 98.9852 51.7829C98.907 51.6982 98.8676 51.5953 98.8676 51.4742C98.8676 51.3471 98.907 51.2442 98.9852 51.1656C99.0704 51.0808 99.1732 51.0385 99.2943 51.0385C99.4211 51.0385 99.5239 51.0808 99.6028 51.1656C99.6873 51.2442 99.7303 51.3471 99.7303 51.4742C99.7303 51.5953 99.6873 51.6982 99.6028 51.7829C99.5239 51.8616 99.4211 51.9009 99.2943 51.9009ZM102.034 56.7579C101.708 56.7579 101.429 56.6308 101.199 56.3766C100.969 56.1224 100.854 55.7956 100.854 55.3961V53.2627H100.128V52.6272H100.446C100.778 52.6272 100.945 52.4607 100.945 52.1278V51.5378H101.535V52.6272H102.443V53.2627H101.535V55.3961C101.535 55.6201 101.596 55.7986 101.717 55.9318C101.844 56.0588 102.01 56.1224 102.216 56.1224L102.443 56.077V56.6671C102.352 56.7276 102.216 56.7579 102.034 56.7579ZM104.252 56.7579C103.853 56.7579 103.526 56.6399 103.272 56.4038C103.018 56.1678 102.89 55.8773 102.89 55.5323C102.89 55.1086 103.081 54.7848 103.463 54.5609C103.844 54.3309 104.515 54.2159 105.477 54.2159V53.989C105.477 53.7832 105.393 53.6047 105.223 53.4533C105.06 53.2959 104.858 53.2173 104.615 53.2173C104.168 53.2173 103.895 53.414 103.799 53.8074H103.072C103.12 53.4503 103.281 53.1568 103.553 52.9268C103.825 52.6968 104.18 52.5818 104.615 52.5818C105.063 52.5818 105.432 52.718 105.723 52.9903C106.013 53.2627 106.158 53.5956 106.158 53.989V56.7125H105.659L105.477 56.2585C105.447 56.2949 105.402 56.3403 105.342 56.3947C105.281 56.4492 105.145 56.5249 104.933 56.6217C104.721 56.7125 104.494 56.7579 104.252 56.7579ZM104.252 56.1224C104.597 56.1224 104.887 56.0256 105.124 55.8319C105.36 55.6321 105.477 55.4112 105.477 55.1692V54.8514C104.715 54.8514 104.207 54.9089 103.953 55.0239C103.699 55.1389 103.571 55.3235 103.571 55.5777C103.571 55.723 103.634 55.85 103.762 55.959C103.889 56.0679 104.052 56.1224 104.252 56.1224ZM108.234 56.7579C107.792 56.7579 107.438 56.6399 107.172 56.4038C106.906 56.1678 106.76 55.8621 106.736 55.4869H107.417C107.441 55.6745 107.523 55.8289 107.662 55.9499C107.801 56.0649 107.992 56.1224 108.234 56.1224C108.452 56.1224 108.627 56.0649 108.761 55.9499C108.894 55.8349 108.96 55.6957 108.96 55.5323C108.96 55.3931 108.906 55.2811 108.796 55.1964C108.694 55.1056 108.564 55.0451 108.406 55.0148C108.249 54.9785 108.077 54.9361 107.889 54.8877C107.707 54.8333 107.538 54.7728 107.38 54.7061C107.223 54.6396 107.09 54.5276 106.981 54.3702C106.878 54.2068 106.827 54.0041 106.827 53.762C106.827 53.4352 106.954 53.1568 107.208 52.9268C107.462 52.6968 107.789 52.5818 108.189 52.5818C108.612 52.5818 108.945 52.6938 109.187 52.9177C109.435 53.1416 109.572 53.4382 109.596 53.8074H108.915C108.866 53.414 108.625 53.2173 108.189 53.2173C107.989 53.2173 107.825 53.2718 107.699 53.3807C107.571 53.4897 107.508 53.6167 107.508 53.762C107.508 53.9012 107.559 54.0162 107.662 54.107C107.771 54.1917 107.904 54.2522 108.061 54.2885C108.219 54.3188 108.388 54.3611 108.57 54.4157C108.758 54.464 108.93 54.5216 109.087 54.5881C109.244 54.6547 109.375 54.7697 109.477 54.9331C109.587 55.0905 109.641 55.2902 109.641 55.5323C109.641 55.8833 109.511 56.1769 109.251 56.4129C108.996 56.6429 108.658 56.7579 108.234 56.7579Z" fill="#333333"/>
</g>
<defs>
<clipPath id="clip0_1187:30258">
<rect width="100" height="55.6338" fill="white" transform="translate(10 6)"/>
</clipPath>
</defs>
</svg>
