<svg width="120" height="68" viewBox="0 0 120 68" fill="none" xmlns="http://www.w3.org/2000/svg">
<g clip-path="url(#clip0_1172:30225)">
<path fill-rule="evenodd" clip-rule="evenodd" d="M63.4565 38.2C62.3697 39.3076 61.0703 39.8648 59.5634 39.8648C58.3448 39.8648 57.3097 39.6152 56.2531 38.9979V36.4572C57.1028 37.0366 58.1703 37.5883 59.2241 37.5883C61.4214 37.5883 62.7297 36.069 62.7297 33.9145C62.7297 31.7586 61.3765 30.1938 59.1779 30.1938C58.1965 30.1938 57.4007 30.5483 56.7786 31.2593C56.1124 32.0297 55.7676 33.131 55.7676 34.5862V44.6186H55.6021C55.3134 44.6179 55.0278 44.5603 54.7614 44.4492C54.495 44.3381 54.2531 44.1756 54.0495 43.971C53.8459 43.7664 53.6846 43.5237 53.5748 43.2567C53.4651 42.9898 53.4089 42.7038 53.4097 42.4152V34.2103C53.4097 30.7283 55.5276 27.9172 59.1683 27.9172C60.9648 27.9172 62.4248 28.5345 63.5317 29.7759C64.5724 30.9352 65.0876 32.4041 65.0876 34.1724C65.0876 35.7448 64.5434 37.0903 63.4565 38.2ZM88.989 38.1145C87.9062 39.2821 86.5131 39.8648 84.8248 39.8648C83.0421 39.8648 81.589 39.2469 80.4834 38.0062C79.4434 36.8324 78.9276 35.3621 78.9276 33.6103C78.9276 30.509 81.309 27.9172 84.4434 27.9172C85.6524 27.9172 86.7021 28.1738 87.7621 28.7586V31.3241C86.9124 30.7448 85.8448 30.1931 84.791 30.1931C82.5938 30.1931 81.2848 31.7131 81.2848 33.8683C81.2848 35.9938 82.6697 37.589 84.8365 37.589C85.8172 37.589 86.6255 37.2193 87.271 36.4752C87.9138 35.7352 88.2476 34.6483 88.2476 33.189V25.2034C88.2469 24.9148 88.303 24.6289 88.4128 24.3619C88.5226 24.095 88.6839 23.8523 88.8874 23.6477C89.091 23.443 89.3329 23.2805 89.5993 23.1694C89.8657 23.0583 90.1514 23.0007 90.44 23H90.6055V33.5634C90.6055 35.4234 90.0703 36.9462 88.989 38.1145ZM95.6476 26.7897C95.4 27.0683 95.0455 27.1966 94.6131 27.1966C93.8035 27.1966 93.2241 26.5966 93.2241 25.789C93.2241 24.9628 93.7924 24.4048 94.6124 24.4048C95.4021 24.4048 96.0014 24.9931 96.0014 25.789C96.0014 26.1821 95.8869 26.52 95.6476 26.789V26.7897ZM107.63 33.189C107.63 32.2545 107.278 31.5145 106.572 30.9545C105.935 30.4503 105.14 30.1938 104.172 30.1938C102.038 30.1938 100.668 31.8703 100.668 33.9386C100.668 35.9283 102.121 37.589 104.15 37.589C105.562 37.589 106.317 36.76 107.122 35.7269V38.7041C106.712 39.0131 106.24 39.3503 105.759 39.5476C105.25 39.7614 104.643 39.8648 103.942 39.8648C100.548 39.8648 98.3097 37.0393 98.3097 33.7745C98.3097 32.0979 98.8276 30.7117 99.871 29.631C100.978 28.4855 102.43 27.9172 104.208 27.9172C107.577 27.9172 109.988 29.8621 109.988 33.3759V39.631H109.823C109.534 39.6303 109.248 39.5727 108.982 39.4616C108.715 39.3504 108.473 39.1878 108.27 38.9832C108.066 38.7785 107.905 38.5357 107.795 38.2687C107.685 38.0017 107.629 37.7156 107.63 37.4269V33.189ZM75.3483 32.5172C75.0503 31.591 74.6766 31.1352 73.8172 30.6531C71.7738 29.5055 69.7621 30.4828 68.8269 32.5083L75.3483 32.5172ZM73.549 39.8297C72.0428 40.1517 70.5648 39.9035 69.1228 39.0938C67.7159 38.3041 66.7745 37.1303 66.3021 35.5786C65.3476 32.4407 67.3028 28.9441 70.4483 28.0979C72.0069 27.6779 73.5021 27.8683 74.9221 28.6655C77.2807 29.991 78.14 32.0407 77.9903 34.6821L68.4897 34.6621C68.6297 35.7393 69.2938 36.5821 70.2276 37.1062C71.1752 37.6379 72.0455 37.7655 72.8531 37.5131C73.7497 37.2303 74.4779 36.4945 75.0696 35.8097L77.0055 37.2276C76.2159 38.6483 75.1407 39.489 73.549 39.829V39.8297ZM93.4338 28.1517H95.7917V39.631H95.6262C95.3375 39.6303 95.0518 39.5727 94.7854 39.4616C94.5189 39.3504 94.277 39.1878 94.0734 38.9831C93.8698 38.7785 93.7085 38.5357 93.5988 38.2686C93.489 38.0016 93.433 37.7156 93.4338 37.4269V28.151V28.1517ZM13.451 39.6303C11.1441 39.6303 9.99999 38.0538 9.99999 35.8524V27.4986C9.99927 27.2099 10.0554 26.9239 10.1652 26.6568C10.2751 26.3898 10.4364 26.147 10.64 25.9423C10.8437 25.7377 11.0857 25.5751 11.3521 25.464C11.6186 25.3528 11.9044 25.2952 12.1931 25.2945H12.3586V28.1517H16.3428V30.4276H12.3586V36.1159C12.3586 37.0828 12.7876 37.3545 13.7076 37.3545H16.3421V39.6303H13.4517H13.451ZM27.1462 38.18C25.9807 39.3021 24.5807 39.8648 22.9545 39.8648C21.3428 39.8648 19.9503 39.3014 18.7855 38.18C17.6165 37.0531 17.0338 35.6193 17.0338 33.891C17.0338 30.52 19.5952 27.9172 22.9545 27.9172C24.5662 27.9172 25.9628 28.4848 27.1345 29.6152C28.311 30.7483 28.8986 32.1779 28.8986 33.891C28.8986 35.6193 28.3152 37.0531 27.1469 38.18H27.1462ZM38.1724 30.9138C37.8262 31.4966 37.5579 31.9152 37.369 32.1676C37.1614 32.4421 36.9559 32.6614 36.7524 32.8131C38.391 33.3455 39.0014 34.4862 39.0014 36.1862V39.6303H38.8359C38.2529 39.6289 37.6943 39.3959 37.2831 38.9827C36.8718 38.5695 36.6415 38.0099 36.6428 37.4269V36.42C36.6428 35.3193 36.1517 34.5724 34.9917 34.5724H32.8483V39.6303H32.6828C32.0999 39.6287 31.5416 39.3957 31.1306 38.9824C30.7196 38.5692 30.4896 38.0097 30.491 37.4269V25.2034C30.4902 24.9148 30.5463 24.6289 30.656 24.362C30.7657 24.095 30.9269 23.8523 31.1304 23.6477C31.334 23.4431 31.5758 23.2806 31.8422 23.1694C32.1085 23.0583 32.3941 23.0007 32.6828 23H32.8483V32.2731H33.5455C34.311 32.2731 34.8145 32.0097 35.1041 31.5117L37.0841 28.1524L39.7717 28.1497L38.171 30.9138H38.1724ZM50.3448 38.18C49.1793 39.3021 47.7793 39.8648 46.1531 39.8648C44.5414 39.8648 43.1497 39.3014 41.9841 38.18C40.8152 37.0531 40.2324 35.6193 40.2324 33.891C40.2324 30.52 42.7938 27.9172 46.1531 27.9172C47.7655 27.9172 49.1614 28.4848 50.3338 29.6152C51.5097 30.7483 52.0972 32.1779 52.0972 33.891C52.0972 35.6193 51.5138 37.0531 50.3455 38.18H50.3448ZM48.6428 31.22C47.9931 30.5366 47.1676 30.1938 46.1531 30.1938C43.9828 30.1938 42.6841 31.7834 42.6841 33.891C42.6841 35.9697 44.0138 37.589 46.1531 37.589C48.2931 37.589 49.6221 35.9697 49.6221 33.891C49.6221 32.7876 49.2924 31.9021 48.6428 31.22ZM25.4448 31.22C24.7952 30.5366 23.969 30.1938 22.9552 30.1938C20.7848 30.1938 19.4862 31.7834 19.4862 33.891C19.4862 35.9697 20.8159 37.589 22.9552 37.589C25.0945 37.589 26.4241 35.9697 26.4241 33.891C26.4241 32.7876 26.0945 31.9021 25.4448 31.22Z" fill="#03AC0E"/>
</g>
<defs>
<clipPath id="clip0_1172:30225">
<rect width="100" height="22.069" fill="white" transform="translate(10 23)"/>
</clipPath>
</defs>
</svg>
