<svg width="98" height="16" viewBox="0 0 98 16" fill="none" xmlns="http://www.w3.org/2000/svg">
<path d="M14.6783 2.77275L2.61071 14.8408C1.8919 15.5596 0.663208 15.0508 0.663208 14.0342V1.31121C0.663208 1.17998 0.715339 1.05412 0.808132 0.961331C0.900926 0.868537 1.02678 0.816406 1.15801 0.816406H13.868C14.8893 0.816406 15.4007 2.05081 14.6783 2.77275Z" fill="url(#paint0_linear)"/>
<g style="mix-blend-mode:soft-light" opacity="0.25">
<path d="M13.4408 4.01074L3.85764 13.5939V4.58247C3.85764 4.43084 3.91787 4.28542 4.02509 4.1782C4.13231 4.07098 4.27773 4.01074 4.42936 4.01074H13.4408Z" fill="black"/>
</g>
<path d="M12.6424 9.60152L14.8523 11.8115C14.9112 11.8704 14.9579 11.9403 14.9898 12.0173C15.0216 12.0943 15.038 12.1768 15.0379 12.26V14.6873C15.038 14.7535 15.025 14.8191 14.9997 14.8804C14.9744 14.9416 14.9372 14.9972 14.8904 15.0441C14.8436 15.091 14.788 15.1282 14.7268 15.1535C14.6656 15.1789 14.6 15.192 14.5337 15.192H12.106C11.9379 15.1918 11.7767 15.1248 11.658 15.0059L9.44694 12.7959L7.35755 14.8853C6.65485 15.5875 5.4537 15.0901 5.4537 14.0963V6.18208C5.4537 6.03045 5.51394 5.88503 5.62116 5.77781C5.72838 5.67059 5.8738 5.61035 6.02543 5.61035H13.9734C14.9558 5.61035 15.4475 6.79798 14.7531 7.49237L12.6424 9.60152Z" fill="url(#paint1_linear)"/>
<path d="M20.0811 4.8615H25.3592V6.85734H20.0811V4.8615ZM21.1586 3.47896C21.1586 2.57806 21.3665 1.90394 21.7823 1.45661C22.1981 1.00928 22.8361 0.785787 23.6965 0.786133H25.3597V2.9327H24.0764C23.9922 2.92835 23.9082 2.94587 23.8327 2.98358C23.7572 3.02129 23.6927 3.07789 23.6456 3.14788C23.5479 3.29202 23.4988 3.47809 23.4985 3.70609V15.0263H21.1596L21.1586 3.47896Z" fill="#353738"/>
<path d="M26.9396 14.3936C26.3586 13.8739 26.068 13.0856 26.068 12.0288C26.068 11.0239 26.3625 10.2698 26.9516 9.76629C27.5407 9.26283 28.422 9.01162 29.5956 9.01266H32.3159L32.4532 10.8318H29.6034C29.1398 10.8318 28.7922 10.9297 28.5607 11.1254C28.3293 11.3212 28.2134 11.6216 28.213 12.0267C28.213 12.4508 28.3631 12.7658 28.6631 12.9716C28.9632 13.1774 29.4169 13.2801 30.0244 13.2798C30.7686 13.2798 31.322 13.1982 31.6844 13.035C32.0469 12.8718 32.2279 12.6173 32.2276 12.2715L32.4355 13.7205C32.325 14.04 32.1222 14.3194 31.8528 14.5236C31.5534 14.7496 31.2124 14.9144 30.8492 15.0085C30.4303 15.1208 29.9981 15.1762 29.5644 15.1732C28.3956 15.1732 27.5207 14.9134 26.9396 14.3936ZM32.2276 8.58282C32.2276 8.01491 32.0595 7.57416 31.7234 7.26058C31.3873 6.947 30.9124 6.79107 30.2988 6.7928C29.907 6.79238 29.5177 6.85449 29.1455 6.9768C28.7803 7.09444 28.4363 7.26992 28.1268 7.49655L26.5675 6.1847C26.9656 5.72108 27.4878 5.36037 28.134 5.10258C28.7803 4.84478 29.4986 4.71554 30.2889 4.71484C31.1507 4.71484 31.8884 4.86332 32.502 5.16027C33.0917 5.43638 33.5818 5.88781 33.9053 6.45289C34.2286 7.01803 34.3903 7.69855 34.3903 8.49446V15.0262H32.2276V8.58282Z" fill="#353738"/>
<path d="M43.7771 6.8395L39.0869 12.8816H44.0417V15.0261H36.2761V13.0089L41.0941 7.00582H36.4133V4.86133H43.7771V6.8395Z" fill="#353738"/>
<path d="M53.0347 6.8395L48.3445 12.8816H53.2993V15.0261H45.5342V13.0089L50.3513 7.00582H45.6735V4.86133H53.0373L53.0347 6.8395Z" fill="#353738"/>
<path d="M54.3015 4.86168H59.0832V6.9095H54.3015V4.86168ZM55.9475 14.3939C55.5494 13.9403 55.3503 13.2695 55.3503 12.3814V1.9043H57.6892V12.0592C57.6892 12.3076 57.738 12.4982 57.8358 12.6309C57.9335 12.7636 58.0771 12.8307 58.2666 12.8321H59.0832V15.0743H57.8295C56.9733 15.075 56.346 14.8482 55.9475 14.3939Z" fill="#353738"/>
<path d="M60.9652 4.86168H63.4039V15.0264H60.9652V4.86168ZM66.0478 7.08985C65.7939 6.99706 65.525 6.95213 65.2547 6.95731C64.6674 6.95731 64.2121 7.13195 63.8888 7.48122C63.5655 7.83049 63.404 8.31559 63.4044 8.93652L63.1965 6.63558C63.49 6.02782 63.8735 5.55606 64.3472 5.22031C64.8002 4.89087 65.3463 4.71428 65.9065 4.71615C66.3166 4.71048 66.7245 4.77843 67.1107 4.91677C67.4623 5.04587 67.7828 5.24778 68.0509 5.50929L66.6211 7.47758C66.4627 7.30562 66.2664 7.17288 66.0478 7.08985Z" fill="#353738"/>
<path d="M69.2438 14.3935C68.6627 13.8737 68.3723 13.0854 68.3727 12.0286C68.3727 11.0237 68.6672 10.2696 69.2563 9.76612C69.8453 9.26265 70.7266 9.01144 71.9002 9.01248H74.6227L74.7599 10.8316H71.9101C71.4465 10.8316 71.0988 10.9295 70.867 11.1253C70.6352 11.321 70.5187 11.6225 70.5177 12.0296C70.5177 12.4538 70.6677 12.7687 70.9678 12.9745C71.2679 13.1804 71.7216 13.2831 72.329 13.2828C73.0733 13.2828 73.6267 13.2012 73.9891 13.038C74.3516 12.8748 74.5326 12.6202 74.5322 12.2744L74.7401 13.7235C74.6292 14.0431 74.4259 14.3226 74.156 14.5265C73.8565 14.7526 73.5155 14.9174 73.1523 15.0114C72.7337 15.1226 72.3021 15.1769 71.869 15.1731C70.7 15.1731 69.8249 14.9132 69.2438 14.3935ZM74.5317 8.58264C74.5317 8.01473 74.3637 7.57398 74.0276 7.2604C73.6915 6.94681 73.2166 6.79089 72.6029 6.79262C72.2102 6.79268 71.8199 6.8555 71.447 6.97869C71.082 7.09644 70.7383 7.27192 70.4288 7.49844L68.8696 6.18659C69.2677 5.72297 69.79 5.36227 70.4366 5.10447C71.0832 4.84667 71.8013 4.71777 72.591 4.71777C73.4527 4.71777 74.1904 4.86625 74.8041 5.1632C75.3938 5.43931 75.8839 5.89074 76.2074 6.45582C76.5307 7.02096 76.6923 7.70149 76.6923 8.4974V15.026H74.5281L74.5317 8.58264Z" fill="#353738"/>
<path d="M80.6465 14.6399C79.9836 14.2937 79.4459 13.7484 79.109 13.0807C78.7563 12.3988 78.5799 11.5746 78.5799 10.6082V9.22932C78.5799 8.27679 78.7563 7.46252 79.109 6.78649C79.4482 6.12528 79.9858 5.58678 80.6465 5.24648C81.3183 4.89409 82.1277 4.71789 83.0747 4.71789C83.5918 4.71465 84.107 4.77877 84.6075 4.90864C85.0647 5.02503 85.5013 5.21083 85.9022 5.45957C86.2729 5.69174 86.5968 5.99145 86.8569 6.34315L85.2701 7.83171C85.0054 7.55317 84.6853 7.33311 84.3304 7.18566C83.9739 7.03586 83.5909 6.95916 83.2041 6.96009C82.4796 6.96009 81.9181 7.1576 81.5196 7.55261C81.1212 7.94762 80.9221 8.50739 80.9224 9.23192V10.6103C80.9224 11.3546 81.1199 11.9273 81.515 12.3286C81.91 12.7298 82.473 12.9306 83.2041 12.931C83.5959 12.9321 83.9832 12.8487 84.3398 12.6864C84.6963 12.5241 85.0137 12.2869 85.2701 11.9907L86.8569 13.577C86.5899 13.9227 86.2623 14.2172 85.8902 14.446C85.4897 14.6923 85.0537 14.8756 84.5976 14.9897C84.0999 15.1158 83.5882 15.1783 83.0747 15.1758C82.1284 15.1744 81.319 14.9958 80.6465 14.6399Z" fill="#353738"/>
<path d="M88.2006 0.788086H90.5395V15.0261H88.2006V0.788086ZM89.2578 11.2657L94.2422 4.86137H96.8373L89.3753 13.9295L89.2578 11.2657ZM91.6377 9.46376L93.3903 8.13216L97.3368 15.0261H94.7027L91.6377 9.46376Z" fill="#353738"/>
<defs>
<linearGradient id="paint0_linear" x1="0.882543" y1="1.04146" x2="8.74325" y2="8.90165" gradientUnits="userSpaceOnUse">
<stop stop-color="#0086EA"/>
<stop offset="1" stop-color="#005F99"/>
</linearGradient>
<linearGradient id="paint1_linear" x1="5.67824" y1="5.81929" x2="14.9459" y2="15.0869" gradientUnits="userSpaceOnUse">
<stop stop-color="#F69621"/>
<stop offset="0.54" stop-color="#F17121"/>
<stop offset="1" stop-color="#F15D00"/>
</linearGradient>
</defs>
</svg>
