<svg xmlns="http://www.w3.org/2000/svg" width="18" height="18" viewBox="0 0 18 18">
    <g fill="none" fill-rule="evenodd">
        <circle cx="9" cy="9" r="9" fill="#FFF"/>
        <g fill-rule="nonzero">
            <path fill="#FBBB00" d="M5.103 10.46l-.488 1.82-1.78.037A6.969 6.969 0 0 1 2 9c0-1.16.282-2.255.783-3.22l1.586.291.694 1.577a4.161 4.161 0 0 0 .04 2.812z"/>
            <path fill="#518EF8" d="M15.878 7.692a7.008 7.008 0 0 1-.031 2.77 6.998 6.998 0 0 1-2.465 3.997l-1.997-.102-.283-1.765a4.172 4.172 0 0 0 1.795-2.13H9.154v-2.77h6.724z"/>
            <path fill="#28B446" d="M13.382 14.458A6.97 6.97 0 0 1 9 16a6.999 6.999 0 0 1-6.166-3.683l2.269-1.857a4.162 4.162 0 0 0 5.999 2.132l2.28 1.866z"/>
            <path fill="#F14336" d="M13.468 3.612L11.2 5.468a4.163 4.163 0 0 0-6.137 2.18L2.783 5.78A6.999 6.999 0 0 1 9 2a6.97 6.97 0 0 1 4.468 1.612z"/>
        </g>
    </g>
</svg>
