<svg width="100" height="100" viewBox="0 0 100 100" fill="none" xmlns="http://www.w3.org/2000/svg">
<path d="M10 14H90C92.2 14 94 15.8 94 18V82C94 84.2 92.2 86 90 86H10C7.8 86 6 84.2 6 82V18C6 15.8 7.8 14 10 14Z" fill="#ECF4FF"/>
<path d="M16.6 10.1992H94C95.1 10.1992 96 11.0992 96 12.1992V62.1992C96 63.2992 95.1 64.1992 94 64.1992H16.6C15.5 64.1992 14.6 63.2992 14.6 62.1992V12.1992C14.6 11.0992 15.5 10.1992 16.6 10.1992Z" fill="url(#paint0_linear)"/>
<g style="mix-blend-mode:soft-light" opacity="0.3">
<path d="M21 15.3984H50C50.6 15.3984 51 15.7984 51 16.3984V59.2984C51 59.8984 50.6 60.2984 50 60.2984H21C20.4 60.2984 20 59.8984 20 59.2984V16.3984C20 15.7984 20.4 15.3984 21 15.3984Z" fill="black"/>
</g>
<path d="M18.6 50.9C23.9572 50.9 28.3 46.5572 28.3 41.2C28.3 35.8428 23.9572 31.5 18.6 31.5C13.2429 31.5 8.90002 35.8428 8.90002 41.2C8.90002 46.5572 13.2429 50.9 18.6 50.9Z" fill="url(#paint1_linear)"/>
<path d="M54 38.4004C52.3 37.3004 50.1 37.7004 49 39.4004L38.7 54.5004H13.7C8.3 54.5004 4 58.9004 4 64.2004V75.8004C4 76.5004 4.5 77.0004 5.2 77.0004H31.9C32.6 77.0004 33.1 76.4004 33.1 75.8004V61.8004H40.6C41.8 61.8004 42.9 61.2004 43.6 60.2004L55 43.5004C56.1 41.8004 55.7 39.5004 54 38.4004Z" fill="url(#paint2_linear)"/>
<g style="mix-blend-mode:soft-light" opacity="0.53">
<path d="M57 47.6016H90.3C90.9 47.6016 91.3 48.0016 91.3 48.6016V53.2016C91.3 53.8016 90.9 54.2016 90.3 54.2016H57C56.4 54.2016 56 53.8016 56 53.2016V48.6016C56 48.0016 56.4 47.6016 57 47.6016Z" fill="white"/>
</g>
<path d="M57 15.3984H90.3C90.9 15.3984 91.3 15.7984 91.3 16.3984V42.9984C91.3 43.5984 90.9 43.9984 90.3 43.9984H57C56.4 43.9984 56 43.5984 56 42.9984V16.3984C56 15.7984 56.4 15.3984 57 15.3984Z" fill="url(#paint3_linear)"/>
<path d="M60.9 30.8008L66.4 25.3008L68.1 27.1008L64.2 30.9008L68.1 34.7008L66.4 36.4008L60.9 30.8008Z" fill="white"/>
<path d="M77.3 21.5L72.9 38H70.1L74.5 21.5H77.3Z" fill="white"/>
<path d="M79.2 34.5008L83.1 30.7008L79.2 27.0008L80.9 25.3008L86.4 30.8008L80.9 36.3008L79.2 34.5008Z" fill="white"/>
<path d="M83.6 75.3984C88.2944 75.3984 92.1 71.5929 92.1 66.8984C92.1 62.204 88.2944 58.3984 83.6 58.3984C78.9056 58.3984 75.1 62.204 75.1 66.8984C75.1 71.5929 78.9056 75.3984 83.6 75.3984Z" fill="url(#paint4_linear)"/>
<path d="M88.3 78.5977H78.8C74.4 78.5977 70.8 82.1977 70.8 86.5977V88.7977C70.8 89.3977 71.2 89.7977 71.8 89.7977H95.3C95.9 89.7977 96.3 89.3977 96.3 88.7977V86.5977C96.3 82.1977 92.7 78.5977 88.3 78.5977Z" fill="url(#paint5_linear)"/>
<path d="M54.7 75.3984C59.3944 75.3984 63.2 71.5929 63.2 66.8984C63.2 62.204 59.3944 58.3984 54.7 58.3984C50.0056 58.3984 46.2 62.204 46.2 66.8984C46.2 71.5929 50.0056 75.3984 54.7 75.3984Z" fill="url(#paint6_linear)"/>
<path d="M59.5 78.5977H50C45.6 78.5977 42 82.1977 42 86.5977V88.7977C42 89.3977 42.4 89.7977 43 89.7977H66.5C67.1 89.7977 67.5 89.3977 67.5 88.7977V86.5977C67.5 82.1977 63.9 78.5977 59.5 78.5977Z" fill="url(#paint7_linear)"/>
<defs>
<linearGradient id="paint0_linear" x1="55.305" y1="63.9692" x2="55.305" y2="11.9892" gradientUnits="userSpaceOnUse">
<stop stop-color="#162585"/>
<stop offset="1" stop-color="#0077FC"/>
</linearGradient>
<linearGradient id="paint1_linear" x1="18.57" y1="30.1277" x2="18.57" y2="75.6096" gradientUnits="userSpaceOnUse">
<stop stop-color="#F69621"/>
<stop offset="0.54" stop-color="#F17121"/>
<stop offset="1" stop-color="#F15D00"/>
</linearGradient>
<linearGradient id="paint2_linear" x1="29.8078" y1="30.1281" x2="29.8078" y2="75.61" gradientUnits="userSpaceOnUse">
<stop stop-color="#F69621"/>
<stop offset="0.54" stop-color="#F17121"/>
<stop offset="1" stop-color="#F15D00"/>
</linearGradient>
<linearGradient id="paint3_linear" x1="73.66" y1="18.5584" x2="73.66" y2="42.6984" gradientUnits="userSpaceOnUse">
<stop stop-color="#C2DBFF"/>
<stop offset="1" stop-color="#8CBBFF"/>
</linearGradient>
<linearGradient id="paint4_linear" x1="83.57" y1="100.335" x2="83.57" y2="59.501" gradientUnits="userSpaceOnUse">
<stop stop-color="#C2DBFF"/>
<stop offset="1" stop-color="#8CBBFF"/>
</linearGradient>
<linearGradient id="paint5_linear" x1="83.565" y1="106.328" x2="83.565" y2="79.2977" gradientUnits="userSpaceOnUse">
<stop stop-color="#C2DBFF"/>
<stop offset="1" stop-color="#8CBBFF"/>
</linearGradient>
<linearGradient id="paint6_linear" x1="54.73" y1="100.335" x2="54.73" y2="59.501" gradientUnits="userSpaceOnUse">
<stop stop-color="#C2DBFF"/>
<stop offset="1" stop-color="#8CBBFF"/>
</linearGradient>
<linearGradient id="paint7_linear" x1="54.735" y1="106.328" x2="54.735" y2="79.2977" gradientUnits="userSpaceOnUse">
<stop stop-color="#C2DBFF"/>
<stop offset="1" stop-color="#8CBBFF"/>
</linearGradient>
</defs>
</svg>
