<svg width="120" height="68" viewBox="0 0 120 68" fill="none" xmlns="http://www.w3.org/2000/svg">
<g clip-path="url(#clip0_1172:30259)">
<path fill-rule="evenodd" clip-rule="evenodd" d="M46.6115 41.0134C46.6115 42.9827 45.3927 44.0884 42.8006 44.1715V47.1695C45.7466 47.1695 49.4756 45.5321 49.4756 41.0134V26.3175H46.6115V41.011V41.0134Z" fill="#009BD2"/>
<path fill-rule="evenodd" clip-rule="evenodd" d="M63.548 32.6478C63.548 34.534 62.7113 35.2601 60.9198 35.2601H54.8829C55.1311 36.8633 56.153 38.4213 58.3803 38.4213C59.6734 38.3714 60.9241 37.9467 61.9803 37.1989L63.4417 39.5307C61.996 40.6638 60.217 41.2887 58.3803 41.3087C53.3683 41.3087 51.8544 37.5589 51.8544 33.6747C51.8544 29.7904 53.3408 26.0431 57.7012 26.0431C62.3054 26.0431 63.548 30.3185 63.548 32.6478ZM54.8585 32.3764H60.539C60.3557 30.5385 59.5923 28.9323 57.7012 28.9323C55.8101 28.9323 55.0461 30.5385 54.8579 32.3764H54.8585Z" fill="#009BD2"/>
<path fill-rule="evenodd" clip-rule="evenodd" d="M71.352 26.0455C67.777 26.0455 65.9336 29.0692 65.9336 29.0692V41.1394H68.8063V30.0416C69.1288 29.6884 69.522 29.4071 69.9604 29.216C70.3988 29.0249 70.8725 28.9282 71.3507 28.9323C71.7258 28.9339 72.0968 29.0101 72.4422 29.1565C72.7875 29.3029 73.1003 29.5165 73.3623 29.7849C73.6243 30.0534 73.8303 30.3712 73.9682 30.72C74.1062 31.0688 74.1734 31.4416 74.166 31.8166V41.1394H77.0387V31.8184C77.0387 29.0148 75.1189 26.048 71.3544 26.048" fill="#009BD2"/>
<path fill-rule="evenodd" clip-rule="evenodd" d="M80.2243 41.1394H83.097V26.2142H80.2243V41.1394Z" fill="#009BD2"/>
<path fill-rule="evenodd" clip-rule="evenodd" d="M104.802 32.0934H104.828C103.85 31.816 102.579 31.319 102.579 30.2928C102.579 29.5465 103.342 28.9323 104.775 28.9323C106.055 29.0058 107.308 29.3344 108.46 29.8986L109.382 27.2637C107.952 26.5305 106.381 26.1152 104.775 26.0461C102.287 26.0461 99.6834 27.3492 99.6834 30.2934C99.6834 33.0115 102.013 34.369 104.318 34.9576C105.558 35.232 107.13 35.7638 107.13 36.8095C107.13 37.9244 105.852 38.4182 104.614 38.4182C103.392 38.4182 101.722 37.6151 100.447 36.9208L99.3277 39.6712C100.937 40.6247 102.747 41.1857 104.613 41.3087C107.232 41.3087 109.999 40.0282 109.999 36.8102C109.999 33.7095 106.969 32.6484 104.804 32.0941" fill="#009BD2"/>
<path fill-rule="evenodd" clip-rule="evenodd" d="M94.5914 35.5376C94.6025 35.9123 94.5383 36.2853 94.4025 36.6347C94.2668 36.9841 94.0623 37.3027 93.8012 37.5716C93.5401 37.8405 93.2277 38.0543 92.8825 38.2003C92.5373 38.3463 92.1663 38.4215 91.7915 38.4215C91.4166 38.4215 91.0456 38.3463 90.7004 38.2003C90.3552 38.0543 90.0428 37.8405 89.7817 37.5716C89.5206 37.3027 89.3161 36.9841 89.1804 36.6347C89.0447 36.2853 88.9804 35.9123 88.9915 35.5376V26.2142H86.1188V35.5376C86.1188 38.3302 88.0319 41.294 91.7689 41.3081H91.8025C95.5449 41.2934 97.4525 38.3296 97.4525 35.5376V26.2142H94.5914V35.5376Z" fill="#009BD2"/>
<path fill-rule="evenodd" clip-rule="evenodd" d="M37.8828 33.4265C37.8828 40.0979 32.6264 45.2051 26.6506 45.2051C25.9399 45.2053 25.2305 45.1481 24.5291 45.034C23.5699 45.3267 22.5762 45.4912 21.5739 45.523C15.2472 45.5223 10 41.6375 10 35.1367C10.0529 33.072 10.6845 31.0636 11.8229 29.3403C12.9613 27.617 14.5607 26.2479 16.4391 25.3891C18.7953 22.2835 22.7841 21 25.5858 21C32.6936 21 37.8828 26.5424 37.8828 33.4265ZM26.4843 22.2224C24.2008 22.246 21.9905 23.0309 20.2035 24.4527C20.3337 24.4491 20.5568 24.4423 20.6858 24.4423C22.2707 24.4118 23.8324 24.8271 25.1928 25.6409C25.1928 25.6409 32.0115 28.2813 32.0115 35.6495C32 37.2809 31.5735 38.8825 30.7723 40.3036C29.9711 41.7248 28.8215 42.9187 27.4317 43.7731C31.9492 42.8672 35.8456 38.3626 35.8456 32.5482C35.8456 27.5564 31.8202 22.2224 26.4843 22.2224ZM21.3074 25.982C18.4543 25.982 16.2521 28.5808 16.2521 31.7059C16.2521 35.4997 18.6853 38.1683 21.415 38.1683C24.4576 38.1683 26.6402 35.6495 26.6402 31.8869C26.6426 29.0997 24.3133 25.982 21.3074 25.982ZM20.9046 44.3513C21.2441 44.3518 21.5832 44.3298 21.9198 44.2853C17.3033 42.3795 14.353 37.6732 14.353 31.9944C14.353 31.5733 14.3799 31.1724 14.419 30.772C14.49 29.8244 14.7172 28.8951 15.0914 28.0216C13.163 29.7531 12.4021 32.3135 12.4021 34.8812C12.4076 40.1357 16.7691 44.3513 20.907 44.3513H20.9046ZM24.0004 43.7559C27.5057 42.3936 30.1938 38.8663 30.1938 35.081C30.254 32.6935 29.3945 30.374 27.7929 28.6022C28.2715 29.6831 28.5093 30.8552 28.4897 32.0372C28.5037 33.4357 28.0986 34.8062 27.3268 35.9725C26.555 37.1387 25.4517 38.0472 24.159 38.5809C22.8664 39.1146 21.4435 39.2491 20.0737 38.967C18.704 38.685 17.45 37.9994 16.4733 36.9984C17.7012 40.2757 20.5403 43.0414 24.0028 43.7559H24.0004Z" fill="#009BD2"/>
</g>
<defs>
<clipPath id="clip0_1172:30259">
<rect width="100" height="26.1695" fill="white" transform="translate(10 21)"/>
</clipPath>
</defs>
</svg>
