<svg width="120" height="68" viewBox="0 0 120 68" fill="none" xmlns="http://www.w3.org/2000/svg">
<path d="M39.5877 35.6898L39.2447 37.3044C40.2408 37.1637 41.2389 37.0289 42.237 36.8998L43.3834 31.3391C42.3661 31.6069 41.3507 31.8805 40.3372 32.1637L39.5877 35.6898ZM10 43.4682C13.1291 42.5375 16.2909 41.6898 19.5048 40.9345L19.9229 38.9672C19.6917 39.0597 19.4586 39.1503 19.2274 39.2427C16.1137 40.4894 12.9615 41.815 10 43.4682ZM65.5915 28.131L65.948 26.4027C65.5607 26.4682 65.1734 26.5375 64.7861 26.605L65.5915 28.131ZM107.69 23.2794C102.274 23.2794 96.8767 23.395 91.4971 23.6705C87.7071 23.8651 83.9249 24.1387 80.1503 24.5106C79.2486 24.5992 78.3468 24.6936 77.447 24.7938L75.4836 34.0308C76.3931 33.9826 77.3044 33.9383 78.2139 33.8979C81.9364 33.7302 85.6609 33.6243 89.3854 33.605C90.2062 33.6011 91.025 33.5992 91.8459 33.6031C94.4913 33.6185 102.006 33.6031 107.89 33.5915H107.963L110 23.2794C108.632 23.2794 107.69 23.2794 107.69 23.2794ZM53.5954 35.6358C55.0906 35.4932 56.5877 35.3584 58.0848 35.2331L54.9345 29.3391L53.5954 35.6358Z" fill="#E31E13"/>
<path d="M18.4702 50.5568H20.7283L20.8806 49.4721H18.6281L18.8459 47.9827H21.1754L21.3276 46.8979H18.1041L17.1888 53.4104H20.5877L20.7399 52.3256H18.212L18.4702 50.5568Z" fill="#353088"/>
<path d="M26.3603 46.8979H25.2235L24.5395 48.0309C24.3757 48.3064 24.1734 48.659 23.9326 49.0906C23.9191 49.0405 23.9056 49.002 23.894 48.9731C23.7129 48.4278 23.6147 48.1349 23.5992 48.0906L23.1696 46.896H22.2216L23.316 50.1368L21.3892 53.4105H22.5569L23.1484 52.4336C23.4644 51.9056 23.6609 51.5569 23.736 51.3893C23.7919 51.607 23.9095 51.9634 24.0829 52.4644L24.4181 53.4105H25.4316L24.3584 50.3218L26.3603 46.8979Z" fill="#353088"/>
<path d="M29.5241 47.0655C29.3411 46.9538 29.0925 46.8979 28.7785 46.8979H27.0116L26.0964 53.4104H26.9943L27.3411 50.9422H27.9133C28.2987 50.9422 28.5627 50.9268 28.7033 50.8979C28.9442 50.8478 29.1368 50.7746 29.2794 50.6782C29.422 50.5819 29.5549 50.4393 29.6783 50.2524C29.8016 50.0655 29.9056 49.815 29.9904 49.5029C30.0752 49.1908 30.1176 48.869 30.1176 48.5395C30.1176 48.183 30.0636 47.8767 29.9576 47.6185C29.8517 47.3603 29.7072 47.1773 29.5241 47.0655ZM29.079 49.2987C28.9885 49.4933 28.8652 49.6358 28.7072 49.7245C28.5492 49.8131 28.237 49.8574 27.7669 49.8574H27.4933L27.7573 47.9846H28.3931C28.6821 47.9846 28.8671 48.0077 28.9519 48.054C29.0347 48.1002 29.1002 48.1734 29.1465 48.2736C29.1927 48.3738 29.2158 48.5029 29.2158 48.659C29.2158 48.8902 29.1696 49.1041 29.079 49.2987Z" fill="#353088"/>
<path d="M33.8073 47.0501C33.6204 46.948 33.3603 46.896 33.0251 46.896H31.0771L30.1619 53.4085H31.0597L31.4393 50.713H31.8093C32.0231 50.713 32.1734 50.7553 32.2601 50.842C32.4008 50.9866 32.5318 51.2698 32.6571 51.6898C32.8863 52.4683 33.0386 53.0424 33.1176 53.4085H34.079C33.8324 52.4779 33.6089 51.7592 33.4085 51.2486C33.3064 50.9962 33.1985 50.7939 33.0848 50.6397C33.5357 50.553 33.8728 50.3315 34.0964 49.9711C34.3199 49.6108 34.4316 49.1542 34.4316 48.6012C34.4316 48.2139 34.3738 47.8825 34.2601 47.6108C34.1445 47.3411 33.9942 47.1542 33.8073 47.0501ZM33.4162 49.2004C33.3256 49.3835 33.2004 49.5184 33.0386 49.6051C32.8786 49.6918 32.553 49.7341 32.0617 49.7341H31.5781L31.8247 47.9827H32.8305C33.0983 47.9827 33.2736 48.0174 33.3545 48.0887C33.4856 48.2081 33.5511 48.3854 33.5511 48.6224C33.553 48.8247 33.5068 49.0174 33.4162 49.2004Z" fill="#353088"/>
<path d="M34.7611 53.4104H38.1619L38.3141 52.3256H35.7862L36.0443 50.5568H38.3025L38.4547 49.4721H36.2023L36.4201 47.9827H38.7476L38.8998 46.8979H35.6763L34.7611 53.4104Z" fill="#353088"/>
<path d="M41.0309 47.8439C41.2871 47.8439 41.4798 47.9268 41.6108 48.0925C41.7149 48.2254 41.7843 48.4065 41.8189 48.632H42.6879C42.6455 48.0906 42.4952 47.6513 42.2313 47.316C41.948 46.9557 41.5492 46.7765 41.0347 46.7765C40.528 46.7765 40.1407 46.9576 39.8729 47.3198C39.6051 47.6821 39.4721 48.1387 39.4721 48.6898C39.4721 49.0058 39.5164 49.2794 39.607 49.5145C39.6975 49.7495 39.8209 49.9403 39.9789 50.0867C40.1369 50.2331 40.3873 50.4181 40.7303 50.6378C41.0733 50.8574 41.2833 51.0173 41.3584 51.1156C41.4239 51.1965 41.4683 51.2909 41.4933 51.3931C41.5107 51.4605 41.5222 51.5299 41.5222 51.6069C41.5222 51.8304 41.4548 52.0212 41.3238 52.1773C41.1908 52.3353 40.975 52.4143 40.6783 52.4143C40.3199 52.4143 40.0752 52.2986 39.9423 52.0655C39.871 51.9422 39.8247 51.7168 39.8074 51.3931H38.9461C38.9461 51.7938 38.9962 52.1522 39.1022 52.4663C39.2159 52.8015 39.4105 53.0636 39.686 53.2524C39.9615 53.4412 40.2891 53.5356 40.6648 53.5356C41.2101 53.5356 41.6359 53.3314 41.9422 52.9229C42.2486 52.5144 42.4008 52.0231 42.4008 51.4451C42.4008 51.4277 42.3989 51.4123 42.397 51.395C42.3893 50.9538 42.2891 50.5877 42.0906 50.3006C41.9519 50.0983 41.6301 49.8362 41.1234 49.5125C40.7862 49.2967 40.5704 49.1252 40.4721 49C40.3739 48.8786 40.3257 48.7225 40.3257 48.5356C40.3257 48.3372 40.3796 48.1715 40.4875 48.0405C40.5993 47.9094 40.7785 47.8439 41.0309 47.8439ZM46.1619 50.2986C46.0232 50.0963 45.7014 49.8343 45.1947 49.5106C44.8575 49.2948 44.6417 49.1233 44.5434 48.9981C44.4625 48.8979 44.4182 48.7746 44.4028 48.632C44.3989 48.6012 44.397 48.5684 44.397 48.5356C44.397 48.3372 44.4509 48.1715 44.5588 48.0405C44.6667 47.9094 44.8459 47.8439 45.0983 47.8439C45.3546 47.8439 45.5473 47.9268 45.6783 48.0925C45.7823 48.2254 45.8517 48.4065 45.8864 48.632H46.7554C46.713 48.0906 46.5627 47.6513 46.2987 47.316C46.0155 46.9557 45.6186 46.7765 45.1022 46.7765C44.5954 46.7765 44.2081 46.9576 43.9403 47.3198C43.6821 47.6705 43.5492 48.1079 43.5415 48.632C43.5415 48.6512 43.5396 48.6705 43.5396 48.6898C43.5396 49.0058 43.5839 49.2794 43.6744 49.5145C43.765 49.7495 43.8883 49.9403 44.0463 50.0867C44.2043 50.2331 44.4548 50.4181 44.7977 50.6378C45.1407 50.8574 45.3507 51.0173 45.4259 51.1156C45.4914 51.1965 45.5357 51.2909 45.5607 51.3931C45.5781 51.4605 45.5877 51.5299 45.5877 51.6069C45.5877 51.8304 45.5203 52.0212 45.3893 52.1773C45.2563 52.3353 45.0405 52.4143 44.7438 52.4143C44.3854 52.4143 44.1407 52.2986 44.0078 52.0655C43.9365 51.9422 43.8902 51.7168 43.8729 51.3931H43.0116C43.0116 51.7938 43.0617 52.1522 43.1677 52.4663C43.2814 52.8015 43.476 53.0636 43.7515 53.2524C44.027 53.4412 44.3546 53.5356 44.7303 53.5356C45.2756 53.5356 45.7014 53.3314 46.0078 52.9229C46.3141 52.5144 46.4663 52.0231 46.4663 51.4451C46.4663 51.4277 46.4644 51.4123 46.4625 51.395C46.4606 50.9499 46.3604 50.5838 46.1619 50.2986Z" fill="#353088"/>
<path d="M79.7784 46.8978L79.1618 51.2562L77.9672 46.8978H77.1291L76.2139 53.4104H77.052L77.6724 49.0327L78.8632 53.4104H79.7013L80.6166 46.8978H79.7784Z" fill="#353088"/>
<path d="M82.9345 46.8978L80.472 53.4104H81.4065L81.9345 51.9749H83.6686L83.8112 53.4104H84.6628L83.9576 46.8978H82.9345ZM82.3333 50.8901L83.2986 48.2639L83.5587 50.8901H82.3333Z" fill="#353088"/>
<path d="M88.8073 46.8978H85.3719L85.2312 47.9826H86.5125L85.7495 53.4104H86.6474L87.4104 47.9826H88.6667L88.8073 46.8978Z" fill="#353088"/>
<path d="M88.8266 53.4104H89.7245L90.6397 46.8978H89.7418L88.8266 53.4104Z" fill="#353088"/>
<path d="M93.4701 46.7745C93.0674 46.7745 92.7091 46.8978 92.3931 47.1425C92.0771 47.3872 91.8169 47.7206 91.6089 48.1425C91.4008 48.5645 91.2486 49.0616 91.1464 49.6358C91.0694 50.0635 91.0308 50.4701 91.0308 50.8555C91.0308 51.2716 91.0886 51.684 91.2042 52.0925C91.3198 52.5009 91.5144 52.8439 91.79 53.1194C92.0655 53.395 92.4065 53.5337 92.8131 53.5337C93.2813 53.5337 93.7013 53.3603 94.0713 53.0135C94.4432 52.6666 94.736 52.1695 94.9518 51.526C95.1676 50.8824 95.2755 50.2138 95.2755 49.526C95.2755 48.6975 95.1098 48.0327 94.7765 47.5298C94.4451 47.0269 94.0096 46.7745 93.4701 46.7745ZM94.1753 50.9653C94.0289 51.4508 93.842 51.815 93.6166 52.0539C93.3911 52.2928 93.1561 52.4123 92.9114 52.4123C92.6108 52.4123 92.3699 52.2601 92.185 51.9576C92 51.6551 91.9094 51.2774 91.9094 50.8285C91.9094 50.0982 92.0482 49.4258 92.3256 48.8131C92.6031 48.2004 92.9634 47.894 93.4046 47.894C93.6936 47.894 93.9306 48.0404 94.1156 48.3333C94.3025 48.6262 94.395 49.0289 94.395 49.5433C94.395 50.0057 94.3218 50.4797 94.1753 50.9653Z" fill="#353088"/>
<path d="M98.4528 51.2562L97.2582 46.8978H96.42L95.5048 53.4104H96.343L96.9634 49.0327L98.1541 53.4104H98.9923L99.9075 46.8978H99.0694L98.4528 51.2562Z" fill="#353088"/>
<path d="M103.175 50.2986C103.037 50.0963 102.715 49.8343 102.208 49.5106C101.871 49.2948 101.655 49.1233 101.557 48.9981C101.476 48.8979 101.432 48.7746 101.416 48.632C101.412 48.6012 101.41 48.5684 101.41 48.5356C101.41 48.3372 101.464 48.1715 101.572 48.0405C101.68 47.9094 101.859 47.8439 102.112 47.8439C102.368 47.8439 102.561 47.9268 102.694 48.0925C102.798 48.2254 102.867 48.4065 102.902 48.632H103.771C103.728 48.0906 103.578 47.6513 103.314 47.316C103.031 46.9557 102.632 46.7765 102.118 46.7765C101.611 46.7765 101.223 46.9576 100.956 47.3198C100.697 47.6705 100.565 48.1079 100.557 48.632C100.557 48.6512 100.555 48.6705 100.555 48.6898C100.555 49.0058 100.601 49.2794 100.692 49.5145C100.782 49.7495 100.906 49.9403 101.064 50.0867C101.222 50.2331 101.472 50.4181 101.815 50.6378C102.158 50.8574 102.368 51.0173 102.445 51.1156C102.511 51.1965 102.555 51.2909 102.58 51.3931C102.597 51.4605 102.607 51.5299 102.607 51.6069C102.607 51.8304 102.541 52.0212 102.408 52.1773C102.276 52.3353 102.06 52.4143 101.763 52.4143C101.405 52.4143 101.16 52.2986 101.027 52.0655C100.956 51.9422 100.909 51.7168 100.892 51.3931H100.031C100.031 51.7938 100.081 52.1522 100.187 52.4663C100.301 52.8015 100.495 53.0636 100.771 53.2524C101.046 53.4412 101.372 53.5356 101.75 53.5356C102.295 53.5356 102.721 53.3314 103.027 52.9229C103.333 52.5144 103.486 52.0231 103.486 51.4451C103.486 51.4277 103.484 51.4123 103.482 51.395C103.474 50.9499 103.374 50.5838 103.175 50.2986Z" fill="#353088"/>
<path d="M50.5529 46.8978L48.0905 53.4104H49.025L49.5529 51.9749H51.2851L51.4277 53.4104H52.2793L51.5741 46.8978H50.5529ZM49.9537 50.8901L50.919 48.2639L51.1791 50.8901H49.9537Z" fill="#353088"/>
<path d="M55.553 52.0771C55.3584 52.3006 55.1445 52.4123 54.9114 52.4123C54.6609 52.4123 54.4509 52.2697 54.2813 51.9846C54.1137 51.6994 54.0289 51.2948 54.0289 50.7707C54.0289 50.2909 54.0944 49.8112 54.2235 49.3314C54.3526 48.8516 54.526 48.4971 54.7437 48.2717C54.9615 48.0462 55.1946 47.9326 55.4431 47.9326C55.6705 47.9326 55.8536 48.0173 55.9904 48.1888C56.1021 48.3295 56.183 48.5433 56.2351 48.8247H57.1156C57.0578 48.2042 56.8882 47.7091 56.6069 47.3449C56.3141 46.9653 55.9326 46.7765 55.4586 46.7765C55.0366 46.7765 54.6474 46.9403 54.289 47.2659C53.9306 47.5934 53.6512 48.0636 53.4489 48.6802C53.2466 49.2967 53.1464 49.975 53.1464 50.7187C53.1464 51.6339 53.2967 52.3314 53.5973 52.8131C53.8979 53.2948 54.316 53.5356 54.8497 53.5356C55.3237 53.5356 55.7379 53.343 56.0905 52.9576C56.4431 52.5723 56.709 52.0154 56.8863 51.2871L56.7919 51.2659H55.9364C55.8478 51.6108 55.7187 51.8863 55.553 52.0771Z" fill="#353088"/>
<path d="M60.8824 47.0501C60.6955 46.948 60.4354 46.8959 60.1002 46.8959H58.1541L57.2389 53.4085H58.1368L58.5144 50.7129H58.8844C59.0982 50.7129 59.2485 50.7553 59.3352 50.842C59.4759 50.9865 59.6069 51.2697 59.7321 51.6898C59.9595 52.4682 60.1137 53.0424 60.1927 53.4085H61.1541C60.9075 52.4778 60.684 51.7591 60.4836 51.2485C60.3834 50.9961 60.2755 50.7938 60.1599 50.6397C60.6108 50.553 60.946 50.3314 61.1695 49.9711C61.393 49.6108 61.5048 49.1541 61.5048 48.6011C61.5048 48.2139 61.4489 47.8825 61.3333 47.6108C61.2196 47.341 61.0693 47.1541 60.8824 47.0501ZM60.4913 49.2004C60.4007 49.3834 60.2755 49.5183 60.1156 49.605C59.9557 49.6917 59.63 49.7341 59.1387 49.7341H58.6551L58.9017 47.9826H59.9075C60.1772 47.9826 60.3506 48.0173 60.4316 48.0886C60.5626 48.2081 60.6281 48.3853 60.6281 48.6223C60.6262 48.8246 60.5819 49.0173 60.4913 49.2004Z" fill="#353088"/>
<path d="M64.3506 46.7745C63.9479 46.7745 63.5895 46.8978 63.2736 47.1425C62.9576 47.3872 62.6974 47.7206 62.4894 48.1425C62.2813 48.5645 62.1271 49.0616 62.0269 49.6358C61.9499 50.0635 61.9113 50.4701 61.9113 50.8555C61.9113 51.2716 61.9691 51.684 62.0828 52.0925C62.1984 52.5009 62.393 52.8439 62.6685 53.1194C62.9441 53.395 63.2851 53.5337 63.6917 53.5337C64.1599 53.5337 64.578 53.3603 64.9499 53.0135C65.3198 52.6666 65.6146 52.1695 65.8304 51.526C66.0462 50.8824 66.1541 50.2138 66.1541 49.526C66.1541 48.6975 65.9884 48.0327 65.6551 47.5298C65.3256 47.0269 64.8901 46.7745 64.3506 46.7745ZM65.0558 50.9653C64.9094 51.4508 64.7225 51.815 64.4971 52.0539C64.2716 52.2928 64.0366 52.4123 63.7938 52.4123C63.4932 52.4123 63.2524 52.2601 63.0674 51.9576C62.8843 51.6551 62.7919 51.2774 62.7919 50.8285C62.7919 50.0982 62.9306 49.4258 63.208 48.8131C63.4855 48.2004 63.8439 47.894 64.287 47.894C64.5761 47.894 64.8131 48.0404 64.998 48.3333C65.1849 48.6262 65.2774 49.0289 65.2774 49.5433C65.2774 50.0057 65.2023 50.4797 65.0558 50.9653Z" fill="#353088"/>
<path d="M68.5877 47.8439C68.8439 47.8439 69.0366 47.9268 69.1676 48.0925C69.2717 48.2254 69.3411 48.4065 69.3757 48.632H70.2447C70.2023 48.0906 70.052 47.6513 69.7881 47.316C69.5048 46.9557 69.1079 46.7765 68.5915 46.7765C68.0848 46.7765 67.6975 46.9576 67.4297 47.3198C67.1715 47.6705 67.0385 48.1079 67.0308 48.632C67.0308 48.6512 67.0289 48.6705 67.0289 48.6898C67.0289 49.0058 67.0732 49.2794 67.1638 49.5145C67.2543 49.7495 67.3777 49.9403 67.5357 50.0867C67.6937 50.2331 67.9441 50.4181 68.2871 50.6378C68.6301 50.8574 68.8401 51.0173 68.9152 51.1156C68.9807 51.1965 69.0251 51.2909 69.0501 51.3931C69.0675 51.4605 69.0771 51.5299 69.0771 51.6069C69.0771 51.8304 69.0096 52.0212 68.8786 52.1773C68.7457 52.3353 68.5299 52.4143 68.2332 52.4143C67.8748 52.4143 67.6301 52.2986 67.4971 52.0655C67.4258 51.9422 67.3815 51.7168 67.3622 51.3931H66.501C66.501 51.7938 66.5511 52.1522 66.657 52.4663C66.7707 52.8015 66.9653 53.0636 67.2409 53.2524C67.5164 53.4412 67.8439 53.5356 68.2197 53.5356C68.7649 53.5356 69.1908 53.3314 69.4971 52.9229C69.8035 52.5144 69.9557 52.0231 69.9557 51.4451C69.9557 51.4277 69.9538 51.4123 69.9518 51.395C69.9441 50.9538 69.8439 50.5877 69.6455 50.3006C69.5068 50.0983 69.185 49.8362 68.6782 49.5125C68.343 49.2967 68.1253 49.1252 68.027 49C67.9461 48.8998 67.8998 48.7765 67.8863 48.6339C67.8825 48.6031 67.8806 48.5703 67.8806 48.5376C67.8806 48.3391 67.9345 48.1734 68.0424 48.0424C68.1561 47.9094 68.3353 47.8439 68.5877 47.8439ZM73.7187 50.2986C73.58 50.0963 73.2582 49.8343 72.7515 49.5106C72.4143 49.2948 72.1985 49.1233 72.1002 48.9981C72.0193 48.8979 71.975 48.7746 71.9595 48.632C71.9557 48.6012 71.9538 48.5684 71.9538 48.5356C71.9538 48.3372 72.0077 48.1715 72.1156 48.0405C72.2235 47.9094 72.4027 47.8439 72.6551 47.8439C72.9114 47.8439 73.1041 47.9268 73.2351 48.0925C73.3391 48.2254 73.4085 48.4065 73.4432 48.632H74.3122C74.2698 48.0906 74.1195 47.6513 73.8555 47.316C73.5723 46.9557 73.1753 46.7765 72.659 46.7765C72.1522 46.7765 71.7649 46.9576 71.4971 47.3198C71.2389 47.6705 71.106 48.1079 71.0983 48.632C71.0983 48.6512 71.0964 48.6705 71.0964 48.6898C71.0964 49.0058 71.1426 49.2794 71.2332 49.5145C71.3237 49.7495 71.447 49.9403 71.605 50.0867C71.763 50.2331 72.0135 50.4181 72.3565 50.6378C72.6994 50.8574 72.9095 51.0173 72.9865 51.1156C73.052 51.1965 73.0963 51.2909 73.1214 51.3931C73.1387 51.4605 73.1484 51.5299 73.1484 51.6069C73.1484 51.8304 73.0829 52.0212 72.9499 52.1773C72.817 52.3353 72.6012 52.4143 72.3044 52.4143C71.9461 52.4143 71.7014 52.2986 71.5684 52.0655C71.4971 51.9422 71.4509 51.7168 71.4335 51.3931H70.5723C70.5723 51.7938 70.6224 52.1522 70.7283 52.4663C70.842 52.8015 71.0366 53.0636 71.3122 53.2524C71.5877 53.4412 71.9133 53.5356 72.291 53.5356C72.8382 53.5356 73.264 53.3314 73.5684 52.9229C73.8748 52.5144 74.027 52.0231 74.027 51.4451C74.027 51.4277 74.0251 51.4123 74.0231 51.395C74.0174 50.9499 73.9172 50.5838 73.7187 50.2986Z" fill="#353088"/>
<path d="M89.3873 33.605C85.6628 33.6243 81.9383 33.7302 78.2158 33.8979L76.2428 43.4682H99.079L100.626 35.9672L88.8863 35.9692L89.3873 33.605ZM32.8921 14.2408C32.9133 14.1407 32.9287 14.0597 32.9403 14.0039C32.9287 14.0597 32.9133 14.1387 32.8921 14.2408ZM32.9634 14.0019C32.9634 14.0019 32.9595 14.0154 32.9557 14.0424C32.9518 14.0597 32.948 14.0809 32.9422 14.106C32.9306 14.1618 32.9133 14.2428 32.894 14.343C32.8594 14.5145 32.8112 14.7495 32.7515 15.0308C32.1811 17.7958 30.5992 25.4682 29.8054 29.3121C29.763 29.5164 29.7225 29.7091 29.6859 29.8902C29.6879 29.8786 29.6898 29.869 29.6936 29.8574C29.6898 29.8748 29.6859 29.8921 29.6821 29.9094C29.6802 29.9152 29.6802 29.9191 29.6782 29.9249C29.6224 30.1965 29.5723 30.4432 29.5279 30.6532C29.5202 30.6936 29.5106 30.7322 29.5029 30.7707C29.4952 30.8112 29.4856 30.8516 29.4779 30.8902C29.4624 30.9634 29.4489 31.0328 29.4355 31.0944C29.4335 31.106 29.4316 31.1175 29.4278 31.1291C29.4085 31.2177 29.3931 31.2948 29.3796 31.3584C29.3565 31.4701 29.343 31.5395 29.3372 31.5607C29.0058 33.1696 28.5357 34.262 26.8266 34.6744H25.7784H24.7303H24.5453H20.8324L19.921 38.9634L19.5029 40.9306L19.2832 41.9653L19.0135 43.2312L18.9827 43.3796H19.0096L18.9884 43.4875H25.9634V43.4643H30.5819C30.6513 43.4547 30.7206 43.4451 30.7881 43.4354C35.4644 42.6975 38.1349 40.3102 39.133 37.8247L39.2447 37.3006L39.5877 35.6859L40.3372 32.1599L44.1965 14H32.9634V14.0019ZM93.5511 14.0058V14.0039H82.3179L80.1503 24.5125C83.9249 24.1407 87.7071 23.867 91.4971 23.6724L91.948 21.5549H103.597L105.154 14.0058H93.5511ZM79.7399 14.0019H68.5068L65.9499 26.4027L65.5935 28.131L64.7881 26.605L58.1773 14.0771L58.1387 14.0039H46.9595L43.3834 31.341L42.237 36.9017L40.8825 43.4701H51.9326L53.5973 35.6378L54.9345 29.341L58.0848 35.2351L62.4451 43.3911L62.4875 43.4701H73.4778L75.4836 34.0328L77.447 24.7958L79.7399 14.0019Z" fill="#353088"/>
</svg>
