<svg width="120" height="68" viewBox="0 0 120 68" fill="none" xmlns="http://www.w3.org/2000/svg">
<path d="M13.6036 44.1507C12.3394 44.1507 11.2205 44.1507 10.0012 44.1507C10.0012 43.8119 10.0012 43.5063 10.0012 43.2006C10.0012 38.5103 9.99795 33.8211 10.0022 29.1308C10.0054 25.397 12.396 23.0064 16.1138 23.0053C18.4061 23.0053 20.6983 22.9914 22.9895 23.0085C26.3846 23.0331 28.8158 25.4728 28.8478 28.8701C28.8585 29.928 28.8617 30.986 28.8468 32.0439C28.7976 35.5416 26.4081 37.9236 22.9329 37.9375C20.6759 37.9472 18.4189 37.929 16.163 37.9429C14.3484 37.9546 13.6078 38.7102 13.6025 40.513C13.6004 41.7056 13.6036 42.8961 13.6036 44.1507ZM19.5314 26.8204C18.2607 26.8204 16.9901 26.8033 15.7206 26.8257C14.4873 26.8471 13.6688 27.6197 13.6132 28.8572C13.5662 29.9131 13.5704 30.9753 13.6217 32.0322C13.6859 33.3733 14.4051 34.147 15.7344 34.178C18.1678 34.2336 20.6043 34.2368 23.0376 34.1802C24.4963 34.146 25.2091 33.3498 25.2443 31.904C25.2679 30.9518 25.27 29.9986 25.2433 29.0464C25.2027 27.5898 24.4493 26.8418 23.0248 26.8247C21.861 26.8086 20.6962 26.8193 19.5314 26.8204Z" fill="#424242"/>
<path d="M94.4607 23.047C95.7014 23.047 96.8491 23.047 98.0973 23.047C98.0973 24.6158 98.0973 26.1568 98.0973 27.6978C98.0973 31.1559 98.093 34.614 98.0994 38.0722C98.1026 39.657 98.8315 40.3666 100.435 40.3709C101.636 40.3741 102.835 40.3762 104.035 40.3698C105.622 40.3612 106.352 39.6014 106.354 37.9269C106.36 33.3391 106.356 28.7525 106.356 24.1648C106.356 23.8175 106.356 23.4702 106.356 23.0641C107.553 23.0641 108.7 23.0641 109.926 23.0641C109.945 23.2297 109.989 23.4253 109.989 23.6198C109.993 28.3838 109.975 33.1479 110 37.9108C110.012 40.2779 109.186 42.1961 107.102 43.4047C106.428 43.7959 105.61 44.094 104.843 44.1346C103.049 44.2297 101.238 44.2554 99.4513 44.1047C96.6824 43.8707 94.4853 41.401 94.4703 38.6129C94.4415 33.462 94.4607 28.3101 94.4607 23.047Z" fill="#434343"/>
<path d="M72.3311 26.8215C72.3311 25.5199 72.3311 24.3326 72.3311 23.0759C77.7534 23.0759 83.1619 23.0759 88.6248 23.0759C88.6248 24.2824 88.6248 25.5006 88.6248 26.8215C87.3039 26.8215 86.0109 26.8151 84.7178 26.8236C83.071 26.8343 82.3337 27.5556 82.3304 29.2014C82.3208 33.7837 82.3272 38.3672 82.3272 42.9495C82.3272 43.331 82.3272 43.7115 82.3272 44.14C81.0887 44.14 79.9377 44.14 78.6479 44.14C78.6479 43.8087 78.6479 43.471 78.6479 43.1344C78.6479 38.6931 78.6479 34.2507 78.6479 29.8094C78.6479 27.3473 78.1317 26.8225 75.7145 26.8225C74.6212 26.8215 73.5301 26.8215 72.3311 26.8215Z" fill="#424242"/>
<path d="M36.2824 23.0406C37.3436 23.0406 38.3524 23.0406 39.4168 23.0406C39.4168 30.0637 39.4168 37.057 39.4168 44.1165C38.4112 44.1165 37.3756 44.1165 36.2824 44.1165C36.2824 37.1275 36.2824 30.1343 36.2824 23.0406Z" fill="#424242"/>
<path d="M65.6852 36.7727C65.6852 39.1975 65.6852 41.6233 65.6852 44.1165C64.5589 44.1165 63.4475 44.1165 62.2751 44.1165C62.2751 42.7358 62.2751 41.3422 62.2751 39.9498C62.6417 39.6623 63.035 39.4026 63.3705 39.0821C64.156 38.3265 64.9147 37.5432 65.6852 36.7727Z" fill="#33F277"/>
<path d="M48.5772 30.2069C48.3763 27.8997 48.7396 25.7934 50.6536 24.2129C51.8975 23.1859 53.3305 22.8835 54.8961 23.0406C54.8063 23.2244 54.7476 23.4349 54.6204 23.5888C53.5037 24.9331 52.4072 26.2978 51.236 27.5941C50.4056 28.5142 49.4674 29.3392 48.5772 30.2069Z" fill="#3766F8"/>
<path d="M48.5772 30.2069C49.4674 29.3392 50.4057 28.5142 51.2371 27.5941C52.4083 26.2978 53.5037 24.9332 54.6215 23.5888C54.7487 23.436 54.8064 23.2255 54.8972 23.0406C55.3909 23.0406 55.8857 23.0417 56.3794 23.0417C56.0097 23.576 55.6452 24.1135 55.2702 24.6446C54.7978 25.3136 54.3158 25.9762 53.8392 26.6409C52.7022 26.9914 52.1315 27.8207 51.8986 28.9353C51.2734 29.5038 50.6515 30.0755 50.022 30.6387C49.5465 31.064 49.0613 31.4797 48.5804 31.8997C48.5783 31.3365 48.5772 30.7723 48.5772 30.2069Z" fill="#3770F3"/>
<path d="M51.967 39.5309C51.9776 40.5771 51.9894 41.6233 52.0001 42.6695C51.5513 43.1675 51.1035 43.6655 50.6547 44.1635C49.9953 44.1635 49.3359 44.1635 48.5793 44.1635C48.5793 43.6495 48.5793 43.175 48.5793 42.7005C48.917 42.4258 49.274 42.1726 49.5871 41.8723C50.3907 41.1039 51.1751 40.3131 51.967 39.5309Z" fill="#35AFB8"/>
<path d="M65.2406 26.4015C65.3806 27.0352 65.5217 27.6678 65.6617 28.3015C65.2513 28.651 64.8249 28.9823 64.4349 29.3531C63.7029 30.0477 62.9922 30.7648 62.2719 31.4733C62.2516 30.5628 62.2324 29.6523 62.2121 28.7418C62.6641 28.3881 63.113 28.0312 63.5671 27.6807C64.1228 27.2511 64.6828 26.8279 65.2406 26.4015Z" fill="#35BCAA"/>
<path d="M65.6852 36.7727C64.9147 37.5443 64.157 38.3266 63.3694 39.081C63.0349 39.4016 62.6417 39.6613 62.274 39.9488C62.2751 39.4828 62.2751 39.0158 62.2762 38.5488C62.3745 38.1631 62.3756 37.7067 62.5925 37.4075C63.0349 36.7984 63.565 36.2448 64.1121 35.7233C64.6016 35.2574 65.1615 34.8673 65.6894 34.4442C65.6894 35.22 65.6873 35.9958 65.6852 36.7727Z" fill="#33E882"/>
<path d="M65.6852 30.4185C65.6873 31.1944 65.6905 31.9713 65.6927 32.7471C65.1338 33.2344 64.577 33.7249 64.0149 34.209C63.4335 34.7091 62.8468 35.2029 62.2623 35.6998C62.2655 35.0009 62.2698 34.302 62.273 33.602C62.5669 33.3883 62.8917 33.2056 63.1493 32.9555C64.0074 32.1241 64.842 31.267 65.6852 30.4185Z" fill="#34D297"/>
<path d="M62.7154 23.6914C63.2893 24.1627 63.8631 24.635 64.437 25.1063C63.597 25.958 62.7571 26.8097 61.9171 27.6614C61.4149 27.3344 60.9137 27.0064 60.4125 26.6793C60.5482 26.5191 60.6828 26.3588 60.8186 26.1995C60.9682 25.9794 61.1178 25.7603 61.2663 25.5402C61.4683 25.3339 61.6692 25.1287 61.8712 24.9225C62.1522 24.5121 62.4344 24.1018 62.7154 23.6914Z" fill="#34A2BD"/>
<path d="M65.6852 30.4185C64.842 31.266 64.0085 32.123 63.1504 32.9555C62.8918 33.2066 62.568 33.3883 62.2741 33.602C62.2741 32.8925 62.273 32.1818 62.273 31.4722C62.9933 30.7648 63.7039 30.0477 64.436 29.352C64.826 28.9823 65.2524 28.6499 65.6628 28.3005C65.6692 29.0079 65.6767 29.7132 65.6852 30.4185Z" fill="#34C8A0"/>
<path d="M51.967 34.0242C51.967 34.6557 51.967 35.2873 51.967 35.9178C51.6015 36.2042 51.2071 36.4618 50.8759 36.7834C50.0947 37.54 49.3424 38.3265 48.5793 39.1013C48.5793 38.396 48.5793 37.6896 48.5793 36.9843C48.8764 36.7962 49.2098 36.6466 49.4653 36.4126C50.3138 35.6325 51.1356 34.8224 51.967 34.0242Z" fill="#3694D3"/>
<path d="M62.7154 23.6914C62.4333 24.1018 62.1522 24.5121 61.8701 24.9225C61.6681 25.1287 61.4662 25.3339 61.2653 25.5402C61.1157 25.7603 60.966 25.9794 60.8175 26.1995C60.6818 26.362 60.545 26.5244 60.4093 26.6868C59.7713 26.6719 59.1344 26.658 58.4964 26.643C58.9207 26.0307 59.3567 25.4258 59.7649 24.8039C60.1336 24.2418 60.4734 23.6615 60.8261 23.0887C61.4566 23.2896 62.086 23.4905 62.7154 23.6914Z" fill="#3592CF"/>
<path d="M51.967 34.0241C51.1345 34.8224 50.3138 35.6325 49.4642 36.4126C49.2088 36.6466 48.8764 36.7962 48.5783 36.9843C48.5783 36.3485 48.5783 35.7137 48.5783 35.0778C49.1981 34.5211 49.8115 33.959 50.4377 33.4107C50.94 32.9715 51.4561 32.5483 51.9659 32.1177C51.967 32.7535 51.967 33.3883 51.967 34.0241Z" fill="#378ADC"/>
<path d="M48.5793 39.1013C49.3434 38.3265 50.0947 37.54 50.8759 36.7834C51.2082 36.4617 51.6015 36.2042 51.967 35.9178C51.967 36.5536 51.967 37.1884 51.967 37.8242C51.3963 38.3094 50.8192 38.7882 50.255 39.283C49.6886 39.7788 49.1372 40.2907 48.5783 40.7962C48.5793 40.2308 48.5793 39.6655 48.5793 39.1013Z" fill="#369DC9"/>
<path d="M48.5793 40.7951C49.1372 40.2907 49.6897 39.7788 50.2561 39.2819C50.8192 38.7882 51.3963 38.3094 51.968 37.8232C51.968 38.3917 51.968 38.9613 51.968 39.5298C51.1762 40.3121 50.3918 41.1018 49.5881 41.8723C49.275 42.1726 48.917 42.4258 48.5804 42.7005C48.5793 42.0657 48.5793 41.4309 48.5793 40.7951Z" fill="#36A6C1"/>
<path d="M62.2623 35.7008C62.8468 35.2039 63.4335 34.7102 64.0149 34.2101C64.577 33.726 65.1338 33.2355 65.6927 32.7482C65.6927 33.3135 65.6927 33.8788 65.6916 34.4441C65.1626 34.8673 64.6026 35.2584 64.1143 35.7244C63.5671 36.2448 63.036 36.7994 62.5946 37.4085C62.3777 37.7078 62.3766 38.1641 62.2783 38.5499C62.2719 37.5998 62.2676 36.6498 62.2623 35.7008Z" fill="#30CD80"/>
<path d="M51.967 32.1177C51.4572 32.5483 50.94 32.9715 50.4388 33.4107C49.8126 33.9589 49.1981 34.521 48.5793 35.0778C48.5793 34.5125 48.5793 33.9483 48.5793 33.3829C49.695 32.2598 50.8107 31.1366 51.9264 30.0135C51.9402 30.7156 51.9531 31.4166 51.967 32.1177Z" fill="#3781E5"/>
<path d="M53.8371 26.6419C54.3148 25.9762 54.7957 25.3136 55.268 24.6457C55.6431 24.1156 56.0086 23.577 56.3773 23.0427C56.871 23.0427 57.3658 23.0427 57.8595 23.0427C57.6265 23.4403 57.4107 23.8485 57.1574 24.2332C56.6252 25.0422 56.0738 25.8394 55.5309 26.6409C54.9677 26.6409 54.4024 26.6419 53.8371 26.6419Z" fill="#377AEC"/>
<path d="M55.532 26.6409C56.0759 25.8394 56.6263 25.0422 57.1585 24.2332C57.4117 23.8485 57.6276 23.4403 57.8606 23.0427C58.3543 23.0427 58.8491 23.0427 59.3428 23.0427C59.1793 23.3719 59.0489 23.7235 58.8448 24.0248C58.2496 24.9075 57.6255 25.7699 57.0131 26.6409C56.5205 26.6409 56.0268 26.6409 55.532 26.6409Z" fill="#3783E3"/>
<path d="M57.0142 26.6409C57.6265 25.7699 58.2506 24.9075 58.8459 24.0248C59.05 23.7224 59.1803 23.3708 59.3438 23.0427C59.8376 23.0577 60.3323 23.0737 60.8261 23.0887C60.4734 23.6615 60.1346 24.2417 59.7649 24.8039C59.3556 25.4258 58.9207 26.0307 58.4964 26.643C58.0027 26.643 57.5079 26.6419 57.0142 26.6409Z" fill="#378CDA"/>
<path d="M51.9264 30.0135C50.8107 31.1367 49.695 32.2598 48.5793 33.383C48.5793 32.8893 48.5793 32.3945 48.5793 31.9008C49.0602 31.4808 49.5454 31.0651 50.021 30.6398C50.6504 30.0766 51.2723 29.5049 51.8975 28.9363C51.906 29.2954 51.9167 29.6545 51.9264 30.0135Z" fill="#3779ED"/>
<path d="M61.9171 27.6614C62.7571 26.8097 63.5971 25.958 64.437 25.1063C64.7052 25.538 64.9724 25.9697 65.2406 26.4015C64.6828 26.8279 64.1228 27.251 63.5682 27.6796C63.114 28.0301 62.6641 28.387 62.2132 28.7407C62.1138 28.3817 62.0155 28.0215 61.9171 27.6614Z" fill="#2E9E9D"/>
<path d="M50.6547 44.1646C51.1035 43.6666 51.5513 43.1686 52.0001 42.6706C52.0364 43.144 52.0728 43.6174 52.1155 44.1646C51.5406 44.1646 51.0971 44.1646 50.6547 44.1646Z" fill="#298B8D"/>
<path d="M60.4093 26.6868C60.545 26.5244 60.6818 26.362 60.8175 26.1995C60.6818 26.3598 60.5471 26.5191 60.4114 26.6793C60.4114 26.6804 60.4093 26.6868 60.4093 26.6868Z" fill="#2F85B1"/>
<path d="M61.2653 25.5402C61.4672 25.3339 61.6692 25.1287 61.8701 24.9225C61.6681 25.1287 61.4672 25.3339 61.2653 25.5402Z" fill="#2F85B1"/>
</svg>
