<svg width="100" height="100" viewBox="0 0 100 100" fill="none" xmlns="http://www.w3.org/2000/svg">
<path d="M92 6H8C6.89543 6 6 6.89543 6 8V92C6 93.1046 6.89543 94 8 94H92C93.1046 94 94 93.1046 94 92V8C94 6.89543 93.1046 6 92 6Z" fill="#ECF4FF"/>
<path d="M83.04 13.5684V95.8184C83.0413 95.9729 83.012 96.1261 82.9538 96.2692C82.8956 96.4124 82.8096 96.5425 82.7009 96.6522C82.5921 96.7619 82.4627 96.849 82.3201 96.9084C82.1774 96.9678 82.0245 96.9984 81.87 96.9984H20.77C20.615 96.9984 20.4616 96.9679 20.3184 96.9086C20.1753 96.8493 20.0452 96.7624 19.9356 96.6528C19.826 96.5433 19.7391 96.4132 19.6798 96.27C19.6205 96.1268 19.59 95.9734 19.59 95.8184V13.5684C19.5926 13.2572 19.7181 12.9596 19.9391 12.7405C20.1601 12.5214 20.4588 12.3984 20.77 12.3984H81.87C82.1803 12.3984 82.4779 12.5217 82.6973 12.7411C82.9167 12.9605 83.04 13.2581 83.04 13.5684Z" fill="url(#paint0_linear)"/>
<path d="M73.33 4.18V86.43C73.3274 86.7395 73.2033 87.0356 72.9844 87.2544C72.7656 87.4733 72.4695 87.5974 72.16 87.6H11.08C10.7688 87.6 10.4701 87.4771 10.2491 87.2579C10.0281 87.0388 9.90263 86.7412 9.89999 86.43V21.8L28.7 3H72.18C72.4877 3.00783 72.7802 3.13559 72.9951 3.35604C73.2099 3.57649 73.3301 3.87217 73.33 4.18Z" fill="url(#paint1_linear)"/>
<path d="M9.89999 21.8H27.53C27.8395 21.7974 28.1356 21.6733 28.3544 21.4544C28.5733 21.2356 28.6974 20.9395 28.7 20.63V3L9.89999 21.8Z" fill="url(#paint2_linear)"/>
<g style="mix-blend-mode:soft-light" opacity="0.4">
<path d="M65.99 9.35938H36.06C35.5077 9.35938 35.06 9.80709 35.06 10.3594V37.1494C35.06 37.7017 35.5077 38.1494 36.06 38.1494H65.99C66.5423 38.1494 66.99 37.7017 66.99 37.1494V10.3594C66.99 9.80709 66.5423 9.35938 65.99 9.35938Z" fill="white"/>
</g>
<path d="M23.26 45.4688H17.26C16.7077 45.4688 16.26 45.9165 16.26 46.4688V52.4688C16.26 53.021 16.7077 53.4688 17.26 53.4688H23.26C23.8123 53.4688 24.26 53.021 24.26 52.4688V46.4688C24.26 45.9165 23.8123 45.4688 23.26 45.4688Z" fill="url(#paint3_linear)"/>
<g style="mix-blend-mode:soft-light" opacity="0.3">
<path d="M48.79 47.4688H27.54C27.3191 47.4688 27.14 47.6478 27.14 47.8687V51.0687C27.14 51.2897 27.3191 51.4688 27.54 51.4688H48.79C49.0109 51.4688 49.19 51.2897 49.19 51.0687V47.8687C49.19 47.6478 49.0109 47.4688 48.79 47.4688Z" fill="black"/>
</g>
<path d="M23.26 57.6992H17.26C16.7077 57.6992 16.26 58.1469 16.26 58.6992V64.6992C16.26 65.2515 16.7077 65.6992 17.26 65.6992H23.26C23.8123 65.6992 24.26 65.2515 24.26 64.6992V58.6992C24.26 58.1469 23.8123 57.6992 23.26 57.6992Z" fill="url(#paint4_linear)"/>
<g style="mix-blend-mode:soft-light" opacity="0.3">
<path d="M48.79 59.6992H27.54C27.3191 59.6992 27.14 59.8783 27.14 60.0992V63.2992C27.14 63.5201 27.3191 63.6992 27.54 63.6992H48.79C49.0109 63.6992 49.19 63.5201 49.19 63.2992V60.0992C49.19 59.8783 49.0109 59.6992 48.79 59.6992Z" fill="black"/>
</g>
<path d="M23.26 69.9414H17.26C16.7077 69.9414 16.26 70.3891 16.26 70.9414V76.9414C16.26 77.4937 16.7077 77.9414 17.26 77.9414H23.26C23.8123 77.9414 24.26 77.4937 24.26 76.9414V70.9414C24.26 70.3891 23.8123 69.9414 23.26 69.9414Z" fill="url(#paint5_linear)"/>
<g style="mix-blend-mode:soft-light" opacity="0.3">
<path d="M48.79 71.9414H27.54C27.3191 71.9414 27.14 72.1205 27.14 72.3414V75.5414C27.14 75.7623 27.3191 75.9414 27.54 75.9414H48.79C49.0109 75.9414 49.19 75.7623 49.19 75.5414V72.3414C49.19 72.1205 49.0109 71.9414 48.79 71.9414Z" fill="black"/>
</g>
<g style="mix-blend-mode:soft-light" opacity="0.15">
<path d="M83.04 45.6694V83.6694C79.7912 85.3194 76.1736 86.1087 72.5328 85.9621C68.892 85.8155 65.3496 84.7377 62.244 82.8318C59.1384 80.9259 56.5734 78.2556 54.794 75.0758C53.0146 71.8961 52.0803 68.3131 52.0803 64.6694C52.0803 61.0256 53.0146 57.4427 54.794 54.2629C56.5734 51.0832 59.1384 48.4128 62.244 46.5069C65.3496 44.601 68.892 43.5233 72.5328 43.3766C76.1736 43.23 79.7912 44.0194 83.04 45.6694Z" fill="black"/>
</g>
<path d="M73.35 81.3984C82.6008 81.3984 90.1 73.8992 90.1 64.6484C90.1 55.3977 82.6008 47.8984 73.35 47.8984C64.0992 47.8984 56.6 55.3977 56.6 64.6484C56.6 73.8992 64.0992 81.3984 73.35 81.3984Z" fill="url(#paint6_linear)"/>
<g style="mix-blend-mode:soft-light" opacity="0.4">
<g style="mix-blend-mode:soft-light" opacity="0.4">
<path d="M73.33 79.3C70.4333 79.296 67.6029 78.4335 65.1963 76.8213C62.7898 75.2091 60.9152 72.9197 59.8094 70.2425C58.7037 67.5652 58.4164 64.6202 58.9839 61.7797C59.5515 58.9392 60.9483 56.3307 62.9979 54.2838C65.0476 52.237 67.658 50.8437 70.4993 50.28C73.3405 49.7164 76.2851 50.0077 78.9609 51.1171C81.6367 52.2265 83.9235 54.1042 85.5324 56.513C87.1413 58.9217 88 61.7534 88 64.65C87.9987 66.5752 87.6182 68.4812 86.8802 70.2594C86.1423 72.0375 85.0613 73.6529 83.6991 75.0133C82.3369 76.3736 80.72 77.4524 78.9409 78.1879C77.1618 78.9234 75.2552 79.3013 73.33 79.3ZM73.33 51C70.6379 51.002 68.0068 51.8017 65.769 53.2982C63.5311 54.7946 61.787 56.9207 60.7568 59.4079C59.7266 61.895 59.4565 64.6317 59.9808 67.2722C60.505 69.9128 61.8 72.3387 63.7022 74.2437C65.6044 76.1487 68.0284 77.4472 70.6682 77.9754C73.308 78.5035 76.045 78.2374 78.5337 77.2109C81.0224 76.1843 83.151 74.4433 84.6507 72.2076C86.1505 69.972 86.9541 67.3421 86.96 64.65C86.9639 62.858 86.6142 61.0829 85.9309 59.4263C85.2476 57.7697 84.2441 56.2643 82.9779 54.9963C81.7117 53.7282 80.2077 52.7225 78.5521 52.0367C76.8966 51.351 75.122 50.9987 73.33 51Z" fill="white"/>
</g>
</g>
<path d="M78.33 67.5694C78.346 68.3278 78.1335 69.0734 77.72 69.7094C77.3086 70.3323 76.7249 70.8222 76.04 71.1194C75.4916 71.374 74.9026 71.5298 74.3 71.5794V73.1894H72.5V71.5494C72.0036 71.4733 71.5194 71.3321 71.06 71.1294C70.3539 70.8133 69.736 70.3292 69.26 69.7194C68.7883 69.0873 68.4792 68.349 68.36 67.5694L70.14 67.2794C70.2581 67.7864 70.4869 68.2611 70.81 68.6694C71.1367 69.0681 71.5507 69.3863 72.02 69.5994C72.5215 69.8161 73.0639 69.9218 73.61 69.9094C74.1369 69.9205 74.6607 69.8253 75.15 69.6294C75.5472 69.4589 75.8922 69.1863 76.15 68.8394C76.3913 68.4932 76.5204 68.0813 76.52 67.6594C76.5273 67.3744 76.4619 67.0922 76.33 66.8394C76.19 66.5906 75.9864 66.3835 75.74 66.2394C75.4271 66.0425 75.0913 65.8846 74.74 65.7694L71.63 64.7694C70.8367 64.5612 70.121 64.1269 69.57 63.5194C69.0971 62.9389 68.8486 62.2078 68.87 61.4594C68.8561 60.7522 69.0509 60.0565 69.43 59.4594C69.8172 58.8728 70.366 58.4109 71.01 58.1294C71.4846 57.9109 71.9909 57.7692 72.51 57.7094V56.1094H74.33V57.7694C74.7966 57.8384 75.2511 57.973 75.68 58.1694C76.3306 58.48 76.8966 58.9432 77.33 59.5194C77.7954 60.1337 78.1074 60.8502 78.24 61.6094L76.42 61.9994C76.3527 61.5235 76.1687 61.0717 75.8843 60.6843C75.5998 60.2969 75.2239 59.986 74.79 59.7794C74.3338 59.5572 73.8369 59.4313 73.33 59.4094C72.8604 59.3898 72.3924 59.4752 71.96 59.6594C71.5669 59.803 71.2209 60.0521 70.96 60.3794C70.7421 60.6675 70.6229 61.0182 70.62 61.3794C70.6155 61.5866 70.6561 61.7922 70.739 61.9822C70.8219 62.1721 70.9451 62.3418 71.1 62.4794C71.5574 62.8391 72.0856 63.0981 72.65 63.2394L75.13 63.9694C75.7719 64.1385 76.3828 64.4086 76.94 64.7694C77.365 65.0622 77.709 65.4578 77.94 65.9194C78.1981 66.431 78.3317 66.9963 78.33 67.5694Z" fill="white"/>
<defs>
<linearGradient id="paint0_linear" x1="51.32" y1="12.7884" x2="51.32" y2="96.5484" gradientUnits="userSpaceOnUse">
<stop stop-color="#C2DBFF"/>
<stop offset="1" stop-color="#8CBBFF"/>
</linearGradient>
<linearGradient id="paint1_linear" x1="41.63" y1="85.55" x2="41.63" y2="4.84" gradientUnits="userSpaceOnUse">
<stop stop-color="#162585"/>
<stop offset="1" stop-color="#0077FC"/>
</linearGradient>
<linearGradient id="paint2_linear" x1="19.3" y1="21.57" x2="19.3" y2="3.22" gradientUnits="userSpaceOnUse">
<stop stop-color="#162585"/>
<stop offset="1" stop-color="#0062CF"/>
</linearGradient>
<linearGradient id="paint3_linear" x1="175.7" y1="406.829" x2="175.7" y2="465.389" gradientUnits="userSpaceOnUse">
<stop stop-color="#C2DBFF"/>
<stop offset="1" stop-color="#8CBBFF"/>
</linearGradient>
<linearGradient id="paint4_linear" x1="175.7" y1="516.899" x2="175.7" y2="575.539" gradientUnits="userSpaceOnUse">
<stop stop-color="#C2DBFF"/>
<stop offset="1" stop-color="#8CBBFF"/>
</linearGradient>
<linearGradient id="paint5_linear" x1="175.7" y1="627.061" x2="175.7" y2="685.621" gradientUnits="userSpaceOnUse">
<stop stop-color="#C2DBFF"/>
<stop offset="1" stop-color="#8CBBFF"/>
</linearGradient>
<linearGradient id="paint6_linear" x1="73.35" y1="47.4484" x2="73.35" y2="81.2984" gradientUnits="userSpaceOnUse">
<stop stop-color="#F69621"/>
<stop offset="0.54" stop-color="#F17121"/>
<stop offset="1" stop-color="#F15D00"/>
</linearGradient>
</defs>
</svg>
